<svg width="1005" height="1005" viewBox="0 0 1005 1005" fill="none" xmlns="http://www.w3.org/2000/svg">
<g id="Group 2">
<path id="logo-box" d="M1002.57 2.25H2.57141V1002.25H1002.57V2.25Z" fill="white" stroke="black" stroke-width="4"/>
<path id="logo-text" d="M532.502 741.33C537.836 750.121 544.502 761.769 552.501 776.275C560.834 790.341 569.334 806.165 578 823.747C586.666 840.89 595.166 858.912 603.499 877.813C612.165 896.714 619.498 914.956 625.498 932.538H572.498C565.834 915.835 558.501 898.912 550.502 881.769C542.835 864.626 535.002 848.363 527.003 832.978C519.003 817.154 511.004 802.429 503.004 788.802C495.338 775.176 488.338 763.308 482.005 753.198C477.672 753.637 473.172 753.857 468.506 753.857C464.173 753.857 459.673 753.857 455.006 753.857H411.509V932.538H363.011V482.209C376.677 477.813 391.843 474.956 408.509 473.637C425.508 471.879 441.007 471 455.006 471C503.671 471 540.669 483.088 566.001 507.264C591.666 531.44 604.499 567.484 604.499 615.396C604.499 645.725 598.333 671.659 586 693.198C574 714.736 556.168 730.78 532.502 741.33ZM459.006 527.044C438.341 527.044 422.508 527.703 411.509 529.022V701.11H446.007C462.673 701.11 477.672 700.011 491.005 697.813C504.337 695.615 515.503 691.44 524.503 685.286C533.836 679.132 541.002 670.56 546.002 659.571C551.002 648.143 553.501 633.198 553.501 614.736C553.501 597.593 551.002 583.308 546.002 571.879C541.002 560.451 534.169 551.44 525.503 544.846C517.17 538.253 507.17 533.637 495.504 531C484.172 528.363 472.006 527.044 459.006 527.044ZM846.939 741.33C852.272 750.121 858.938 761.769 866.938 776.275C875.271 790.341 883.77 806.165 892.436 823.747C901.103 840.89 909.602 858.912 917.935 877.813C926.602 896.714 933.934 914.956 939.934 932.538H886.937C880.27 915.835 872.938 898.912 864.938 881.769C857.272 864.626 849.439 848.363 841.439 832.978C833.439 817.154 825.44 802.429 817.44 788.802C809.774 775.176 802.774 763.308 796.441 753.198C792.108 753.637 787.608 753.857 782.942 753.857C778.609 753.857 774.109 753.857 769.443 753.857H725.945V932.538H677.447V482.209C691.113 477.813 706.279 474.956 722.945 473.637C739.944 471.879 755.443 471 769.443 471C818.107 471 855.105 483.088 880.437 507.264C906.102 531.44 918.935 567.484 918.935 615.396C918.935 645.725 912.769 671.659 900.436 693.198C888.437 714.736 870.604 730.78 846.939 741.33ZM773.442 527.044C752.777 527.044 736.944 527.703 725.945 529.022V701.11H760.443C777.109 701.11 792.108 700.011 805.441 697.813C818.773 695.615 829.94 691.44 838.939 685.286C848.272 679.132 855.438 670.56 860.438 659.571C865.438 648.143 867.938 633.198 867.938 614.736C867.938 597.593 865.438 583.308 860.438 571.879C855.438 560.451 848.605 551.44 839.939 544.846C831.606 538.253 821.607 533.637 809.941 531C798.608 528.363 786.442 527.044 773.442 527.044Z" fill="black" stroke="black" stroke-width="4"/>
</g>
</svg>
