<svg viewBox="0 0 505 205" fill="none" xmlns="http://www.w3.org/2000/svg">
<mask id="path-1-outside-1" maskUnits="userSpaceOnUse" x="0" y="-1" width="505" height="206" fill="black">
<rect fill="white" y="-1" width="505" height="206"/>
<path fill-rule="evenodd" clip-rule="evenodd" d="M26.9233 94.7814C27.1807 93.9799 27.4813 93.1513 27.825 92.2955L27.5672 91.9746C25.7631 92.8318 23.9804 93.7407 22.2192 94.7016C20.4581 95.6624 18.7184 96.5712 17.0002 97.4278C18.3463 97.6404 19.7013 97.7742 21.0598 97.8286C22.3901 97.8842 23.7431 97.9111 25.1188 97.9092C25.2997 97.8748 25.4726 97.8003 25.6276 97.6901C25.7825 97.5799 25.9163 97.4362 26.0211 97.2674C26.3631 96.4131 26.6639 95.5844 26.9233 94.7814ZM92.9039 22.048C91.8657 20.9121 90.6404 20.0133 89.2961 19.4016C87.8347 18.707 86.3264 18.1438 84.7853 17.7172C83.2606 17.2946 81.71 16.9998 80.1463 16.8351C78.5996 16.6753 77.2249 16.5952 76.0223 16.5948C74.8196 16.5943 73.6598 16.6478 72.5427 16.7552C71.4272 16.8631 70.2674 16.9701 69.0631 17.0761C68.788 17.1457 68.53 17.2824 68.3073 17.4764C68.0847 17.6704 67.9028 17.9169 67.7748 18.1986C63.22 25.7928 58.8169 33.4377 54.5654 41.1333C50.3139 48.8289 46.2974 56.7947 42.5161 65.0307C41.1412 67.9174 39.8526 70.831 38.6504 73.7714C37.4407 76.7292 36.3652 79.7536 35.428 82.8331C37.832 81.5504 40.8604 79.8139 44.5133 77.6237C48.1662 75.4334 52.0538 72.9474 56.176 70.1658C60.2994 67.3875 64.5092 64.3935 68.8053 61.1841C72.9233 58.1258 76.8818 54.8057 80.6613 51.2403C84.017 48.1017 87.1215 44.6404 89.9393 40.8957C92.5172 37.4228 94.1927 34.0813 94.9657 30.8714C95.7382 27.2382 95.0508 24.2978 92.9033 22.0501L92.9039 22.048ZM98.5748 24.1318C99.1756 26.6539 99.1756 29.3085 98.5748 31.8306C97.7146 35.5745 95.8888 39.3167 93.0973 43.0573C90.0658 47.0692 86.7473 50.7972 83.1747 54.2041C79.191 58.0276 74.9943 61.5631 70.6098 64.789C66.0551 68.1573 61.566 71.3117 57.1427 74.2521C52.7193 77.1926 48.5312 79.8387 44.5784 82.1906C40.6252 84.5439 37.3175 86.4686 34.6553 87.9647C33.7567 88.4633 32.9311 89.1123 32.2068 89.8895C31.4651 90.7389 30.9315 91.7884 30.6576 92.9366C30.2728 94.1031 29.7986 95.23 29.2404 96.3047C28.8958 97.2665 29.1536 97.7476 30.0137 97.748C30.8696 97.6419 31.73 97.5884 32.591 97.5876H35.1684C36.5416 97.5876 37.8946 97.6142 39.2273 97.6675C40.5601 97.7207 41.9563 97.8011 43.4158 97.9085C48.6556 98.2294 53.8533 98.6036 59.0092 99.031C64.2308 99.4719 69.4064 100.438 74.4736 101.918C75.2464 102.134 76.0848 102.399 76.9865 102.72C77.8851 103.04 78.7494 103.47 79.5638 104.003C80.3564 104.518 81.0735 105.168 81.69 105.928C82.293 106.684 82.6557 107.642 82.7211 108.654C82.8452 109.127 82.8085 109.635 82.6181 110.079C82.4276 110.523 82.0969 110.873 81.69 111.06C81.2988 111.065 80.9089 111.011 80.5305 110.899C80.3351 110.806 80.1692 110.649 80.0543 110.449C79.9394 110.249 79.8808 110.015 79.886 109.777C79.6486 108.769 79.0996 107.888 78.3368 107.291C77.6086 106.789 76.83 106.385 76.0173 106.088C72.7198 104.759 69.308 103.819 65.837 103.281C61.797 102.587 57.5872 102.079 53.2076 101.757C48.828 101.436 44.5767 101.196 40.4537 101.036C36.3299 100.876 32.8505 100.796 30.0156 100.796C29.2513 100.771 28.5003 101.023 27.8737 101.514C27.247 102.005 26.778 102.709 26.536 103.522C24.7315 108.871 22.9916 114.163 21.3163 119.401C19.6122 124.748 18.2135 130.213 17.1285 135.76C16.8727 137.022 16.743 138.313 16.7418 139.608C16.7499 140.927 17.1089 142.212 17.7729 143.3C17.9416 143.564 18.0478 143.872 18.0816 144.195C18.1154 144.517 18.0757 144.844 17.9663 145.145C17.8773 145.467 17.7192 145.76 17.5056 145.997C17.2921 146.235 17.0298 146.41 16.7418 146.508C16.4992 146.63 16.2339 146.685 15.9684 146.668C15.0219 146.668 14.4206 145.974 14.1645 144.584C13.7337 142.419 13.7337 140.174 14.1645 138.009C14.593 134.265 15.2823 130.565 16.2262 126.942C17.1706 123.306 18.2016 119.725 19.3191 116.197C20.0057 113.844 20.7574 111.572 21.5741 109.38C22.3909 107.189 23.1858 104.971 23.9587 102.725C24.0923 102.333 24.1998 101.931 24.2803 101.522C24.3231 101.256 24.0009 101.121 23.3142 101.121C20.2216 101.228 17.1287 101.415 14.0356 101.682C10.9271 101.954 7.85685 102.627 4.8858 103.687C4.50977 103.812 4.1177 103.866 3.72574 103.847C3.3802 103.842 3.04483 103.715 2.76689 103.485C2.48895 103.255 2.28246 102.933 2.17651 102.564C2.0413 102.246 1.9821 101.894 2.0047 101.543C2.02729 101.192 2.13091 100.853 2.3054 100.56C2.68963 100.043 3.17445 99.6312 3.72264 99.3567C6.98636 97.7532 10.2294 96.0959 13.4518 94.3848C16.6742 92.6738 19.9605 91.07 23.3105 89.5734C25.6343 88.6253 27.7453 87.12 29.4963 85.1628C31.3051 82.986 32.7459 80.4591 33.7486 77.7049C37.5776 67.6328 41.8573 57.7835 46.5713 48.1945C51.2533 38.6795 56.2148 29.3773 61.4557 20.2879C61.7135 19.7537 62.0556 19.1126 62.4869 18.3632C54.1368 20.1831 46.0783 23.4001 38.5816 27.9062C30.9327 32.3964 23.7388 37.7993 17.1247 44.0207C16.6092 44.5578 16.1151 45.0392 15.6424 45.4648C15.1445 45.9335 14.7666 46.5421 14.5474 47.2283C14.4045 47.597 14.1717 47.9131 13.8757 48.1402C13.5798 48.3672 13.2327 48.4961 12.8743 48.5119C12.6089 48.5301 12.3435 48.475 12.1015 48.3515C10.8968 47.8171 10.3804 46.7479 10.5523 45.1439C10.6241 44.5389 10.8229 43.9617 11.1323 43.4595C11.4484 42.9585 11.8162 42.501 12.2279 42.0967C14.1565 39.7898 16.3195 37.7442 18.6727 36.0016C25.4033 30.3814 32.612 25.5189 40.1941 21.4847C47.6668 17.5522 55.5446 14.67 63.6482 12.9037C64.5838 12.374 65.5818 11.9961 66.6122 11.7812C67.5894 11.5733 68.5815 11.4659 69.5762 11.4603C70.7784 11.4603 71.9812 11.5138 73.1847 11.6208C74.3881 11.7277 75.5909 11.7812 76.7932 11.7812C80.0019 11.785 83.2004 12.1885 86.3296 12.9843C89.5225 13.7947 92.488 15.4747 94.9638 17.8756C96.6752 19.5325 97.9282 21.7028 98.5748 24.1318ZM106.564 94.7808C106.822 93.9792 107.122 93.1506 107.466 92.2948L107.208 91.9739C105.404 92.831 103.621 93.74 101.86 94.7009C100.1 95.6617 98.3597 96.5705 96.6407 97.4272C97.9868 97.6397 99.3418 97.7735 100.7 97.8279C102.031 97.8835 103.385 97.9104 104.76 97.9085C104.941 97.8742 105.114 97.7997 105.268 97.6895C105.423 97.5793 105.557 97.4355 105.662 97.2667C106.004 96.4128 106.305 95.5837 106.564 94.7808ZM172.545 22.048C171.507 20.912 170.281 20.0131 168.937 19.4016C167.475 18.7071 165.967 18.1439 164.426 17.7172C162.902 17.2946 161.351 16.9998 159.787 16.8351C158.24 16.6753 156.866 16.5952 155.663 16.5948C154.461 16.5943 153.301 16.6478 152.184 16.7552C151.066 16.8631 149.906 16.9701 148.704 17.0761C148.429 17.1456 148.171 17.2823 147.948 17.4763C147.725 17.6703 147.543 17.9169 147.415 18.1986C142.861 25.7928 138.458 33.4377 134.206 41.1333C129.955 48.8289 125.939 56.7947 122.157 65.0307C120.782 67.9174 119.493 70.831 118.291 73.7714C117.081 76.7292 116.006 79.7536 115.069 82.8331C117.473 81.5504 120.501 79.8139 124.154 77.6237C127.806 75.4334 131.694 72.9474 135.816 70.1658C139.941 67.3875 144.151 64.3935 148.446 61.1841C152.564 58.125 156.523 54.8041 160.302 51.2375C163.658 48.0991 166.763 44.6378 169.581 40.893C172.158 37.42 173.833 34.0785 174.607 30.8686C175.38 27.2354 174.693 24.2957 172.545 22.048ZM178.215 24.1318C178.816 26.6539 178.816 29.3085 178.215 31.8306C177.356 35.5745 175.53 39.3167 172.738 43.0573C169.707 47.0691 166.388 50.797 162.815 54.2041C158.832 58.0278 154.635 61.5633 150.25 64.789C145.696 68.1573 141.207 71.3117 136.784 74.2521C132.361 77.1926 128.173 79.8387 124.219 82.1906C120.264 84.5425 116.957 86.4674 114.296 87.9654C113.397 88.464 112.572 89.113 111.847 89.8901C111.105 90.7393 110.572 91.789 110.298 92.9373C109.913 94.1037 109.439 95.2306 108.88 96.3054C108.536 97.2672 108.794 97.7483 109.654 97.7488C110.509 97.6426 111.37 97.5891 112.231 97.5883H114.808C116.181 97.5883 117.535 97.6149 118.868 97.6682C120.201 97.7214 121.597 97.8018 123.056 97.9092C128.295 98.2301 133.493 98.6043 138.649 99.0317C143.871 99.4725 149.046 100.439 154.114 101.918C154.887 102.134 155.725 102.4 156.626 102.721C157.525 103.041 158.389 103.471 159.204 104.004C159.996 104.519 160.714 105.168 161.33 105.928C161.934 106.684 162.296 107.643 162.361 108.655C162.485 109.127 162.449 109.635 162.258 110.08C162.068 110.524 161.737 110.874 161.33 111.061C160.939 111.065 160.549 111.011 160.17 110.9C159.975 110.807 159.809 110.65 159.694 110.45C159.579 110.25 159.521 110.016 159.526 109.778C159.289 108.769 158.74 107.888 157.977 107.292C157.248 106.79 156.47 106.386 155.657 106.089C152.359 104.76 148.947 103.819 145.476 103.282C141.437 102.587 137.227 102.079 132.847 101.758C128.466 101.437 124.214 101.196 120.089 101.036C115.965 100.876 112.486 100.796 109.651 100.796C108.886 100.771 108.135 101.023 107.509 101.514C106.882 102.005 106.413 102.709 106.171 103.522C104.367 108.871 102.628 114.163 100.952 119.401C99.2476 124.748 97.8486 130.213 96.7634 135.76C96.5076 137.022 96.3779 138.313 96.3767 139.608C96.3856 140.926 96.7446 142.21 97.4079 143.297C97.5768 143.561 97.6831 143.869 97.7169 144.192C97.7508 144.514 97.7109 144.841 97.6012 145.142C97.5123 145.464 97.3542 145.757 97.1407 145.995C96.9272 146.232 96.6648 146.408 96.3767 146.505C96.1343 146.627 95.8693 146.682 95.6039 146.665C94.6579 146.665 94.0564 145.971 93.7994 144.582C93.3686 142.416 93.3686 140.171 93.7994 138.006C94.2278 134.262 94.9173 130.562 95.8617 126.94C96.8061 123.304 97.8371 119.722 98.9546 116.194C99.6412 113.841 100.393 111.569 101.21 109.378C102.026 107.186 102.821 104.968 103.594 102.722C103.727 102.33 103.835 101.928 103.916 101.519C103.958 101.254 103.636 101.118 102.949 101.118C99.8565 101.226 96.7636 101.413 93.6705 101.679C90.562 101.951 87.4918 102.624 84.5207 103.684C84.1449 103.81 83.753 103.864 83.3613 103.844C83.0158 103.839 82.6805 103.712 82.4026 103.482C82.1247 103.252 81.9182 102.93 81.812 102.562C81.677 102.244 81.6179 101.892 81.6405 101.54C81.6631 101.189 81.7666 100.85 81.9409 100.557C82.3254 100.04 82.8104 99.6284 83.3588 99.354C86.6225 97.7504 89.8656 96.0931 93.088 94.3821C96.3104 92.6711 99.5964 91.0673 102.946 89.5706C105.27 88.6227 107.381 87.1174 109.132 85.16C110.941 82.9833 112.382 80.4563 113.385 77.7022C117.218 67.6293 121.501 57.7795 126.219 48.1903C130.901 38.6754 135.862 29.3732 141.104 20.2837C141.361 19.7494 141.705 19.1078 142.135 18.359C133.783 20.1786 125.723 23.3956 118.225 27.902C110.576 32.3924 103.382 37.7953 96.7683 44.0165C96.2534 44.5535 95.7576 45.0341 95.2867 45.4606C94.7883 45.9291 94.4102 46.5378 94.191 47.2242C94.0483 47.593 93.8155 47.9091 93.5195 48.1362C93.2235 48.3633 92.8763 48.4921 92.5179 48.5078C92.2522 48.526 91.9867 48.4709 91.7445 48.3473C90.5406 47.8129 90.0242 46.7437 90.1953 45.1397C90.2669 44.5348 90.4655 43.9575 90.7747 43.4553C91.0911 42.9546 91.4588 42.4972 91.8703 42.0925C93.799 39.7859 95.962 37.7403 98.3151 35.9975C105.046 30.3773 112.254 25.5147 119.836 21.4805C127.309 17.5479 135.187 14.6657 143.291 12.8995C144.226 12.3698 145.224 11.9918 146.255 11.7771C147.232 11.5691 148.224 11.4617 149.219 11.4562C150.421 11.4562 151.624 11.5097 152.827 11.6166C154.03 11.7236 155.233 11.7771 156.435 11.7771C159.644 11.7808 162.842 12.1843 165.971 12.9801C169.164 13.7904 172.13 15.4704 174.606 17.8714C176.317 19.5294 177.57 21.7013 178.215 24.1318ZM248.384 101.518C248.516 101.19 248.538 100.82 248.446 100.476C248.121 100.676 247.819 100.918 247.544 101.197C247.27 101.478 246.967 101.72 246.642 101.919C244.235 104.165 241.851 106.411 239.49 108.657C237.128 110.902 234.744 113.201 232.337 115.553C226.237 121.327 220.201 127.101 214.231 132.875C208.261 138.649 202.441 144.743 196.772 151.156C194.881 153.294 192.561 155.994 189.813 159.256C187.064 162.517 184.379 166.019 181.757 169.761C179.211 173.381 176.845 177.156 174.669 181.068C172.764 184.309 171.43 187.93 170.739 191.733C169.965 196.329 171.168 198.628 174.347 198.63H175.184C175.606 198.6 176.019 198.491 176.409 198.309C178.885 197.78 181.26 196.776 183.432 195.342C185.631 193.891 187.76 192.312 189.811 190.611C196.056 185.38 201.781 179.411 206.887 172.808C212.514 165.627 217.784 158.105 222.673 150.274C227.654 142.307 232.294 134.155 236.591 125.816C240.888 117.477 244.668 109.618 247.931 102.239C248.108 102.02 248.26 101.778 248.384 101.518ZM280.151 74.6536C279.807 74.9745 279.485 75.2697 279.184 75.5357C278.88 75.8053 278.557 76.0466 278.218 76.2574C275.494 77.95 272.849 79.7968 270.292 81.7905C267.757 83.7701 265.288 85.8819 262.883 88.1259C261.936 88.983 260.97 89.8383 259.983 90.6917C258.994 91.5476 257.936 92.2994 256.823 92.9373C255.977 93.5636 255.236 94.3506 254.632 95.2628C254.022 96.1865 253.502 97.1813 253.083 98.2301C248.704 107.961 244.086 117.423 239.23 126.617C234.373 135.811 229.113 144.739 223.449 153.402C221.903 155.752 219.991 158.586 217.714 161.902C215.438 165.218 212.925 168.667 210.176 172.246C207.425 175.828 204.504 179.41 201.412 182.992C198.5 186.387 195.402 189.574 192.134 192.535C189.273 195.145 186.186 197.429 182.921 199.354C180.253 201.004 177.269 201.912 174.223 202C171.988 201.892 170.312 201.063 169.196 199.514C168.08 197.965 167.651 195.799 167.908 193.018C168.15 190.303 168.78 187.649 169.776 185.16C170.763 182.699 171.858 180.293 173.061 177.942C176.707 171.297 180.891 165.042 185.561 159.258C190.543 153.003 195.848 146.908 201.476 140.974C207.105 135.04 212.775 129.4 218.487 124.054C224.2 118.706 229.419 113.841 234.144 109.459C236.636 107.108 239.17 104.783 241.748 102.482C244.326 100.181 246.903 97.8553 249.48 95.5052C250.167 94.7583 250.833 93.9832 251.478 93.1797C252.164 92.3022 252.709 91.2983 253.089 90.2124C254.205 87.3257 255.299 84.439 256.373 81.5523C257.448 78.6656 258.457 75.7251 259.402 72.731C259.66 71.8766 259.896 71.0213 260.111 70.1651C260.326 69.3089 260.519 68.4534 260.691 67.5986C260.948 65.7816 260.39 64.4984 259.018 63.7492C258.398 63.5016 257.742 63.3928 257.085 63.429C255.28 63.429 252.939 64.0972 250.061 65.4336C247.183 66.77 244.048 68.4539 240.654 70.4853C237.259 72.5177 233.78 74.8166 230.216 77.3819C226.651 79.9473 223.236 82.4601 219.97 84.9204C216.706 87.3811 213.742 89.6797 211.078 91.8162C208.414 93.9528 206.309 95.6636 204.764 96.9486C200.209 100.692 195.677 104.408 191.168 108.095C186.659 111.783 181.998 115.284 177.186 118.6C175.552 119.668 173.941 120.657 172.352 121.568C170.741 122.483 169.03 123.157 167.262 123.572C166.711 123.691 166.15 123.745 165.589 123.733C162.581 123.733 161.164 121.594 161.337 117.317C161.513 114.324 162.168 111.391 163.269 108.657C164.513 105.356 165.933 102.142 167.522 99.0337C169.153 95.8261 170.85 92.8056 172.613 89.9721C174.375 87.1387 175.9 84.7597 177.188 82.8352C185.28 70.9364 194.338 59.9033 204.247 49.8775C213.979 40.0739 224.605 31.4459 235.948 24.1359C237.752 22.9607 239.75 21.7579 241.941 20.5275C244.159 19.285 246.44 18.1874 248.771 17.24C251.073 16.2971 253.418 15.4928 255.797 14.8305C257.945 14.2139 260.152 13.8909 262.37 13.8685C264.856 13.7728 267.294 14.6519 269.264 16.3544C271.111 18.0131 272.205 20.6593 272.549 24.2929C272.723 26.3844 272.614 28.4933 272.226 30.5484C271.841 32.5741 271.302 34.5593 270.615 36.4823C269.597 39.4473 268.324 42.2943 266.814 44.9827C265.309 47.656 263.913 50.3825 262.625 53.1622C262.483 53.5309 262.25 53.8469 261.954 54.0739C261.658 54.3008 261.311 54.4295 260.952 54.4451C259.577 54.4451 258.89 53.4294 258.891 51.398C258.951 50.6485 259.125 49.9161 259.406 49.2329C259.698 48.5833 260.043 47.9657 260.437 47.3881C261.382 45.3585 262.37 43.4071 263.401 41.5341C264.462 39.6006 265.409 37.5918 266.236 35.5203C266.815 34.0878 267.31 32.6144 267.718 31.1096C268.111 29.6218 268.349 28.0878 268.427 26.5385C268.856 21.5139 266.966 18.8943 262.757 18.6799C260.406 18.6716 258.065 19.0222 255.798 19.7218C253.562 20.4164 251.286 21.245 248.967 22.2077C241.467 25.4643 234.296 29.6039 227.576 34.5569C220.245 39.893 213.268 45.8159 206.699 52.2794C200.027 58.82 193.741 65.8383 187.879 73.2901C182.316 80.3095 177.233 87.7885 172.672 95.6636C171.899 97.0528 171.061 98.63 170.159 100.395C169.257 102.16 168.398 103.978 167.582 105.848C166.773 107.697 166.063 109.599 165.456 111.543C164.889 113.317 164.458 115.141 164.167 116.997C163.909 119.347 164.51 120.523 165.971 120.525C167.431 120.527 169.214 119.912 171.319 118.681C173.423 117.45 175.12 116.408 176.409 115.555C181.194 112.368 185.819 108.887 190.263 105.13C194.686 101.389 199.176 97.6469 203.73 93.9035C209.916 88.8788 216.058 83.9604 222.158 79.1483C228.29 74.3139 234.659 69.8683 241.234 65.8323C243.383 64.657 245.531 63.5077 247.679 62.3843C249.779 61.2798 251.984 60.4458 254.252 59.8984C254.698 59.7899 255.15 59.7094 255.604 59.6574C256.076 59.6053 256.571 59.5775 257.087 59.5775C257.648 59.5656 258.209 59.6194 258.76 59.7379C259.614 59.8406 260.436 60.1615 261.162 60.6759C261.888 61.1903 262.499 61.8846 262.948 62.7052C263.865 64.475 264.12 66.5795 263.657 68.5592C263.165 71.4628 262.431 74.3085 261.466 77.0589C260.52 79.7331 259.532 82.4597 258.502 85.2385C258.329 85.667 258.18 86.072 258.051 86.4415C257.922 86.811 257.771 87.2188 257.6 87.6445C259.662 86.1484 261.681 84.6247 263.657 83.0734C265.634 81.5222 267.653 79.9987 269.714 78.503C270.348 77.9678 271.015 77.4852 271.711 77.0589C272.698 76.4176 273.752 75.7763 274.872 75.1349C275.992 74.4936 277.046 73.9055 278.032 73.3707C278.651 72.9733 279.327 72.7017 280.03 72.5684C280.171 72.5496 280.313 72.5878 280.431 72.676C280.549 72.7642 280.635 72.8967 280.674 73.0498C280.932 73.586 280.758 74.1194 280.159 74.6536H280.151ZM357.861 37.8458C357.945 38.8855 357.945 39.9317 357.861 40.9714C357.521 45.4221 356.919 49.8425 356.056 54.2034C355.197 58.5335 354.295 62.9439 353.35 67.4347C351.459 77.1659 349.784 86.896 348.324 96.6249C346.865 106.354 345.533 116.191 344.329 126.135C344.071 128.593 343.857 131.079 343.685 133.593C343.515 136.147 343.689 138.715 344.2 141.211C344.264 141.444 344.285 141.689 344.26 141.931C344.236 142.173 344.167 142.407 344.058 142.618C343.949 142.829 343.803 143.012 343.628 143.156C343.452 143.301 343.253 143.403 343.041 143.456C342.828 143.485 342.612 143.466 342.406 143.401C342.2 143.336 342.008 143.225 341.84 143.076C341.672 142.927 341.532 142.742 341.429 142.532C341.325 142.322 341.26 142.091 341.236 141.853C341.065 140.901 340.957 139.936 340.914 138.966C340.87 138.003 340.849 137.041 340.852 136.079C341.101 130.06 341.66 124.063 342.525 118.116C343.383 112.235 344.199 106.301 344.973 100.313C346.089 92.0809 347.442 83.9542 349.033 75.933C350.624 67.9119 352.149 59.8928 353.608 51.8758C353.95 50.1667 354.229 48.4825 354.445 46.8234C354.662 45.1642 354.812 43.4803 354.897 41.7716C355.083 40.8557 354.992 39.8965 354.639 39.0446C353.974 39.3493 353.363 39.7839 352.834 40.3283C352.32 40.8645 351.803 41.4526 351.285 42.0925C346.478 47.4328 341.98 53.111 337.818 59.0926C333.65 65.0819 329.634 71.2834 325.769 77.6973C324.822 79.3013 323.877 80.8526 322.933 82.351C321.939 83.9172 320.863 85.4167 319.711 86.8416C319.35 87.1974 318.9 87.4213 318.422 87.4834C318.18 87.4903 317.94 87.4276 317.726 87.3012C317.512 87.1749 317.33 86.9892 317.198 86.7617C316.893 86.2676 316.735 85.6784 316.747 85.078C316.744 83.5222 316.83 81.9677 317.004 80.4242C317.176 78.9281 317.348 77.4313 317.52 75.9337C318.12 71.6587 318.894 67.4889 319.84 63.4241C320.786 59.3594 321.688 55.2427 322.546 51.0743C322.717 50.5408 322.867 50.0062 322.997 49.4705C323.128 48.8394 323.149 48.1858 323.059 47.5458C322.487 48.0455 321.988 48.6405 321.577 49.31C321.206 49.9293 320.797 50.5188 320.352 51.0743C314.596 59.3094 309.012 67.6227 303.6 76.0143C298.187 84.4059 292.862 92.9338 287.625 101.598C285.905 104.593 284.144 107.506 282.341 110.339C280.539 113.171 278.734 116.032 276.929 118.92C276.536 119.402 276.17 119.911 275.833 120.444C275.495 120.975 275.129 121.484 274.738 121.967C274.507 122.299 274.214 122.571 273.881 122.765C273.547 122.959 273.18 123.069 272.805 123.09C272.439 123.11 272.078 122.998 271.774 122.769C270.914 122.128 270.613 121.005 270.872 119.401C271.043 118.759 271.193 118.118 271.323 117.477C271.443 116.861 271.638 116.268 271.903 115.712C273.007 112.322 274.276 109.003 275.704 105.769C277.122 102.561 278.561 99.3533 280.022 96.1457C285.434 84.4927 291.039 73.0252 296.839 61.7432C302.638 50.4612 308.846 39.4751 315.461 28.7848C316.401 27.1868 317.434 25.6598 318.553 24.2137C319.668 22.7729 320.62 21.1838 321.389 19.4822C322.108 17.9654 322.971 16.5401 323.963 15.2313C324.908 14.0042 325.896 12.8014 326.927 11.6229C327.087 11.4218 327.259 11.2342 327.443 11.0616C327.626 10.8882 327.799 10.7007 327.959 10.5004C328.384 10.0742 328.938 9.84482 329.508 9.85861C329.751 9.85353 329.993 9.90836 330.216 10.0192C330.438 10.1301 330.637 10.2944 330.797 10.5004C331.285 10.9732 331.587 11.6437 331.635 12.3651C331.683 13.0865 331.475 13.7999 331.055 14.3491C330.539 15.2063 330.023 16.0083 329.505 16.7552C328.953 17.551 328.35 18.3014 327.701 19.0008C325.99 20.809 324.436 22.7959 323.062 24.9347C321.686 27.075 320.312 29.2134 318.938 31.35C311.549 43.3261 304.546 55.5419 297.931 67.9973C291.315 80.4527 285.174 93.3636 279.506 106.73C279.333 107.051 279.161 107.399 278.99 107.772C278.799 108.25 278.711 108.772 278.733 109.296C279.333 108.441 279.87 107.613 280.344 106.81C280.817 106.007 281.268 105.232 281.697 104.484C287.28 95.0767 292.908 85.8279 298.579 76.7381C304.25 67.6482 310.178 58.7736 316.364 50.1144C317.137 49.0465 317.931 47.9773 318.748 46.9067C319.548 45.8557 320.432 44.8892 321.39 44.0193C321.663 43.6082 322.011 43.267 322.411 43.0182C322.811 42.7693 323.254 42.6186 323.709 42.576C324.177 42.5578 324.634 42.7286 324.998 43.0573C325.309 43.2705 325.571 43.5634 325.761 43.9119C325.951 44.2604 326.065 44.6545 326.093 45.0619C326.134 45.8966 326.068 46.7335 325.9 47.5478C325.565 49.8534 325.092 52.1308 324.483 54.3646C323.88 56.5576 323.279 58.7761 322.679 61.0201C321.732 64.4431 320.937 67.8646 320.294 71.2848C319.651 74.705 319.157 78.18 318.812 81.7099C318.718 82.0767 318.653 82.4524 318.619 82.8324C318.582 83.3238 318.649 83.8181 318.812 84.2757C319.155 83.7423 319.477 83.2612 319.779 82.8324C320.095 82.3794 320.375 81.8965 320.616 81.3891C324.225 74.9738 327.941 68.6921 331.763 62.5441C335.597 56.3816 339.794 50.5144 344.328 44.982L346.455 42.3356C347.357 41.2132 348.324 40.0905 349.355 38.9675C350.301 37.9248 351.313 36.96 352.383 36.0808C353.093 35.4036 353.969 34.984 354.896 34.8778C355.441 34.8859 355.974 35.0517 356.445 35.3591C356.837 35.6217 357.17 35.9832 357.415 36.4148C357.661 36.8465 357.814 37.3365 357.861 37.8458ZM432.348 25.8169C431.059 23.7331 428.954 22.6912 426.033 22.6912C425.411 22.6558 424.792 22.7937 424.229 23.0927C423.798 23.3608 423.497 24.029 423.327 25.0972C423.069 26.7008 422.253 27.5026 420.878 27.5026C420.484 27.4908 420.101 27.3471 419.779 27.09C419.458 26.8328 419.212 26.4739 419.074 26.0593C418.817 25.3126 418.559 24.9368 418.301 24.9368C418.12 24.94 417.942 24.9952 417.786 25.0972C417.612 25.2049 417.441 25.3126 417.27 25.4182C414.087 27.2205 411.085 29.3978 408.314 31.9133C405.7 34.3112 403.285 36.9684 401.097 39.8525C398.847 42.8295 396.801 45.9926 394.976 49.3149C393.085 52.7388 391.194 56.3738 389.305 60.22C389.152 60.7382 389.065 61.2782 389.047 61.8238C388.961 63.7478 388.231 64.71 386.857 64.7105C386.182 64.5088 385.603 64.0196 385.245 63.347C384.85 62.5983 384.734 61.705 384.923 60.8611C385.139 59.7965 385.581 58.8061 386.212 57.9744C388.445 54.1249 390.679 50.4362 392.913 46.9081C395.09 43.4578 397.457 40.1636 400.001 37.0449C402.496 33.9928 405.234 31.2013 408.181 28.705C411.273 26.1105 414.625 23.9306 418.169 22.2098C418.687 21.9384 419.143 21.5368 419.5 21.036C419.858 20.5353 420.108 19.9489 420.23 19.3224C420.231 18.9964 420.274 18.6722 420.359 18.3604C420.405 18.2261 420.417 18.0806 420.394 17.9393C420.371 17.798 420.315 17.6662 420.23 17.5581C419.449 17.6076 418.683 17.8256 417.975 18.2C417.046 18.6441 416.142 19.153 415.269 19.7239C414.367 20.3129 413.486 20.9276 412.627 21.568C411.768 22.2084 411.038 22.743 410.436 23.1718C390.504 39.8518 375.813 62.0382 366.363 89.7311C364.92 94.0481 363.736 98.4684 362.819 102.962C361.902 107.521 361.363 112.165 361.208 116.835C361.18 119.49 361.484 122.135 362.11 124.695C363.054 127.261 364.386 128.543 366.104 128.543C367.183 128.55 368.254 128.333 369.262 127.902C370.268 127.463 371.238 126.927 372.161 126.299C376.237 123.678 380.041 120.558 383.502 116.996C388.048 112.45 392.372 107.632 396.453 102.562C400.877 97.1081 405.215 91.2541 409.467 84.9995C413.718 78.745 417.563 72.5434 421.001 66.3949C424.191 60.7538 427.054 54.8886 429.573 48.8356C431.848 43.2789 433.201 38.5207 433.632 34.5611C434.061 30.8177 433.632 27.9029 432.343 25.8169H432.348ZM426.549 19.9628C429.984 19.9628 432.561 21.352 434.281 24.1304C436 26.9087 436.558 30.6512 435.954 35.3578C435.403 40.011 434.253 44.55 432.539 48.8328C430.655 53.7216 428.481 58.4633 426.032 63.0261C423.539 67.678 420.94 72.1153 418.236 76.338C415.531 80.5606 413.104 84.2227 410.954 87.3243C409.666 89.1432 407.969 91.5222 405.864 94.4612C403.759 97.4003 401.374 100.528 398.711 103.844C396.048 107.159 393.255 110.5 390.335 113.868C387.558 117.085 384.633 120.136 381.572 123.01C378.942 125.507 376.117 127.735 373.131 129.666C370.425 131.375 367.998 132.23 365.85 132.232C365.071 132.28 364.292 132.148 363.56 131.845C362.829 131.541 362.16 131.072 361.597 130.467C360.54 129.241 359.746 127.76 359.277 126.137C358.746 124.343 358.401 122.487 358.247 120.604C358.073 118.624 357.987 116.833 357.989 115.231C358.178 110.587 358.738 105.971 359.662 101.438C360.635 96.6322 361.927 91.9143 363.528 87.3243C373.065 59.6333 387.799 37.0727 407.73 19.6426C410.645 17.0891 413.852 14.9865 417.267 13.3913C417.696 13.1778 418.125 12.9907 418.556 12.8301C418.979 12.6718 419.409 12.538 419.844 12.4293C420.019 12.4297 420.192 12.4025 420.36 12.3487C420.528 12.2961 420.701 12.2693 420.875 12.2688C421.423 12.245 421.967 12.3713 422.461 12.6367C422.955 12.9022 423.384 13.2988 423.71 13.7921C424.061 14.3573 424.3 15 424.411 15.677C424.522 16.3541 424.502 17.05 424.354 17.7179C424.267 18.6806 424.331 19.2956 424.547 19.5628C424.978 19.9015 425.507 20.0447 426.029 19.9635H426.544L426.549 19.9628ZM502 20.9248C501.955 21.683 501.847 22.4348 501.678 23.1705C501.177 25.2651 500.509 27.3049 499.681 29.2648C498.863 31.1893 498.112 33.1675 497.425 35.1994C494.762 42.2564 492.141 49.2864 489.565 56.2893C486.964 63.3695 484.769 70.6283 482.992 78.0217C480.93 86.3619 479.083 94.7284 477.451 103.121C475.819 111.514 474.444 120.041 473.327 128.703C473.075 130.456 472.903 132.222 472.811 133.995C472.728 135.765 472.814 137.539 473.069 139.288C473.237 139.747 473.259 140.257 473.131 140.731C473.053 140.953 472.922 141.146 472.751 141.288C472.58 141.43 472.376 141.515 472.164 141.533C471.967 141.606 471.755 141.606 471.558 141.534C471.361 141.462 471.19 141.321 471.069 141.132C470.839 140.716 470.686 140.252 470.618 139.769C470.361 137.804 470.318 135.811 470.489 133.835C470.66 131.91 470.832 129.985 471.005 128.061C474.738 98.2211 482.064 69.0868 492.783 41.4542C493.728 38.9958 494.63 36.4832 495.49 33.9165C496.349 31.3497 497.252 28.7835 498.196 26.2176C498.624 25.1595 498.843 24.011 498.84 22.8496C498.406 23.2781 498.003 23.7067 497.616 24.1325C497.23 24.5582 496.821 24.9896 496.392 25.4161C491.237 31.8313 486.276 38.3801 481.507 45.0626C476.739 51.745 471.949 58.4545 467.139 65.1912C460.522 74.601 454.294 84.3309 448.452 94.3807C442.611 104.43 437.113 114.802 431.957 125.495C431.784 125.921 431.506 126.51 431.12 127.259C430.733 128.009 430.302 128.755 429.831 129.505C429.405 130.187 428.931 130.831 428.413 131.429C428.246 131.656 428.04 131.844 427.808 131.981C427.576 132.119 427.322 132.204 427.06 132.231C426.751 132.156 426.449 132.049 426.158 131.91C425.83 131.779 425.544 131.541 425.338 131.227C425.131 130.912 425.013 130.536 424.998 130.146C424.998 129.395 425.041 128.645 425.127 127.901C425.298 127.044 425.491 126.187 425.707 125.331C425.923 124.475 426.159 123.62 426.416 122.765C428.535 115.361 430.987 108.082 433.761 100.955C436.51 93.8979 439.345 86.8411 442.267 79.7845C446.906 68.8781 451.696 58.1857 456.636 47.7076C461.576 37.2295 466.666 26.8046 471.906 16.4329C472.205 16.0139 472.404 15.5176 472.487 14.9895C472.528 14.564 472.206 14.0829 471.52 13.5462C471.239 13.4114 470.998 13.1883 470.826 12.9039C470.655 12.6194 470.56 12.2856 470.554 11.9424C470.516 11.1615 470.672 10.3842 471.005 9.69677C471.336 8.91394 471.723 8.16308 472.164 7.45185C472.692 6.57893 473.274 5.74826 473.904 4.9659C474.523 4.19052 475.214 3.49192 475.966 2.88212C476.534 2.36295 477.232 2.05467 477.963 2C478.309 2.00295 478.649 2.09059 478.961 2.25678C479.273 2.42298 479.548 2.66369 479.768 2.962C480.002 3.17729 480.191 3.4461 480.325 3.75038C480.458 4.05467 480.532 4.3874 480.541 4.72626C480.533 5.43019 480.447 6.13023 480.284 6.81004C480.028 7.65831 479.726 8.48848 479.381 9.29599C479.037 10.0975 478.65 10.9262 478.221 11.7819C475.129 18.1972 471.928 24.5323 468.621 30.7873C465.313 37.0424 462.112 43.378 459.018 49.7942C453.519 61.2364 448.3 72.7571 443.36 84.3563C438.342 96.1727 433.932 108.302 430.151 120.683C429.936 121.465 429.806 122.273 429.765 123.089C436.379 109.725 443.423 96.9479 450.896 84.7578C458.369 72.5677 466.274 60.6458 474.611 48.9919C477.618 44.7169 480.625 40.4936 483.632 36.3219C486.639 32.1501 489.775 28.087 493.039 24.1325C493.726 23.2781 494.435 22.4495 495.166 21.6465C495.898 20.8422 496.696 20.1173 497.55 19.4815C498.173 18.887 498.932 18.4984 499.741 18.359C500.268 18.3654 500.775 18.5945 501.158 19.0008C501.433 19.2151 501.653 19.5043 501.8 19.841C501.946 20.1777 502.014 20.5508 501.996 20.9248H502Z"/>
</mask>
<path fill-rule="evenodd" clip-rule="evenodd" d="M26.9233 94.7814C27.1807 93.9799 27.4813 93.1513 27.825 92.2955L27.5672 91.9746C25.7631 92.8318 23.9804 93.7407 22.2192 94.7016C20.4581 95.6624 18.7184 96.5712 17.0002 97.4278C18.3463 97.6404 19.7013 97.7742 21.0598 97.8286C22.3901 97.8842 23.7431 97.9111 25.1188 97.9092C25.2997 97.8748 25.4726 97.8003 25.6276 97.6901C25.7825 97.5799 25.9163 97.4362 26.0211 97.2674C26.3631 96.4131 26.6639 95.5844 26.9233 94.7814ZM92.9039 22.048C91.8657 20.9121 90.6404 20.0133 89.2961 19.4016C87.8347 18.707 86.3264 18.1438 84.7853 17.7172C83.2606 17.2946 81.71 16.9998 80.1463 16.8351C78.5996 16.6753 77.2249 16.5952 76.0223 16.5948C74.8196 16.5943 73.6598 16.6478 72.5427 16.7552C71.4272 16.8631 70.2674 16.9701 69.0631 17.0761C68.788 17.1457 68.53 17.2824 68.3073 17.4764C68.0847 17.6704 67.9028 17.9169 67.7748 18.1986C63.22 25.7928 58.8169 33.4377 54.5654 41.1333C50.3139 48.8289 46.2974 56.7947 42.5161 65.0307C41.1412 67.9174 39.8526 70.831 38.6504 73.7714C37.4407 76.7292 36.3652 79.7536 35.428 82.8331C37.832 81.5504 40.8604 79.8139 44.5133 77.6237C48.1662 75.4334 52.0538 72.9474 56.176 70.1658C60.2994 67.3875 64.5092 64.3935 68.8053 61.1841C72.9233 58.1258 76.8818 54.8057 80.6613 51.2403C84.017 48.1017 87.1215 44.6404 89.9393 40.8957C92.5172 37.4228 94.1927 34.0813 94.9657 30.8714C95.7382 27.2382 95.0508 24.2978 92.9033 22.0501L92.9039 22.048ZM98.5748 24.1318C99.1756 26.6539 99.1756 29.3085 98.5748 31.8306C97.7146 35.5745 95.8888 39.3167 93.0973 43.0573C90.0658 47.0692 86.7473 50.7972 83.1747 54.2041C79.191 58.0276 74.9943 61.5631 70.6098 64.789C66.0551 68.1573 61.566 71.3117 57.1427 74.2521C52.7193 77.1926 48.5312 79.8387 44.5784 82.1906C40.6252 84.5439 37.3175 86.4686 34.6553 87.9647C33.7567 88.4633 32.9311 89.1123 32.2068 89.8895C31.4651 90.7389 30.9315 91.7884 30.6576 92.9366C30.2728 94.1031 29.7986 95.23 29.2404 96.3047C28.8958 97.2665 29.1536 97.7476 30.0137 97.748C30.8696 97.6419 31.73 97.5884 32.591 97.5876H35.1684C36.5416 97.5876 37.8946 97.6142 39.2273 97.6675C40.5601 97.7207 41.9563 97.8011 43.4158 97.9085C48.6556 98.2294 53.8533 98.6036 59.0092 99.031C64.2308 99.4719 69.4064 100.438 74.4736 101.918C75.2464 102.134 76.0848 102.399 76.9865 102.72C77.8851 103.04 78.7494 103.47 79.5638 104.003C80.3564 104.518 81.0735 105.168 81.69 105.928C82.293 106.684 82.6557 107.642 82.7211 108.654C82.8452 109.127 82.8085 109.635 82.6181 110.079C82.4276 110.523 82.0969 110.873 81.69 111.06C81.2988 111.065 80.9089 111.011 80.5305 110.899C80.3351 110.806 80.1692 110.649 80.0543 110.449C79.9394 110.249 79.8808 110.015 79.886 109.777C79.6486 108.769 79.0996 107.888 78.3368 107.291C77.6086 106.789 76.83 106.385 76.0173 106.088C72.7198 104.759 69.308 103.819 65.837 103.281C61.797 102.587 57.5872 102.079 53.2076 101.757C48.828 101.436 44.5767 101.196 40.4537 101.036C36.3299 100.876 32.8505 100.796 30.0156 100.796C29.2513 100.771 28.5003 101.023 27.8737 101.514C27.247 102.005 26.778 102.709 26.536 103.522C24.7315 108.871 22.9916 114.163 21.3163 119.401C19.6122 124.748 18.2135 130.213 17.1285 135.76C16.8727 137.022 16.743 138.313 16.7418 139.608C16.7499 140.927 17.1089 142.212 17.7729 143.3C17.9416 143.564 18.0478 143.872 18.0816 144.195C18.1154 144.517 18.0757 144.844 17.9663 145.145C17.8773 145.467 17.7192 145.76 17.5056 145.997C17.2921 146.235 17.0298 146.41 16.7418 146.508C16.4992 146.63 16.2339 146.685 15.9684 146.668C15.0219 146.668 14.4206 145.974 14.1645 144.584C13.7337 142.419 13.7337 140.174 14.1645 138.009C14.593 134.265 15.2823 130.565 16.2262 126.942C17.1706 123.306 18.2016 119.725 19.3191 116.197C20.0057 113.844 20.7574 111.572 21.5741 109.38C22.3909 107.189 23.1858 104.971 23.9587 102.725C24.0923 102.333 24.1998 101.931 24.2803 101.522C24.3231 101.256 24.0009 101.121 23.3142 101.121C20.2216 101.228 17.1287 101.415 14.0356 101.682C10.9271 101.954 7.85685 102.627 4.8858 103.687C4.50977 103.812 4.1177 103.866 3.72574 103.847C3.3802 103.842 3.04483 103.715 2.76689 103.485C2.48895 103.255 2.28246 102.933 2.17651 102.564C2.0413 102.246 1.9821 101.894 2.0047 101.543C2.02729 101.192 2.13091 100.853 2.3054 100.56C2.68963 100.043 3.17445 99.6312 3.72264 99.3567C6.98636 97.7532 10.2294 96.0959 13.4518 94.3848C16.6742 92.6738 19.9605 91.07 23.3105 89.5734C25.6343 88.6253 27.7453 87.12 29.4963 85.1628C31.3051 82.986 32.7459 80.4591 33.7486 77.7049C37.5776 67.6328 41.8573 57.7835 46.5713 48.1945C51.2533 38.6795 56.2148 29.3773 61.4557 20.2879C61.7135 19.7537 62.0556 19.1126 62.4869 18.3632C54.1368 20.1831 46.0783 23.4001 38.5816 27.9062C30.9327 32.3964 23.7388 37.7993 17.1247 44.0207C16.6092 44.5578 16.1151 45.0392 15.6424 45.4648C15.1445 45.9335 14.7666 46.5421 14.5474 47.2283C14.4045 47.597 14.1717 47.9131 13.8757 48.1402C13.5798 48.3672 13.2327 48.4961 12.8743 48.5119C12.6089 48.5301 12.3435 48.475 12.1015 48.3515C10.8968 47.8171 10.3804 46.7479 10.5523 45.1439C10.6241 44.5389 10.8229 43.9617 11.1323 43.4595C11.4484 42.9585 11.8162 42.501 12.2279 42.0967C14.1565 39.7898 16.3195 37.7442 18.6727 36.0016C25.4033 30.3814 32.612 25.5189 40.1941 21.4847C47.6668 17.5522 55.5446 14.67 63.6482 12.9037C64.5838 12.374 65.5818 11.9961 66.6122 11.7812C67.5894 11.5733 68.5815 11.4659 69.5762 11.4603C70.7784 11.4603 71.9812 11.5138 73.1847 11.6208C74.3881 11.7277 75.5909 11.7812 76.7932 11.7812C80.0019 11.785 83.2004 12.1885 86.3296 12.9843C89.5225 13.7947 92.488 15.4747 94.9638 17.8756C96.6752 19.5325 97.9282 21.7028 98.5748 24.1318ZM106.564 94.7808C106.822 93.9792 107.122 93.1506 107.466 92.2948L107.208 91.9739C105.404 92.831 103.621 93.74 101.86 94.7009C100.1 95.6617 98.3597 96.5705 96.6407 97.4272C97.9868 97.6397 99.3418 97.7735 100.7 97.8279C102.031 97.8835 103.385 97.9104 104.76 97.9085C104.941 97.8742 105.114 97.7997 105.268 97.6895C105.423 97.5793 105.557 97.4355 105.662 97.2667C106.004 96.4128 106.305 95.5837 106.564 94.7808ZM172.545 22.048C171.507 20.912 170.281 20.0131 168.937 19.4016C167.475 18.7071 165.967 18.1439 164.426 17.7172C162.902 17.2946 161.351 16.9998 159.787 16.8351C158.24 16.6753 156.866 16.5952 155.663 16.5948C154.461 16.5943 153.301 16.6478 152.184 16.7552C151.066 16.8631 149.906 16.9701 148.704 17.0761C148.429 17.1456 148.171 17.2823 147.948 17.4763C147.725 17.6703 147.543 17.9169 147.415 18.1986C142.861 25.7928 138.458 33.4377 134.206 41.1333C129.955 48.8289 125.939 56.7947 122.157 65.0307C120.782 67.9174 119.493 70.831 118.291 73.7714C117.081 76.7292 116.006 79.7536 115.069 82.8331C117.473 81.5504 120.501 79.8139 124.154 77.6237C127.806 75.4334 131.694 72.9474 135.816 70.1658C139.941 67.3875 144.151 64.3935 148.446 61.1841C152.564 58.125 156.523 54.8041 160.302 51.2375C163.658 48.0991 166.763 44.6378 169.581 40.893C172.158 37.42 173.833 34.0785 174.607 30.8686C175.38 27.2354 174.693 24.2957 172.545 22.048ZM178.215 24.1318C178.816 26.6539 178.816 29.3085 178.215 31.8306C177.356 35.5745 175.53 39.3167 172.738 43.0573C169.707 47.0691 166.388 50.797 162.815 54.2041C158.832 58.0278 154.635 61.5633 150.25 64.789C145.696 68.1573 141.207 71.3117 136.784 74.2521C132.361 77.1926 128.173 79.8387 124.219 82.1906C120.264 84.5425 116.957 86.4674 114.296 87.9654C113.397 88.464 112.572 89.113 111.847 89.8901C111.105 90.7393 110.572 91.789 110.298 92.9373C109.913 94.1037 109.439 95.2306 108.88 96.3054C108.536 97.2672 108.794 97.7483 109.654 97.7488C110.509 97.6426 111.37 97.5891 112.231 97.5883H114.808C116.181 97.5883 117.535 97.6149 118.868 97.6682C120.201 97.7214 121.597 97.8018 123.056 97.9092C128.295 98.2301 133.493 98.6043 138.649 99.0317C143.871 99.4725 149.046 100.439 154.114 101.918C154.887 102.134 155.725 102.4 156.626 102.721C157.525 103.041 158.389 103.471 159.204 104.004C159.996 104.519 160.714 105.168 161.33 105.928C161.934 106.684 162.296 107.643 162.361 108.655C162.485 109.127 162.449 109.635 162.258 110.08C162.068 110.524 161.737 110.874 161.33 111.061C160.939 111.065 160.549 111.011 160.17 110.9C159.975 110.807 159.809 110.65 159.694 110.45C159.579 110.25 159.521 110.016 159.526 109.778C159.289 108.769 158.74 107.888 157.977 107.292C157.248 106.79 156.47 106.386 155.657 106.089C152.359 104.76 148.947 103.819 145.476 103.282C141.437 102.587 137.227 102.079 132.847 101.758C128.466 101.437 124.214 101.196 120.089 101.036C115.965 100.876 112.486 100.796 109.651 100.796C108.886 100.771 108.135 101.023 107.509 101.514C106.882 102.005 106.413 102.709 106.171 103.522C104.367 108.871 102.628 114.163 100.952 119.401C99.2476 124.748 97.8486 130.213 96.7634 135.76C96.5076 137.022 96.3779 138.313 96.3767 139.608C96.3856 140.926 96.7446 142.21 97.4079 143.297C97.5768 143.561 97.6831 143.869 97.7169 144.192C97.7508 144.514 97.7109 144.841 97.6012 145.142C97.5123 145.464 97.3542 145.757 97.1407 145.995C96.9272 146.232 96.6648 146.408 96.3767 146.505C96.1343 146.627 95.8693 146.682 95.6039 146.665C94.6579 146.665 94.0564 145.971 93.7994 144.582C93.3686 142.416 93.3686 140.171 93.7994 138.006C94.2278 134.262 94.9173 130.562 95.8617 126.94C96.8061 123.304 97.8371 119.722 98.9546 116.194C99.6412 113.841 100.393 111.569 101.21 109.378C102.026 107.186 102.821 104.968 103.594 102.722C103.727 102.33 103.835 101.928 103.916 101.519C103.958 101.254 103.636 101.118 102.949 101.118C99.8565 101.226 96.7636 101.413 93.6705 101.679C90.562 101.951 87.4918 102.624 84.5207 103.684C84.1449 103.81 83.753 103.864 83.3613 103.844C83.0158 103.839 82.6805 103.712 82.4026 103.482C82.1247 103.252 81.9182 102.93 81.812 102.562C81.677 102.244 81.6179 101.892 81.6405 101.54C81.6631 101.189 81.7666 100.85 81.9409 100.557C82.3254 100.04 82.8104 99.6284 83.3588 99.354C86.6225 97.7504 89.8656 96.0931 93.088 94.3821C96.3104 92.6711 99.5964 91.0673 102.946 89.5706C105.27 88.6227 107.381 87.1174 109.132 85.16C110.941 82.9833 112.382 80.4563 113.385 77.7022C117.218 67.6293 121.501 57.7795 126.219 48.1903C130.901 38.6754 135.862 29.3732 141.104 20.2837C141.361 19.7494 141.705 19.1078 142.135 18.359C133.783 20.1786 125.723 23.3956 118.225 27.902C110.576 32.3924 103.382 37.7953 96.7683 44.0165C96.2534 44.5535 95.7576 45.0341 95.2867 45.4606C94.7883 45.9291 94.4102 46.5378 94.191 47.2242C94.0483 47.593 93.8155 47.9091 93.5195 48.1362C93.2235 48.3633 92.8763 48.4921 92.5179 48.5078C92.2522 48.526 91.9867 48.4709 91.7445 48.3473C90.5406 47.8129 90.0242 46.7437 90.1953 45.1397C90.2669 44.5348 90.4655 43.9575 90.7747 43.4553C91.0911 42.9546 91.4588 42.4972 91.8703 42.0925C93.799 39.7859 95.962 37.7403 98.3151 35.9975C105.046 30.3773 112.254 25.5147 119.836 21.4805C127.309 17.5479 135.187 14.6657 143.291 12.8995C144.226 12.3698 145.224 11.9918 146.255 11.7771C147.232 11.5691 148.224 11.4617 149.219 11.4562C150.421 11.4562 151.624 11.5097 152.827 11.6166C154.03 11.7236 155.233 11.7771 156.435 11.7771C159.644 11.7808 162.842 12.1843 165.971 12.9801C169.164 13.7904 172.13 15.4704 174.606 17.8714C176.317 19.5294 177.57 21.7013 178.215 24.1318ZM248.384 101.518C248.516 101.19 248.538 100.82 248.446 100.476C248.121 100.676 247.819 100.918 247.544 101.197C247.27 101.478 246.967 101.72 246.642 101.919C244.235 104.165 241.851 106.411 239.49 108.657C237.128 110.902 234.744 113.201 232.337 115.553C226.237 121.327 220.201 127.101 214.231 132.875C208.261 138.649 202.441 144.743 196.772 151.156C194.881 153.294 192.561 155.994 189.813 159.256C187.064 162.517 184.379 166.019 181.757 169.761C179.211 173.381 176.845 177.156 174.669 181.068C172.764 184.309 171.43 187.93 170.739 191.733C169.965 196.329 171.168 198.628 174.347 198.63H175.184C175.606 198.6 176.019 198.491 176.409 198.309C178.885 197.78 181.26 196.776 183.432 195.342C185.631 193.891 187.76 192.312 189.811 190.611C196.056 185.38 201.781 179.411 206.887 172.808C212.514 165.627 217.784 158.105 222.673 150.274C227.654 142.307 232.294 134.155 236.591 125.816C240.888 117.477 244.668 109.618 247.931 102.239C248.108 102.02 248.26 101.778 248.384 101.518ZM280.151 74.6536C279.807 74.9745 279.485 75.2697 279.184 75.5357C278.88 75.8053 278.557 76.0466 278.218 76.2574C275.494 77.95 272.849 79.7968 270.292 81.7905C267.757 83.7701 265.288 85.8819 262.883 88.1259C261.936 88.983 260.97 89.8383 259.983 90.6917C258.994 91.5476 257.936 92.2994 256.823 92.9373C255.977 93.5636 255.236 94.3506 254.632 95.2628C254.022 96.1865 253.502 97.1813 253.083 98.2301C248.704 107.961 244.086 117.423 239.23 126.617C234.373 135.811 229.113 144.739 223.449 153.402C221.903 155.752 219.991 158.586 217.714 161.902C215.438 165.218 212.925 168.667 210.176 172.246C207.425 175.828 204.504 179.41 201.412 182.992C198.5 186.387 195.402 189.574 192.134 192.535C189.273 195.145 186.186 197.429 182.921 199.354C180.253 201.004 177.269 201.912 174.223 202C171.988 201.892 170.312 201.063 169.196 199.514C168.08 197.965 167.651 195.799 167.908 193.018C168.15 190.303 168.78 187.649 169.776 185.16C170.763 182.699 171.858 180.293 173.061 177.942C176.707 171.297 180.891 165.042 185.561 159.258C190.543 153.003 195.848 146.908 201.476 140.974C207.105 135.04 212.775 129.4 218.487 124.054C224.2 118.706 229.419 113.841 234.144 109.459C236.636 107.108 239.17 104.783 241.748 102.482C244.326 100.181 246.903 97.8553 249.48 95.5052C250.167 94.7583 250.833 93.9832 251.478 93.1797C252.164 92.3022 252.709 91.2983 253.089 90.2124C254.205 87.3257 255.299 84.439 256.373 81.5523C257.448 78.6656 258.457 75.7251 259.402 72.731C259.66 71.8766 259.896 71.0213 260.111 70.1651C260.326 69.3089 260.519 68.4534 260.691 67.5986C260.948 65.7816 260.39 64.4984 259.018 63.7492C258.398 63.5016 257.742 63.3928 257.085 63.429C255.28 63.429 252.939 64.0972 250.061 65.4336C247.183 66.77 244.048 68.4539 240.654 70.4853C237.259 72.5177 233.78 74.8166 230.216 77.3819C226.651 79.9473 223.236 82.4601 219.97 84.9204C216.706 87.3811 213.742 89.6797 211.078 91.8162C208.414 93.9528 206.309 95.6636 204.764 96.9486C200.209 100.692 195.677 104.408 191.168 108.095C186.659 111.783 181.998 115.284 177.186 118.6C175.552 119.668 173.941 120.657 172.352 121.568C170.741 122.483 169.03 123.157 167.262 123.572C166.711 123.691 166.15 123.745 165.589 123.733C162.581 123.733 161.164 121.594 161.337 117.317C161.513 114.324 162.168 111.391 163.269 108.657C164.513 105.356 165.933 102.142 167.522 99.0337C169.153 95.8261 170.85 92.8056 172.613 89.9721C174.375 87.1387 175.9 84.7597 177.188 82.8352C185.28 70.9364 194.338 59.9033 204.247 49.8775C213.979 40.0739 224.605 31.4459 235.948 24.1359C237.752 22.9607 239.75 21.7579 241.941 20.5275C244.159 19.285 246.44 18.1874 248.771 17.24C251.073 16.2971 253.418 15.4928 255.797 14.8305C257.945 14.2139 260.152 13.8909 262.37 13.8685C264.856 13.7728 267.294 14.6519 269.264 16.3544C271.111 18.0131 272.205 20.6593 272.549 24.2929C272.723 26.3844 272.614 28.4933 272.226 30.5484C271.841 32.5741 271.302 34.5593 270.615 36.4823C269.597 39.4473 268.324 42.2943 266.814 44.9827C265.309 47.656 263.913 50.3825 262.625 53.1622C262.483 53.5309 262.25 53.8469 261.954 54.0739C261.658 54.3008 261.311 54.4295 260.952 54.4451C259.577 54.4451 258.89 53.4294 258.891 51.398C258.951 50.6485 259.125 49.9161 259.406 49.2329C259.698 48.5833 260.043 47.9657 260.437 47.3881C261.382 45.3585 262.37 43.4071 263.401 41.5341C264.462 39.6006 265.409 37.5918 266.236 35.5203C266.815 34.0878 267.31 32.6144 267.718 31.1096C268.111 29.6218 268.349 28.0878 268.427 26.5385C268.856 21.5139 266.966 18.8943 262.757 18.6799C260.406 18.6716 258.065 19.0222 255.798 19.7218C253.562 20.4164 251.286 21.245 248.967 22.2077C241.467 25.4643 234.296 29.6039 227.576 34.5569C220.245 39.893 213.268 45.8159 206.699 52.2794C200.027 58.82 193.741 65.8383 187.879 73.2901C182.316 80.3095 177.233 87.7885 172.672 95.6636C171.899 97.0528 171.061 98.63 170.159 100.395C169.257 102.16 168.398 103.978 167.582 105.848C166.773 107.697 166.063 109.599 165.456 111.543C164.889 113.317 164.458 115.141 164.167 116.997C163.909 119.347 164.51 120.523 165.971 120.525C167.431 120.527 169.214 119.912 171.319 118.681C173.423 117.45 175.12 116.408 176.409 115.555C181.194 112.368 185.819 108.887 190.263 105.13C194.686 101.389 199.176 97.6469 203.73 93.9035C209.916 88.8788 216.058 83.9604 222.158 79.1483C228.29 74.3139 234.659 69.8683 241.234 65.8323C243.383 64.657 245.531 63.5077 247.679 62.3843C249.779 61.2798 251.984 60.4458 254.252 59.8984C254.698 59.7899 255.15 59.7094 255.604 59.6574C256.076 59.6053 256.571 59.5775 257.087 59.5775C257.648 59.5656 258.209 59.6194 258.76 59.7379C259.614 59.8406 260.436 60.1615 261.162 60.6759C261.888 61.1903 262.499 61.8846 262.948 62.7052C263.865 64.475 264.12 66.5795 263.657 68.5592C263.165 71.4628 262.431 74.3085 261.466 77.0589C260.52 79.7331 259.532 82.4597 258.502 85.2385C258.329 85.667 258.18 86.072 258.051 86.4415C257.922 86.811 257.771 87.2188 257.6 87.6445C259.662 86.1484 261.681 84.6247 263.657 83.0734C265.634 81.5222 267.653 79.9987 269.714 78.503C270.348 77.9678 271.015 77.4852 271.711 77.0589C272.698 76.4176 273.752 75.7763 274.872 75.1349C275.992 74.4936 277.046 73.9055 278.032 73.3707C278.651 72.9733 279.327 72.7017 280.03 72.5684C280.171 72.5496 280.313 72.5878 280.431 72.676C280.549 72.7642 280.635 72.8967 280.674 73.0498C280.932 73.586 280.758 74.1194 280.159 74.6536H280.151ZM357.861 37.8458C357.945 38.8855 357.945 39.9317 357.861 40.9714C357.521 45.4221 356.919 49.8425 356.056 54.2034C355.197 58.5335 354.295 62.9439 353.35 67.4347C351.459 77.1659 349.784 86.896 348.324 96.6249C346.865 106.354 345.533 116.191 344.329 126.135C344.071 128.593 343.857 131.079 343.685 133.593C343.515 136.147 343.689 138.715 344.2 141.211C344.264 141.444 344.285 141.689 344.26 141.931C344.236 142.173 344.167 142.407 344.058 142.618C343.949 142.829 343.803 143.012 343.628 143.156C343.452 143.301 343.253 143.403 343.041 143.456C342.828 143.485 342.612 143.466 342.406 143.401C342.2 143.336 342.008 143.225 341.84 143.076C341.672 142.927 341.532 142.742 341.429 142.532C341.325 142.322 341.26 142.091 341.236 141.853C341.065 140.901 340.957 139.936 340.914 138.966C340.87 138.003 340.849 137.041 340.852 136.079C341.101 130.06 341.66 124.063 342.525 118.116C343.383 112.235 344.199 106.301 344.973 100.313C346.089 92.0809 347.442 83.9542 349.033 75.933C350.624 67.9119 352.149 59.8928 353.608 51.8758C353.95 50.1667 354.229 48.4825 354.445 46.8234C354.662 45.1642 354.812 43.4803 354.897 41.7716C355.083 40.8557 354.992 39.8965 354.639 39.0446C353.974 39.3493 353.363 39.7839 352.834 40.3283C352.32 40.8645 351.803 41.4526 351.285 42.0925C346.478 47.4328 341.98 53.111 337.818 59.0926C333.65 65.0819 329.634 71.2834 325.769 77.6973C324.822 79.3013 323.877 80.8526 322.933 82.351C321.939 83.9172 320.863 85.4167 319.711 86.8416C319.35 87.1974 318.9 87.4213 318.422 87.4834C318.18 87.4903 317.94 87.4276 317.726 87.3012C317.512 87.1749 317.33 86.9892 317.198 86.7617C316.893 86.2676 316.735 85.6784 316.747 85.078C316.744 83.5222 316.83 81.9677 317.004 80.4242C317.176 78.9281 317.348 77.4313 317.52 75.9337C318.12 71.6587 318.894 67.4889 319.84 63.4241C320.786 59.3594 321.688 55.2427 322.546 51.0743C322.717 50.5408 322.867 50.0062 322.997 49.4705C323.128 48.8394 323.149 48.1858 323.059 47.5458C322.487 48.0455 321.988 48.6405 321.577 49.31C321.206 49.9293 320.797 50.5188 320.352 51.0743C314.596 59.3094 309.012 67.6227 303.6 76.0143C298.187 84.4059 292.862 92.9338 287.625 101.598C285.905 104.593 284.144 107.506 282.341 110.339C280.539 113.171 278.734 116.032 276.929 118.92C276.536 119.402 276.17 119.911 275.833 120.444C275.495 120.975 275.129 121.484 274.738 121.967C274.507 122.299 274.214 122.571 273.881 122.765C273.547 122.959 273.18 123.069 272.805 123.09C272.439 123.11 272.078 122.998 271.774 122.769C270.914 122.128 270.613 121.005 270.872 119.401C271.043 118.759 271.193 118.118 271.323 117.477C271.443 116.861 271.638 116.268 271.903 115.712C273.007 112.322 274.276 109.003 275.704 105.769C277.122 102.561 278.561 99.3533 280.022 96.1457C285.434 84.4927 291.039 73.0252 296.839 61.7432C302.638 50.4612 308.846 39.4751 315.461 28.7848C316.401 27.1868 317.434 25.6598 318.553 24.2137C319.668 22.7729 320.62 21.1838 321.389 19.4822C322.108 17.9654 322.971 16.5401 323.963 15.2313C324.908 14.0042 325.896 12.8014 326.927 11.6229C327.087 11.4218 327.259 11.2342 327.443 11.0616C327.626 10.8882 327.799 10.7007 327.959 10.5004C328.384 10.0742 328.938 9.84482 329.508 9.85861C329.751 9.85353 329.993 9.90836 330.216 10.0192C330.438 10.1301 330.637 10.2944 330.797 10.5004C331.285 10.9732 331.587 11.6437 331.635 12.3651C331.683 13.0865 331.475 13.7999 331.055 14.3491C330.539 15.2063 330.023 16.0083 329.505 16.7552C328.953 17.551 328.35 18.3014 327.701 19.0008C325.99 20.809 324.436 22.7959 323.062 24.9347C321.686 27.075 320.312 29.2134 318.938 31.35C311.549 43.3261 304.546 55.5419 297.931 67.9973C291.315 80.4527 285.174 93.3636 279.506 106.73C279.333 107.051 279.161 107.399 278.99 107.772C278.799 108.25 278.711 108.772 278.733 109.296C279.333 108.441 279.87 107.613 280.344 106.81C280.817 106.007 281.268 105.232 281.697 104.484C287.28 95.0767 292.908 85.8279 298.579 76.7381C304.25 67.6482 310.178 58.7736 316.364 50.1144C317.137 49.0465 317.931 47.9773 318.748 46.9067C319.548 45.8557 320.432 44.8892 321.39 44.0193C321.663 43.6082 322.011 43.267 322.411 43.0182C322.811 42.7693 323.254 42.6186 323.709 42.576C324.177 42.5578 324.634 42.7286 324.998 43.0573C325.309 43.2705 325.571 43.5634 325.761 43.9119C325.951 44.2604 326.065 44.6545 326.093 45.0619C326.134 45.8966 326.068 46.7335 325.9 47.5478C325.565 49.8534 325.092 52.1308 324.483 54.3646C323.88 56.5576 323.279 58.7761 322.679 61.0201C321.732 64.4431 320.937 67.8646 320.294 71.2848C319.651 74.705 319.157 78.18 318.812 81.7099C318.718 82.0767 318.653 82.4524 318.619 82.8324C318.582 83.3238 318.649 83.8181 318.812 84.2757C319.155 83.7423 319.477 83.2612 319.779 82.8324C320.095 82.3794 320.375 81.8965 320.616 81.3891C324.225 74.9738 327.941 68.6921 331.763 62.5441C335.597 56.3816 339.794 50.5144 344.328 44.982L346.455 42.3356C347.357 41.2132 348.324 40.0905 349.355 38.9675C350.301 37.9248 351.313 36.96 352.383 36.0808C353.093 35.4036 353.969 34.984 354.896 34.8778C355.441 34.8859 355.974 35.0517 356.445 35.3591C356.837 35.6217 357.17 35.9832 357.415 36.4148C357.661 36.8465 357.814 37.3365 357.861 37.8458ZM432.348 25.8169C431.059 23.7331 428.954 22.6912 426.033 22.6912C425.411 22.6558 424.792 22.7937 424.229 23.0927C423.798 23.3608 423.497 24.029 423.327 25.0972C423.069 26.7008 422.253 27.5026 420.878 27.5026C420.484 27.4908 420.101 27.3471 419.779 27.09C419.458 26.8328 419.212 26.4739 419.074 26.0593C418.817 25.3126 418.559 24.9368 418.301 24.9368C418.12 24.94 417.942 24.9952 417.786 25.0972C417.612 25.2049 417.441 25.3126 417.27 25.4182C414.087 27.2205 411.085 29.3978 408.314 31.9133C405.7 34.3112 403.285 36.9684 401.097 39.8525C398.847 42.8295 396.801 45.9926 394.976 49.3149C393.085 52.7388 391.194 56.3738 389.305 60.22C389.152 60.7382 389.065 61.2782 389.047 61.8238C388.961 63.7478 388.231 64.71 386.857 64.7105C386.182 64.5088 385.603 64.0196 385.245 63.347C384.85 62.5983 384.734 61.705 384.923 60.8611C385.139 59.7965 385.581 58.8061 386.212 57.9744C388.445 54.1249 390.679 50.4362 392.913 46.9081C395.09 43.4578 397.457 40.1636 400.001 37.0449C402.496 33.9928 405.234 31.2013 408.181 28.705C411.273 26.1105 414.625 23.9306 418.169 22.2098C418.687 21.9384 419.143 21.5368 419.5 21.036C419.858 20.5353 420.108 19.9489 420.23 19.3224C420.231 18.9964 420.274 18.6722 420.359 18.3604C420.405 18.2261 420.417 18.0806 420.394 17.9393C420.371 17.798 420.315 17.6662 420.23 17.5581C419.449 17.6076 418.683 17.8256 417.975 18.2C417.046 18.6441 416.142 19.153 415.269 19.7239C414.367 20.3129 413.486 20.9276 412.627 21.568C411.768 22.2084 411.038 22.743 410.436 23.1718C390.504 39.8518 375.813 62.0382 366.363 89.7311C364.92 94.0481 363.736 98.4684 362.819 102.962C361.902 107.521 361.363 112.165 361.208 116.835C361.18 119.49 361.484 122.135 362.11 124.695C363.054 127.261 364.386 128.543 366.104 128.543C367.183 128.55 368.254 128.333 369.262 127.902C370.268 127.463 371.238 126.927 372.161 126.299C376.237 123.678 380.041 120.558 383.502 116.996C388.048 112.45 392.372 107.632 396.453 102.562C400.877 97.1081 405.215 91.2541 409.467 84.9995C413.718 78.745 417.563 72.5434 421.001 66.3949C424.191 60.7538 427.054 54.8886 429.573 48.8356C431.848 43.2789 433.201 38.5207 433.632 34.5611C434.061 30.8177 433.632 27.9029 432.343 25.8169H432.348ZM426.549 19.9628C429.984 19.9628 432.561 21.352 434.281 24.1304C436 26.9087 436.558 30.6512 435.954 35.3578C435.403 40.011 434.253 44.55 432.539 48.8328C430.655 53.7216 428.481 58.4633 426.032 63.0261C423.539 67.678 420.94 72.1153 418.236 76.338C415.531 80.5606 413.104 84.2227 410.954 87.3243C409.666 89.1432 407.969 91.5222 405.864 94.4612C403.759 97.4003 401.374 100.528 398.711 103.844C396.048 107.159 393.255 110.5 390.335 113.868C387.558 117.085 384.633 120.136 381.572 123.01C378.942 125.507 376.117 127.735 373.131 129.666C370.425 131.375 367.998 132.23 365.85 132.232C365.071 132.28 364.292 132.148 363.56 131.845C362.829 131.541 362.16 131.072 361.597 130.467C360.54 129.241 359.746 127.76 359.277 126.137C358.746 124.343 358.401 122.487 358.247 120.604C358.073 118.624 357.987 116.833 357.989 115.231C358.178 110.587 358.738 105.971 359.662 101.438C360.635 96.6322 361.927 91.9143 363.528 87.3243C373.065 59.6333 387.799 37.0727 407.73 19.6426C410.645 17.0891 413.852 14.9865 417.267 13.3913C417.696 13.1778 418.125 12.9907 418.556 12.8301C418.979 12.6718 419.409 12.538 419.844 12.4293C420.019 12.4297 420.192 12.4025 420.36 12.3487C420.528 12.2961 420.701 12.2693 420.875 12.2688C421.423 12.245 421.967 12.3713 422.461 12.6367C422.955 12.9022 423.384 13.2988 423.71 13.7921C424.061 14.3573 424.3 15 424.411 15.677C424.522 16.3541 424.502 17.05 424.354 17.7179C424.267 18.6806 424.331 19.2956 424.547 19.5628C424.978 19.9015 425.507 20.0447 426.029 19.9635H426.544L426.549 19.9628ZM502 20.9248C501.955 21.683 501.847 22.4348 501.678 23.1705C501.177 25.2651 500.509 27.3049 499.681 29.2648C498.863 31.1893 498.112 33.1675 497.425 35.1994C494.762 42.2564 492.141 49.2864 489.565 56.2893C486.964 63.3695 484.769 70.6283 482.992 78.0217C480.93 86.3619 479.083 94.7284 477.451 103.121C475.819 111.514 474.444 120.041 473.327 128.703C473.075 130.456 472.903 132.222 472.811 133.995C472.728 135.765 472.814 137.539 473.069 139.288C473.237 139.747 473.259 140.257 473.131 140.731C473.053 140.953 472.922 141.146 472.751 141.288C472.58 141.43 472.376 141.515 472.164 141.533C471.967 141.606 471.755 141.606 471.558 141.534C471.361 141.462 471.19 141.321 471.069 141.132C470.839 140.716 470.686 140.252 470.618 139.769C470.361 137.804 470.318 135.811 470.489 133.835C470.66 131.91 470.832 129.985 471.005 128.061C474.738 98.2211 482.064 69.0868 492.783 41.4542C493.728 38.9958 494.63 36.4832 495.49 33.9165C496.349 31.3497 497.252 28.7835 498.196 26.2176C498.624 25.1595 498.843 24.011 498.84 22.8496C498.406 23.2781 498.003 23.7067 497.616 24.1325C497.23 24.5582 496.821 24.9896 496.392 25.4161C491.237 31.8313 486.276 38.3801 481.507 45.0626C476.739 51.745 471.949 58.4545 467.139 65.1912C460.522 74.601 454.294 84.3309 448.452 94.3807C442.611 104.43 437.113 114.802 431.957 125.495C431.784 125.921 431.506 126.51 431.12 127.259C430.733 128.009 430.302 128.755 429.831 129.505C429.405 130.187 428.931 130.831 428.413 131.429C428.246 131.656 428.04 131.844 427.808 131.981C427.576 132.119 427.322 132.204 427.06 132.231C426.751 132.156 426.449 132.049 426.158 131.91C425.83 131.779 425.544 131.541 425.338 131.227C425.131 130.912 425.013 130.536 424.998 130.146C424.998 129.395 425.041 128.645 425.127 127.901C425.298 127.044 425.491 126.187 425.707 125.331C425.923 124.475 426.159 123.62 426.416 122.765C428.535 115.361 430.987 108.082 433.761 100.955C436.51 93.8979 439.345 86.8411 442.267 79.7845C446.906 68.8781 451.696 58.1857 456.636 47.7076C461.576 37.2295 466.666 26.8046 471.906 16.4329C472.205 16.0139 472.404 15.5176 472.487 14.9895C472.528 14.564 472.206 14.0829 471.52 13.5462C471.239 13.4114 470.998 13.1883 470.826 12.9039C470.655 12.6194 470.56 12.2856 470.554 11.9424C470.516 11.1615 470.672 10.3842 471.005 9.69677C471.336 8.91394 471.723 8.16308 472.164 7.45185C472.692 6.57893 473.274 5.74826 473.904 4.9659C474.523 4.19052 475.214 3.49192 475.966 2.88212C476.534 2.36295 477.232 2.05467 477.963 2C478.309 2.00295 478.649 2.09059 478.961 2.25678C479.273 2.42298 479.548 2.66369 479.768 2.962C480.002 3.17729 480.191 3.4461 480.325 3.75038C480.458 4.05467 480.532 4.3874 480.541 4.72626C480.533 5.43019 480.447 6.13023 480.284 6.81004C480.028 7.65831 479.726 8.48848 479.381 9.29599C479.037 10.0975 478.65 10.9262 478.221 11.7819C475.129 18.1972 471.928 24.5323 468.621 30.7873C465.313 37.0424 462.112 43.378 459.018 49.7942C453.519 61.2364 448.3 72.7571 443.36 84.3563C438.342 96.1727 433.932 108.302 430.151 120.683C429.936 121.465 429.806 122.273 429.765 123.089C436.379 109.725 443.423 96.9479 450.896 84.7578C458.369 72.5677 466.274 60.6458 474.611 48.9919C477.618 44.7169 480.625 40.4936 483.632 36.3219C486.639 32.1501 489.775 28.087 493.039 24.1325C493.726 23.2781 494.435 22.4495 495.166 21.6465C495.898 20.8422 496.696 20.1173 497.55 19.4815C498.173 18.887 498.932 18.4984 499.741 18.359C500.268 18.3654 500.775 18.5945 501.158 19.0008C501.433 19.2151 501.653 19.5043 501.8 19.841C501.946 20.1777 502.014 20.5508 501.996 20.9248H502Z" fill="white"/>
<path fill-rule="evenodd" clip-rule="evenodd" d="M26.9233 94.7814C27.1807 93.9799 27.4813 93.1513 27.825 92.2955L27.5672 91.9746C25.7631 92.8318 23.9804 93.7407 22.2192 94.7016C20.4581 95.6624 18.7184 96.5712 17.0002 97.4278C18.3463 97.6404 19.7013 97.7742 21.0598 97.8286C22.3901 97.8842 23.7431 97.9111 25.1188 97.9092C25.2997 97.8748 25.4726 97.8003 25.6276 97.6901C25.7825 97.5799 25.9163 97.4362 26.0211 97.2674C26.3631 96.4131 26.6639 95.5844 26.9233 94.7814ZM92.9039 22.048C91.8657 20.9121 90.6404 20.0133 89.2961 19.4016C87.8347 18.707 86.3264 18.1438 84.7853 17.7172C83.2606 17.2946 81.71 16.9998 80.1463 16.8351C78.5996 16.6753 77.2249 16.5952 76.0223 16.5948C74.8196 16.5943 73.6598 16.6478 72.5427 16.7552C71.4272 16.8631 70.2674 16.9701 69.0631 17.0761C68.788 17.1457 68.53 17.2824 68.3073 17.4764C68.0847 17.6704 67.9028 17.9169 67.7748 18.1986C63.22 25.7928 58.8169 33.4377 54.5654 41.1333C50.3139 48.8289 46.2974 56.7947 42.5161 65.0307C41.1412 67.9174 39.8526 70.831 38.6504 73.7714C37.4407 76.7292 36.3652 79.7536 35.428 82.8331C37.832 81.5504 40.8604 79.8139 44.5133 77.6237C48.1662 75.4334 52.0538 72.9474 56.176 70.1658C60.2994 67.3875 64.5092 64.3935 68.8053 61.1841C72.9233 58.1258 76.8818 54.8057 80.6613 51.2403C84.017 48.1017 87.1215 44.6404 89.9393 40.8957C92.5172 37.4228 94.1927 34.0813 94.9657 30.8714C95.7382 27.2382 95.0508 24.2978 92.9033 22.0501L92.9039 22.048ZM98.5748 24.1318C99.1756 26.6539 99.1756 29.3085 98.5748 31.8306C97.7146 35.5745 95.8888 39.3167 93.0973 43.0573C90.0658 47.0692 86.7473 50.7972 83.1747 54.2041C79.191 58.0276 74.9943 61.5631 70.6098 64.789C66.0551 68.1573 61.566 71.3117 57.1427 74.2521C52.7193 77.1926 48.5312 79.8387 44.5784 82.1906C40.6252 84.5439 37.3175 86.4686 34.6553 87.9647C33.7567 88.4633 32.9311 89.1123 32.2068 89.8895C31.4651 90.7389 30.9315 91.7884 30.6576 92.9366C30.2728 94.1031 29.7986 95.23 29.2404 96.3047C28.8958 97.2665 29.1536 97.7476 30.0137 97.748C30.8696 97.6419 31.73 97.5884 32.591 97.5876H35.1684C36.5416 97.5876 37.8946 97.6142 39.2273 97.6675C40.5601 97.7207 41.9563 97.8011 43.4158 97.9085C48.6556 98.2294 53.8533 98.6036 59.0092 99.031C64.2308 99.4719 69.4064 100.438 74.4736 101.918C75.2464 102.134 76.0848 102.399 76.9865 102.72C77.8851 103.04 78.7494 103.47 79.5638 104.003C80.3564 104.518 81.0735 105.168 81.69 105.928C82.293 106.684 82.6557 107.642 82.7211 108.654C82.8452 109.127 82.8085 109.635 82.6181 110.079C82.4276 110.523 82.0969 110.873 81.69 111.06C81.2988 111.065 80.9089 111.011 80.5305 110.899C80.3351 110.806 80.1692 110.649 80.0543 110.449C79.9394 110.249 79.8808 110.015 79.886 109.777C79.6486 108.769 79.0996 107.888 78.3368 107.291C77.6086 106.789 76.83 106.385 76.0173 106.088C72.7198 104.759 69.308 103.819 65.837 103.281C61.797 102.587 57.5872 102.079 53.2076 101.757C48.828 101.436 44.5767 101.196 40.4537 101.036C36.3299 100.876 32.8505 100.796 30.0156 100.796C29.2513 100.771 28.5003 101.023 27.8737 101.514C27.247 102.005 26.778 102.709 26.536 103.522C24.7315 108.871 22.9916 114.163 21.3163 119.401C19.6122 124.748 18.2135 130.213 17.1285 135.76C16.8727 137.022 16.743 138.313 16.7418 139.608C16.7499 140.927 17.1089 142.212 17.7729 143.3C17.9416 143.564 18.0478 143.872 18.0816 144.195C18.1154 144.517 18.0757 144.844 17.9663 145.145C17.8773 145.467 17.7192 145.76 17.5056 145.997C17.2921 146.235 17.0298 146.41 16.7418 146.508C16.4992 146.63 16.2339 146.685 15.9684 146.668C15.0219 146.668 14.4206 145.974 14.1645 144.584C13.7337 142.419 13.7337 140.174 14.1645 138.009C14.593 134.265 15.2823 130.565 16.2262 126.942C17.1706 123.306 18.2016 119.725 19.3191 116.197C20.0057 113.844 20.7574 111.572 21.5741 109.38C22.3909 107.189 23.1858 104.971 23.9587 102.725C24.0923 102.333 24.1998 101.931 24.2803 101.522C24.3231 101.256 24.0009 101.121 23.3142 101.121C20.2216 101.228 17.1287 101.415 14.0356 101.682C10.9271 101.954 7.85685 102.627 4.8858 103.687C4.50977 103.812 4.1177 103.866 3.72574 103.847C3.3802 103.842 3.04483 103.715 2.76689 103.485C2.48895 103.255 2.28246 102.933 2.17651 102.564C2.0413 102.246 1.9821 101.894 2.0047 101.543C2.02729 101.192 2.13091 100.853 2.3054 100.56C2.68963 100.043 3.17445 99.6312 3.72264 99.3567C6.98636 97.7532 10.2294 96.0959 13.4518 94.3848C16.6742 92.6738 19.9605 91.07 23.3105 89.5734C25.6343 88.6253 27.7453 87.12 29.4963 85.1628C31.3051 82.986 32.7459 80.4591 33.7486 77.7049C37.5776 67.6328 41.8573 57.7835 46.5713 48.1945C51.2533 38.6795 56.2148 29.3773 61.4557 20.2879C61.7135 19.7537 62.0556 19.1126 62.4869 18.3632C54.1368 20.1831 46.0783 23.4001 38.5816 27.9062C30.9327 32.3964 23.7388 37.7993 17.1247 44.0207C16.6092 44.5578 16.1151 45.0392 15.6424 45.4648C15.1445 45.9335 14.7666 46.5421 14.5474 47.2283C14.4045 47.597 14.1717 47.9131 13.8757 48.1402C13.5798 48.3672 13.2327 48.4961 12.8743 48.5119C12.6089 48.5301 12.3435 48.475 12.1015 48.3515C10.8968 47.8171 10.3804 46.7479 10.5523 45.1439C10.6241 44.5389 10.8229 43.9617 11.1323 43.4595C11.4484 42.9585 11.8162 42.501 12.2279 42.0967C14.1565 39.7898 16.3195 37.7442 18.6727 36.0016C25.4033 30.3814 32.612 25.5189 40.1941 21.4847C47.6668 17.5522 55.5446 14.67 63.6482 12.9037C64.5838 12.374 65.5818 11.9961 66.6122 11.7812C67.5894 11.5733 68.5815 11.4659 69.5762 11.4603C70.7784 11.4603 71.9812 11.5138 73.1847 11.6208C74.3881 11.7277 75.5909 11.7812 76.7932 11.7812C80.0019 11.785 83.2004 12.1885 86.3296 12.9843C89.5225 13.7947 92.488 15.4747 94.9638 17.8756C96.6752 19.5325 97.9282 21.7028 98.5748 24.1318ZM106.564 94.7808C106.822 93.9792 107.122 93.1506 107.466 92.2948L107.208 91.9739C105.404 92.831 103.621 93.74 101.86 94.7009C100.1 95.6617 98.3597 96.5705 96.6407 97.4272C97.9868 97.6397 99.3418 97.7735 100.7 97.8279C102.031 97.8835 103.385 97.9104 104.76 97.9085C104.941 97.8742 105.114 97.7997 105.268 97.6895C105.423 97.5793 105.557 97.4355 105.662 97.2667C106.004 96.4128 106.305 95.5837 106.564 94.7808ZM172.545 22.048C171.507 20.912 170.281 20.0131 168.937 19.4016C167.475 18.7071 165.967 18.1439 164.426 17.7172C162.902 17.2946 161.351 16.9998 159.787 16.8351C158.24 16.6753 156.866 16.5952 155.663 16.5948C154.461 16.5943 153.301 16.6478 152.184 16.7552C151.066 16.8631 149.906 16.9701 148.704 17.0761C148.429 17.1456 148.171 17.2823 147.948 17.4763C147.725 17.6703 147.543 17.9169 147.415 18.1986C142.861 25.7928 138.458 33.4377 134.206 41.1333C129.955 48.8289 125.939 56.7947 122.157 65.0307C120.782 67.9174 119.493 70.831 118.291 73.7714C117.081 76.7292 116.006 79.7536 115.069 82.8331C117.473 81.5504 120.501 79.8139 124.154 77.6237C127.806 75.4334 131.694 72.9474 135.816 70.1658C139.941 67.3875 144.151 64.3935 148.446 61.1841C152.564 58.125 156.523 54.8041 160.302 51.2375C163.658 48.0991 166.763 44.6378 169.581 40.893C172.158 37.42 173.833 34.0785 174.607 30.8686C175.38 27.2354 174.693 24.2957 172.545 22.048ZM178.215 24.1318C178.816 26.6539 178.816 29.3085 178.215 31.8306C177.356 35.5745 175.53 39.3167 172.738 43.0573C169.707 47.0691 166.388 50.797 162.815 54.2041C158.832 58.0278 154.635 61.5633 150.25 64.789C145.696 68.1573 141.207 71.3117 136.784 74.2521C132.361 77.1926 128.173 79.8387 124.219 82.1906C120.264 84.5425 116.957 86.4674 114.296 87.9654C113.397 88.464 112.572 89.113 111.847 89.8901C111.105 90.7393 110.572 91.789 110.298 92.9373C109.913 94.1037 109.439 95.2306 108.88 96.3054C108.536 97.2672 108.794 97.7483 109.654 97.7488C110.509 97.6426 111.37 97.5891 112.231 97.5883H114.808C116.181 97.5883 117.535 97.6149 118.868 97.6682C120.201 97.7214 121.597 97.8018 123.056 97.9092C128.295 98.2301 133.493 98.6043 138.649 99.0317C143.871 99.4725 149.046 100.439 154.114 101.918C154.887 102.134 155.725 102.4 156.626 102.721C157.525 103.041 158.389 103.471 159.204 104.004C159.996 104.519 160.714 105.168 161.33 105.928C161.934 106.684 162.296 107.643 162.361 108.655C162.485 109.127 162.449 109.635 162.258 110.08C162.068 110.524 161.737 110.874 161.33 111.061C160.939 111.065 160.549 111.011 160.17 110.9C159.975 110.807 159.809 110.65 159.694 110.45C159.579 110.25 159.521 110.016 159.526 109.778C159.289 108.769 158.74 107.888 157.977 107.292C157.248 106.79 156.47 106.386 155.657 106.089C152.359 104.76 148.947 103.819 145.476 103.282C141.437 102.587 137.227 102.079 132.847 101.758C128.466 101.437 124.214 101.196 120.089 101.036C115.965 100.876 112.486 100.796 109.651 100.796C108.886 100.771 108.135 101.023 107.509 101.514C106.882 102.005 106.413 102.709 106.171 103.522C104.367 108.871 102.628 114.163 100.952 119.401C99.2476 124.748 97.8486 130.213 96.7634 135.76C96.5076 137.022 96.3779 138.313 96.3767 139.608C96.3856 140.926 96.7446 142.21 97.4079 143.297C97.5768 143.561 97.6831 143.869 97.7169 144.192C97.7508 144.514 97.7109 144.841 97.6012 145.142C97.5123 145.464 97.3542 145.757 97.1407 145.995C96.9272 146.232 96.6648 146.408 96.3767 146.505C96.1343 146.627 95.8693 146.682 95.6039 146.665C94.6579 146.665 94.0564 145.971 93.7994 144.582C93.3686 142.416 93.3686 140.171 93.7994 138.006C94.2278 134.262 94.9173 130.562 95.8617 126.94C96.8061 123.304 97.8371 119.722 98.9546 116.194C99.6412 113.841 100.393 111.569 101.21 109.378C102.026 107.186 102.821 104.968 103.594 102.722C103.727 102.33 103.835 101.928 103.916 101.519C103.958 101.254 103.636 101.118 102.949 101.118C99.8565 101.226 96.7636 101.413 93.6705 101.679C90.562 101.951 87.4918 102.624 84.5207 103.684C84.1449 103.81 83.753 103.864 83.3613 103.844C83.0158 103.839 82.6805 103.712 82.4026 103.482C82.1247 103.252 81.9182 102.93 81.812 102.562C81.677 102.244 81.6179 101.892 81.6405 101.54C81.6631 101.189 81.7666 100.85 81.9409 100.557C82.3254 100.04 82.8104 99.6284 83.3588 99.354C86.6225 97.7504 89.8656 96.0931 93.088 94.3821C96.3104 92.6711 99.5964 91.0673 102.946 89.5706C105.27 88.6227 107.381 87.1174 109.132 85.16C110.941 82.9833 112.382 80.4563 113.385 77.7022C117.218 67.6293 121.501 57.7795 126.219 48.1903C130.901 38.6754 135.862 29.3732 141.104 20.2837C141.361 19.7494 141.705 19.1078 142.135 18.359C133.783 20.1786 125.723 23.3956 118.225 27.902C110.576 32.3924 103.382 37.7953 96.7683 44.0165C96.2534 44.5535 95.7576 45.0341 95.2867 45.4606C94.7883 45.9291 94.4102 46.5378 94.191 47.2242C94.0483 47.593 93.8155 47.9091 93.5195 48.1362C93.2235 48.3633 92.8763 48.4921 92.5179 48.5078C92.2522 48.526 91.9867 48.4709 91.7445 48.3473C90.5406 47.8129 90.0242 46.7437 90.1953 45.1397C90.2669 44.5348 90.4655 43.9575 90.7747 43.4553C91.0911 42.9546 91.4588 42.4972 91.8703 42.0925C93.799 39.7859 95.962 37.7403 98.3151 35.9975C105.046 30.3773 112.254 25.5147 119.836 21.4805C127.309 17.5479 135.187 14.6657 143.291 12.8995C144.226 12.3698 145.224 11.9918 146.255 11.7771C147.232 11.5691 148.224 11.4617 149.219 11.4562C150.421 11.4562 151.624 11.5097 152.827 11.6166C154.03 11.7236 155.233 11.7771 156.435 11.7771C159.644 11.7808 162.842 12.1843 165.971 12.9801C169.164 13.7904 172.13 15.4704 174.606 17.8714C176.317 19.5294 177.57 21.7013 178.215 24.1318ZM248.384 101.518C248.516 101.19 248.538 100.82 248.446 100.476C248.121 100.676 247.819 100.918 247.544 101.197C247.27 101.478 246.967 101.72 246.642 101.919C244.235 104.165 241.851 106.411 239.49 108.657C237.128 110.902 234.744 113.201 232.337 115.553C226.237 121.327 220.201 127.101 214.231 132.875C208.261 138.649 202.441 144.743 196.772 151.156C194.881 153.294 192.561 155.994 189.813 159.256C187.064 162.517 184.379 166.019 181.757 169.761C179.211 173.381 176.845 177.156 174.669 181.068C172.764 184.309 171.43 187.93 170.739 191.733C169.965 196.329 171.168 198.628 174.347 198.63H175.184C175.606 198.6 176.019 198.491 176.409 198.309C178.885 197.78 181.26 196.776 183.432 195.342C185.631 193.891 187.76 192.312 189.811 190.611C196.056 185.38 201.781 179.411 206.887 172.808C212.514 165.627 217.784 158.105 222.673 150.274C227.654 142.307 232.294 134.155 236.591 125.816C240.888 117.477 244.668 109.618 247.931 102.239C248.108 102.02 248.26 101.778 248.384 101.518ZM280.151 74.6536C279.807 74.9745 279.485 75.2697 279.184 75.5357C278.88 75.8053 278.557 76.0466 278.218 76.2574C275.494 77.95 272.849 79.7968 270.292 81.7905C267.757 83.7701 265.288 85.8819 262.883 88.1259C261.936 88.983 260.97 89.8383 259.983 90.6917C258.994 91.5476 257.936 92.2994 256.823 92.9373C255.977 93.5636 255.236 94.3506 254.632 95.2628C254.022 96.1865 253.502 97.1813 253.083 98.2301C248.704 107.961 244.086 117.423 239.23 126.617C234.373 135.811 229.113 144.739 223.449 153.402C221.903 155.752 219.991 158.586 217.714 161.902C215.438 165.218 212.925 168.667 210.176 172.246C207.425 175.828 204.504 179.41 201.412 182.992C198.5 186.387 195.402 189.574 192.134 192.535C189.273 195.145 186.186 197.429 182.921 199.354C180.253 201.004 177.269 201.912 174.223 202C171.988 201.892 170.312 201.063 169.196 199.514C168.08 197.965 167.651 195.799 167.908 193.018C168.15 190.303 168.78 187.649 169.776 185.16C170.763 182.699 171.858 180.293 173.061 177.942C176.707 171.297 180.891 165.042 185.561 159.258C190.543 153.003 195.848 146.908 201.476 140.974C207.105 135.04 212.775 129.4 218.487 124.054C224.2 118.706 229.419 113.841 234.144 109.459C236.636 107.108 239.17 104.783 241.748 102.482C244.326 100.181 246.903 97.8553 249.48 95.5052C250.167 94.7583 250.833 93.9832 251.478 93.1797C252.164 92.3022 252.709 91.2983 253.089 90.2124C254.205 87.3257 255.299 84.439 256.373 81.5523C257.448 78.6656 258.457 75.7251 259.402 72.731C259.66 71.8766 259.896 71.0213 260.111 70.1651C260.326 69.3089 260.519 68.4534 260.691 67.5986C260.948 65.7816 260.39 64.4984 259.018 63.7492C258.398 63.5016 257.742 63.3928 257.085 63.429C255.28 63.429 252.939 64.0972 250.061 65.4336C247.183 66.77 244.048 68.4539 240.654 70.4853C237.259 72.5177 233.78 74.8166 230.216 77.3819C226.651 79.9473 223.236 82.4601 219.97 84.9204C216.706 87.3811 213.742 89.6797 211.078 91.8162C208.414 93.9528 206.309 95.6636 204.764 96.9486C200.209 100.692 195.677 104.408 191.168 108.095C186.659 111.783 181.998 115.284 177.186 118.6C175.552 119.668 173.941 120.657 172.352 121.568C170.741 122.483 169.03 123.157 167.262 123.572C166.711 123.691 166.15 123.745 165.589 123.733C162.581 123.733 161.164 121.594 161.337 117.317C161.513 114.324 162.168 111.391 163.269 108.657C164.513 105.356 165.933 102.142 167.522 99.0337C169.153 95.8261 170.85 92.8056 172.613 89.9721C174.375 87.1387 175.9 84.7597 177.188 82.8352C185.28 70.9364 194.338 59.9033 204.247 49.8775C213.979 40.0739 224.605 31.4459 235.948 24.1359C237.752 22.9607 239.75 21.7579 241.941 20.5275C244.159 19.285 246.44 18.1874 248.771 17.24C251.073 16.2971 253.418 15.4928 255.797 14.8305C257.945 14.2139 260.152 13.8909 262.37 13.8685C264.856 13.7728 267.294 14.6519 269.264 16.3544C271.111 18.0131 272.205 20.6593 272.549 24.2929C272.723 26.3844 272.614 28.4933 272.226 30.5484C271.841 32.5741 271.302 34.5593 270.615 36.4823C269.597 39.4473 268.324 42.2943 266.814 44.9827C265.309 47.656 263.913 50.3825 262.625 53.1622C262.483 53.5309 262.25 53.8469 261.954 54.0739C261.658 54.3008 261.311 54.4295 260.952 54.4451C259.577 54.4451 258.89 53.4294 258.891 51.398C258.951 50.6485 259.125 49.9161 259.406 49.2329C259.698 48.5833 260.043 47.9657 260.437 47.3881C261.382 45.3585 262.37 43.4071 263.401 41.5341C264.462 39.6006 265.409 37.5918 266.236 35.5203C266.815 34.0878 267.31 32.6144 267.718 31.1096C268.111 29.6218 268.349 28.0878 268.427 26.5385C268.856 21.5139 266.966 18.8943 262.757 18.6799C260.406 18.6716 258.065 19.0222 255.798 19.7218C253.562 20.4164 251.286 21.245 248.967 22.2077C241.467 25.4643 234.296 29.6039 227.576 34.5569C220.245 39.893 213.268 45.8159 206.699 52.2794C200.027 58.82 193.741 65.8383 187.879 73.2901C182.316 80.3095 177.233 87.7885 172.672 95.6636C171.899 97.0528 171.061 98.63 170.159 100.395C169.257 102.16 168.398 103.978 167.582 105.848C166.773 107.697 166.063 109.599 165.456 111.543C164.889 113.317 164.458 115.141 164.167 116.997C163.909 119.347 164.51 120.523 165.971 120.525C167.431 120.527 169.214 119.912 171.319 118.681C173.423 117.45 175.12 116.408 176.409 115.555C181.194 112.368 185.819 108.887 190.263 105.13C194.686 101.389 199.176 97.6469 203.73 93.9035C209.916 88.8788 216.058 83.9604 222.158 79.1483C228.29 74.3139 234.659 69.8683 241.234 65.8323C243.383 64.657 245.531 63.5077 247.679 62.3843C249.779 61.2798 251.984 60.4458 254.252 59.8984C254.698 59.7899 255.15 59.7094 255.604 59.6574C256.076 59.6053 256.571 59.5775 257.087 59.5775C257.648 59.5656 258.209 59.6194 258.76 59.7379C259.614 59.8406 260.436 60.1615 261.162 60.6759C261.888 61.1903 262.499 61.8846 262.948 62.7052C263.865 64.475 264.12 66.5795 263.657 68.5592C263.165 71.4628 262.431 74.3085 261.466 77.0589C260.52 79.7331 259.532 82.4597 258.502 85.2385C258.329 85.667 258.18 86.072 258.051 86.4415C257.922 86.811 257.771 87.2188 257.6 87.6445C259.662 86.1484 261.681 84.6247 263.657 83.0734C265.634 81.5222 267.653 79.9987 269.714 78.503C270.348 77.9678 271.015 77.4852 271.711 77.0589C272.698 76.4176 273.752 75.7763 274.872 75.1349C275.992 74.4936 277.046 73.9055 278.032 73.3707C278.651 72.9733 279.327 72.7017 280.03 72.5684C280.171 72.5496 280.313 72.5878 280.431 72.676C280.549 72.7642 280.635 72.8967 280.674 73.0498C280.932 73.586 280.758 74.1194 280.159 74.6536H280.151ZM357.861 37.8458C357.945 38.8855 357.945 39.9317 357.861 40.9714C357.521 45.4221 356.919 49.8425 356.056 54.2034C355.197 58.5335 354.295 62.9439 353.35 67.4347C351.459 77.1659 349.784 86.896 348.324 96.6249C346.865 106.354 345.533 116.191 344.329 126.135C344.071 128.593 343.857 131.079 343.685 133.593C343.515 136.147 343.689 138.715 344.2 141.211C344.264 141.444 344.285 141.689 344.26 141.931C344.236 142.173 344.167 142.407 344.058 142.618C343.949 142.829 343.803 143.012 343.628 143.156C343.452 143.301 343.253 143.403 343.041 143.456C342.828 143.485 342.612 143.466 342.406 143.401C342.2 143.336 342.008 143.225 341.84 143.076C341.672 142.927 341.532 142.742 341.429 142.532C341.325 142.322 341.26 142.091 341.236 141.853C341.065 140.901 340.957 139.936 340.914 138.966C340.87 138.003 340.849 137.041 340.852 136.079C341.101 130.06 341.66 124.063 342.525 118.116C343.383 112.235 344.199 106.301 344.973 100.313C346.089 92.0809 347.442 83.9542 349.033 75.933C350.624 67.9119 352.149 59.8928 353.608 51.8758C353.95 50.1667 354.229 48.4825 354.445 46.8234C354.662 45.1642 354.812 43.4803 354.897 41.7716C355.083 40.8557 354.992 39.8965 354.639 39.0446C353.974 39.3493 353.363 39.7839 352.834 40.3283C352.32 40.8645 351.803 41.4526 351.285 42.0925C346.478 47.4328 341.98 53.111 337.818 59.0926C333.65 65.0819 329.634 71.2834 325.769 77.6973C324.822 79.3013 323.877 80.8526 322.933 82.351C321.939 83.9172 320.863 85.4167 319.711 86.8416C319.35 87.1974 318.9 87.4213 318.422 87.4834C318.18 87.4903 317.94 87.4276 317.726 87.3012C317.512 87.1749 317.33 86.9892 317.198 86.7617C316.893 86.2676 316.735 85.6784 316.747 85.078C316.744 83.5222 316.83 81.9677 317.004 80.4242C317.176 78.9281 317.348 77.4313 317.52 75.9337C318.12 71.6587 318.894 67.4889 319.84 63.4241C320.786 59.3594 321.688 55.2427 322.546 51.0743C322.717 50.5408 322.867 50.0062 322.997 49.4705C323.128 48.8394 323.149 48.1858 323.059 47.5458C322.487 48.0455 321.988 48.6405 321.577 49.31C321.206 49.9293 320.797 50.5188 320.352 51.0743C314.596 59.3094 309.012 67.6227 303.6 76.0143C298.187 84.4059 292.862 92.9338 287.625 101.598C285.905 104.593 284.144 107.506 282.341 110.339C280.539 113.171 278.734 116.032 276.929 118.92C276.536 119.402 276.17 119.911 275.833 120.444C275.495 120.975 275.129 121.484 274.738 121.967C274.507 122.299 274.214 122.571 273.881 122.765C273.547 122.959 273.18 123.069 272.805 123.09C272.439 123.11 272.078 122.998 271.774 122.769C270.914 122.128 270.613 121.005 270.872 119.401C271.043 118.759 271.193 118.118 271.323 117.477C271.443 116.861 271.638 116.268 271.903 115.712C273.007 112.322 274.276 109.003 275.704 105.769C277.122 102.561 278.561 99.3533 280.022 96.1457C285.434 84.4927 291.039 73.0252 296.839 61.7432C302.638 50.4612 308.846 39.4751 315.461 28.7848C316.401 27.1868 317.434 25.6598 318.553 24.2137C319.668 22.7729 320.62 21.1838 321.389 19.4822C322.108 17.9654 322.971 16.5401 323.963 15.2313C324.908 14.0042 325.896 12.8014 326.927 11.6229C327.087 11.4218 327.259 11.2342 327.443 11.0616C327.626 10.8882 327.799 10.7007 327.959 10.5004C328.384 10.0742 328.938 9.84482 329.508 9.85861C329.751 9.85353 329.993 9.90836 330.216 10.0192C330.438 10.1301 330.637 10.2944 330.797 10.5004C331.285 10.9732 331.587 11.6437 331.635 12.3651C331.683 13.0865 331.475 13.7999 331.055 14.3491C330.539 15.2063 330.023 16.0083 329.505 16.7552C328.953 17.551 328.35 18.3014 327.701 19.0008C325.99 20.809 324.436 22.7959 323.062 24.9347C321.686 27.075 320.312 29.2134 318.938 31.35C311.549 43.3261 304.546 55.5419 297.931 67.9973C291.315 80.4527 285.174 93.3636 279.506 106.73C279.333 107.051 279.161 107.399 278.99 107.772C278.799 108.25 278.711 108.772 278.733 109.296C279.333 108.441 279.87 107.613 280.344 106.81C280.817 106.007 281.268 105.232 281.697 104.484C287.28 95.0767 292.908 85.8279 298.579 76.7381C304.25 67.6482 310.178 58.7736 316.364 50.1144C317.137 49.0465 317.931 47.9773 318.748 46.9067C319.548 45.8557 320.432 44.8892 321.39 44.0193C321.663 43.6082 322.011 43.267 322.411 43.0182C322.811 42.7693 323.254 42.6186 323.709 42.576C324.177 42.5578 324.634 42.7286 324.998 43.0573C325.309 43.2705 325.571 43.5634 325.761 43.9119C325.951 44.2604 326.065 44.6545 326.093 45.0619C326.134 45.8966 326.068 46.7335 325.9 47.5478C325.565 49.8534 325.092 52.1308 324.483 54.3646C323.88 56.5576 323.279 58.7761 322.679 61.0201C321.732 64.4431 320.937 67.8646 320.294 71.2848C319.651 74.705 319.157 78.18 318.812 81.7099C318.718 82.0767 318.653 82.4524 318.619 82.8324C318.582 83.3238 318.649 83.8181 318.812 84.2757C319.155 83.7423 319.477 83.2612 319.779 82.8324C320.095 82.3794 320.375 81.8965 320.616 81.3891C324.225 74.9738 327.941 68.6921 331.763 62.5441C335.597 56.3816 339.794 50.5144 344.328 44.982L346.455 42.3356C347.357 41.2132 348.324 40.0905 349.355 38.9675C350.301 37.9248 351.313 36.96 352.383 36.0808C353.093 35.4036 353.969 34.984 354.896 34.8778C355.441 34.8859 355.974 35.0517 356.445 35.3591C356.837 35.6217 357.17 35.9832 357.415 36.4148C357.661 36.8465 357.814 37.3365 357.861 37.8458ZM432.348 25.8169C431.059 23.7331 428.954 22.6912 426.033 22.6912C425.411 22.6558 424.792 22.7937 424.229 23.0927C423.798 23.3608 423.497 24.029 423.327 25.0972C423.069 26.7008 422.253 27.5026 420.878 27.5026C420.484 27.4908 420.101 27.3471 419.779 27.09C419.458 26.8328 419.212 26.4739 419.074 26.0593C418.817 25.3126 418.559 24.9368 418.301 24.9368C418.12 24.94 417.942 24.9952 417.786 25.0972C417.612 25.2049 417.441 25.3126 417.27 25.4182C414.087 27.2205 411.085 29.3978 408.314 31.9133C405.7 34.3112 403.285 36.9684 401.097 39.8525C398.847 42.8295 396.801 45.9926 394.976 49.3149C393.085 52.7388 391.194 56.3738 389.305 60.22C389.152 60.7382 389.065 61.2782 389.047 61.8238C388.961 63.7478 388.231 64.71 386.857 64.7105C386.182 64.5088 385.603 64.0196 385.245 63.347C384.85 62.5983 384.734 61.705 384.923 60.8611C385.139 59.7965 385.581 58.8061 386.212 57.9744C388.445 54.1249 390.679 50.4362 392.913 46.9081C395.09 43.4578 397.457 40.1636 400.001 37.0449C402.496 33.9928 405.234 31.2013 408.181 28.705C411.273 26.1105 414.625 23.9306 418.169 22.2098C418.687 21.9384 419.143 21.5368 419.5 21.036C419.858 20.5353 420.108 19.9489 420.23 19.3224C420.231 18.9964 420.274 18.6722 420.359 18.3604C420.405 18.2261 420.417 18.0806 420.394 17.9393C420.371 17.798 420.315 17.6662 420.23 17.5581C419.449 17.6076 418.683 17.8256 417.975 18.2C417.046 18.6441 416.142 19.153 415.269 19.7239C414.367 20.3129 413.486 20.9276 412.627 21.568C411.768 22.2084 411.038 22.743 410.436 23.1718C390.504 39.8518 375.813 62.0382 366.363 89.7311C364.92 94.0481 363.736 98.4684 362.819 102.962C361.902 107.521 361.363 112.165 361.208 116.835C361.18 119.49 361.484 122.135 362.11 124.695C363.054 127.261 364.386 128.543 366.104 128.543C367.183 128.55 368.254 128.333 369.262 127.902C370.268 127.463 371.238 126.927 372.161 126.299C376.237 123.678 380.041 120.558 383.502 116.996C388.048 112.45 392.372 107.632 396.453 102.562C400.877 97.1081 405.215 91.2541 409.467 84.9995C413.718 78.745 417.563 72.5434 421.001 66.3949C424.191 60.7538 427.054 54.8886 429.573 48.8356C431.848 43.2789 433.201 38.5207 433.632 34.5611C434.061 30.8177 433.632 27.9029 432.343 25.8169H432.348ZM426.549 19.9628C429.984 19.9628 432.561 21.352 434.281 24.1304C436 26.9087 436.558 30.6512 435.954 35.3578C435.403 40.011 434.253 44.55 432.539 48.8328C430.655 53.7216 428.481 58.4633 426.032 63.0261C423.539 67.678 420.94 72.1153 418.236 76.338C415.531 80.5606 413.104 84.2227 410.954 87.3243C409.666 89.1432 407.969 91.5222 405.864 94.4612C403.759 97.4003 401.374 100.528 398.711 103.844C396.048 107.159 393.255 110.5 390.335 113.868C387.558 117.085 384.633 120.136 381.572 123.01C378.942 125.507 376.117 127.735 373.131 129.666C370.425 131.375 367.998 132.23 365.85 132.232C365.071 132.28 364.292 132.148 363.56 131.845C362.829 131.541 362.16 131.072 361.597 130.467C360.54 129.241 359.746 127.76 359.277 126.137C358.746 124.343 358.401 122.487 358.247 120.604C358.073 118.624 357.987 116.833 357.989 115.231C358.178 110.587 358.738 105.971 359.662 101.438C360.635 96.6322 361.927 91.9143 363.528 87.3243C373.065 59.6333 387.799 37.0727 407.73 19.6426C410.645 17.0891 413.852 14.9865 417.267 13.3913C417.696 13.1778 418.125 12.9907 418.556 12.8301C418.979 12.6718 419.409 12.538 419.844 12.4293C420.019 12.4297 420.192 12.4025 420.36 12.3487C420.528 12.2961 420.701 12.2693 420.875 12.2688C421.423 12.245 421.967 12.3713 422.461 12.6367C422.955 12.9022 423.384 13.2988 423.71 13.7921C424.061 14.3573 424.3 15 424.411 15.677C424.522 16.3541 424.502 17.05 424.354 17.7179C424.267 18.6806 424.331 19.2956 424.547 19.5628C424.978 19.9015 425.507 20.0447 426.029 19.9635H426.544L426.549 19.9628ZM502 20.9248C501.955 21.683 501.847 22.4348 501.678 23.1705C501.177 25.2651 500.509 27.3049 499.681 29.2648C498.863 31.1893 498.112 33.1675 497.425 35.1994C494.762 42.2564 492.141 49.2864 489.565 56.2893C486.964 63.3695 484.769 70.6283 482.992 78.0217C480.93 86.3619 479.083 94.7284 477.451 103.121C475.819 111.514 474.444 120.041 473.327 128.703C473.075 130.456 472.903 132.222 472.811 133.995C472.728 135.765 472.814 137.539 473.069 139.288C473.237 139.747 473.259 140.257 473.131 140.731C473.053 140.953 472.922 141.146 472.751 141.288C472.58 141.43 472.376 141.515 472.164 141.533C471.967 141.606 471.755 141.606 471.558 141.534C471.361 141.462 471.19 141.321 471.069 141.132C470.839 140.716 470.686 140.252 470.618 139.769C470.361 137.804 470.318 135.811 470.489 133.835C470.66 131.91 470.832 129.985 471.005 128.061C474.738 98.2211 482.064 69.0868 492.783 41.4542C493.728 38.9958 494.63 36.4832 495.49 33.9165C496.349 31.3497 497.252 28.7835 498.196 26.2176C498.624 25.1595 498.843 24.011 498.84 22.8496C498.406 23.2781 498.003 23.7067 497.616 24.1325C497.23 24.5582 496.821 24.9896 496.392 25.4161C491.237 31.8313 486.276 38.3801 481.507 45.0626C476.739 51.745 471.949 58.4545 467.139 65.1912C460.522 74.601 454.294 84.3309 448.452 94.3807C442.611 104.43 437.113 114.802 431.957 125.495C431.784 125.921 431.506 126.51 431.12 127.259C430.733 128.009 430.302 128.755 429.831 129.505C429.405 130.187 428.931 130.831 428.413 131.429C428.246 131.656 428.04 131.844 427.808 131.981C427.576 132.119 427.322 132.204 427.06 132.231C426.751 132.156 426.449 132.049 426.158 131.91C425.83 131.779 425.544 131.541 425.338 131.227C425.131 130.912 425.013 130.536 424.998 130.146C424.998 129.395 425.041 128.645 425.127 127.901C425.298 127.044 425.491 126.187 425.707 125.331C425.923 124.475 426.159 123.62 426.416 122.765C428.535 115.361 430.987 108.082 433.761 100.955C436.51 93.8979 439.345 86.8411 442.267 79.7845C446.906 68.8781 451.696 58.1857 456.636 47.7076C461.576 37.2295 466.666 26.8046 471.906 16.4329C472.205 16.0139 472.404 15.5176 472.487 14.9895C472.528 14.564 472.206 14.0829 471.52 13.5462C471.239 13.4114 470.998 13.1883 470.826 12.9039C470.655 12.6194 470.56 12.2856 470.554 11.9424C470.516 11.1615 470.672 10.3842 471.005 9.69677C471.336 8.91394 471.723 8.16308 472.164 7.45185C472.692 6.57893 473.274 5.74826 473.904 4.9659C474.523 4.19052 475.214 3.49192 475.966 2.88212C476.534 2.36295 477.232 2.05467 477.963 2C478.309 2.00295 478.649 2.09059 478.961 2.25678C479.273 2.42298 479.548 2.66369 479.768 2.962C480.002 3.17729 480.191 3.4461 480.325 3.75038C480.458 4.05467 480.532 4.3874 480.541 4.72626C480.533 5.43019 480.447 6.13023 480.284 6.81004C480.028 7.65831 479.726 8.48848 479.381 9.29599C479.037 10.0975 478.65 10.9262 478.221 11.7819C475.129 18.1972 471.928 24.5323 468.621 30.7873C465.313 37.0424 462.112 43.378 459.018 49.7942C453.519 61.2364 448.3 72.7571 443.36 84.3563C438.342 96.1727 433.932 108.302 430.151 120.683C429.936 121.465 429.806 122.273 429.765 123.089C436.379 109.725 443.423 96.9479 450.896 84.7578C458.369 72.5677 466.274 60.6458 474.611 48.9919C477.618 44.7169 480.625 40.4936 483.632 36.3219C486.639 32.1501 489.775 28.087 493.039 24.1325C493.726 23.2781 494.435 22.4495 495.166 21.6465C495.898 20.8422 496.696 20.1173 497.55 19.4815C498.173 18.887 498.932 18.4984 499.741 18.359C500.268 18.3654 500.775 18.5945 501.158 19.0008C501.433 19.2151 501.653 19.5043 501.8 19.841C501.946 20.1777 502.014 20.5508 501.996 20.9248H502Z" stroke="black" stroke-width="4" mask="url(#path-1-outside-1)"/>
</svg>
