<svg xmlns="http://www.w3.org/2000/svg" width="1000" height="1000" viewBox="0 0 1000 1000">
  <defs>
    <style>
      .cls-1 {
        fill: #fff;
        fill-rule: evenodd;
      }
    </style>
  </defs>
  <path id="RRGMON" class="cls-1" d="M140.666,532.048q0.623-1.731,1.455-3.579l-0.416-.462q-4.367,1.851-8.63,3.926t-8.422,3.925a63.158,63.158,0,0,0,6.551.577q3.22,0.12,6.55.116a2.228,2.228,0,0,0,1.456-.924Q140.038,533.782,140.666,532.048ZM247.139,427.334a18.062,18.062,0,0,0-5.822-3.81,48.326,48.326,0,0,0-7.279-2.425,51.1,51.1,0,0,0-7.486-1.27q-3.744-.345-6.655-0.346t-5.615.231q-2.7.233-5.615,0.462a3.1,3.1,0,0,0-2.079,1.616q-11.025,16.4-21.316,33.019t-19.444,34.405Q162.5,495.45,159.59,501.8a139,139,0,0,0-5.2,13.046q5.819-2.77,14.661-7.5t18.82-10.737q9.981-6,20.38-12.931a208.893,208.893,0,0,0,19.132-14.316,121.012,121.012,0,0,0,14.972-14.893q6.24-7.5,8.111-14.432,1.87-7.846-3.328-12.7h0Zm9.151,3a21.481,21.481,0,0,1,0,11.084q-2.082,8.085-8.839,16.163a139.133,139.133,0,0,1-16.012,16.048,199.451,199.451,0,0,1-20.276,15.239q-11.025,7.274-21.732,13.624t-20.275,11.429q-9.569,5.082-16.013,8.313a15.941,15.941,0,0,0-3.951,2.771,9.944,9.944,0,0,0-2.5,4.387,31.035,31.035,0,0,1-2.287,4.849q-0.834,2.077,1.248,2.078a38.081,38.081,0,0,1,4.159-.231h4.159q3.324,0,6.55.115t6.759,0.347q12.683,0.693,25.163,1.616a141.007,141.007,0,0,1,24.955,4.156c1.247,0.311,2.6.693,4.055,1.155a20.677,20.677,0,0,1,4.159,1.847,14.411,14.411,0,0,1,3.431,2.771,6.606,6.606,0,0,1,1.664,3.925,2.869,2.869,0,0,1-1.664,3.464,7.092,7.092,0,0,1-1.871-.231,1.71,1.71,0,0,1-1.04-1.616,6.338,6.338,0,0,0-2.5-3.579,17.532,17.532,0,0,0-3.743-1.732,81.565,81.565,0,0,0-16.428-4.041q-9.779-1.5-20.38-2.194T162.5,541.053q-9.982-.346-16.844-0.346a5.746,5.746,0,0,0-5.615,3.925q-4.368,11.55-8.423,22.86a192.737,192.737,0,0,0-6.758,23.552,25.148,25.148,0,0,0-.624,5.541A9.53,9.53,0,0,0,125.9,601.9a2.768,2.768,0,0,1,.312,2.656,2.965,2.965,0,0,1-1.976,1.962,2.678,2.678,0,0,1-1.248.231q-2.291,0-2.911-3a21.75,21.75,0,0,1,0-9.467,104.081,104.081,0,0,1,3.327-15.932q2.286-7.852,4.991-15.47,1.662-5.082,3.639-9.814t3.848-9.582a12.232,12.232,0,0,0,.519-1.732c0.069-.382-0.451-0.577-1.559-0.577q-7.486.232-14.973,0.808a65.452,65.452,0,0,0-14.765,2.886,5.689,5.689,0,0,1-1.872.231,2.664,2.664,0,0,1-2.5-1.847,2.929,2.929,0,0,1,.208-2.886,6.342,6.342,0,0,1,2.287-1.732q7.9-3.463,15.7-7.158t15.909-6.927a27.417,27.417,0,0,0,9.982-6.35,35.351,35.351,0,0,0,6.862-10.737,468.863,468.863,0,0,1,20.692-42.486q11.333-20.548,24.019-40.177c0.416-.769.968-1.692,1.664-2.771a136.931,136.931,0,0,0-38.576,13.739,193.57,193.57,0,0,0-34.625,23.2q-1.248,1.16-2.392,2.079a5.923,5.923,0,0,0-1.767,2.539,3.076,3.076,0,0,1-2.7,1.848,2.622,2.622,0,0,1-1.247-.231q-2.916-1.154-2.5-4.618a5.558,5.558,0,0,1,.936-2.425,11.227,11.227,0,0,1,1.768-1.962,58.268,58.268,0,0,1,10.4-8.775,206,206,0,0,1,34.729-20.9,161.673,161.673,0,0,1,37.848-12.354,17.849,17.849,0,0,1,4.783-1.616,26.36,26.36,0,0,1,4.783-.462q2.91,0,5.823.231t5.823,0.231a69.889,69.889,0,0,1,15.389,1.732,32.147,32.147,0,0,1,13.933,7.042A19.13,19.13,0,0,1,256.29,430.335Zm12.892,101.713q0.624-1.731,1.456-3.579l-0.416-.462q-4.368,1.851-8.63,3.926t-8.423,3.925a63.158,63.158,0,0,0,6.551.577q3.222,0.12,6.551.116a2.224,2.224,0,0,0,1.455-.924Q268.556,533.782,269.182,532.048ZM375.656,427.334a18.056,18.056,0,0,0-5.823-3.81,48.351,48.351,0,0,0-7.278-2.425,51.109,51.109,0,0,0-7.487-1.27q-3.743-.345-6.654-0.346t-5.615.231q-2.706.233-5.615,0.462a3.1,3.1,0,0,0-2.08,1.616q-11.025,16.4-21.315,33.019t-19.444,34.405q-3.329,6.234-6.239,12.584a139,139,0,0,0-5.2,13.046q5.82-2.77,14.661-7.5t18.82-10.737q9.983-6,20.38-12.931A208.756,208.756,0,0,0,355.9,469.358a120.955,120.955,0,0,0,14.973-14.893q6.238-7.5,8.11-14.432,1.872-7.846-3.327-12.7h0Zm9.15,3a21.481,21.481,0,0,1,0,11.084q-2.08,8.085-8.838,16.163a139.225,139.225,0,0,1-16.013,16.048,199.339,199.339,0,0,1-20.276,15.239q-11.025,7.274-21.731,13.624t-20.276,11.429Q288.1,519,281.659,522.235a15.941,15.941,0,0,0-3.951,2.771,9.933,9.933,0,0,0-2.5,4.387,31.046,31.046,0,0,1-2.288,4.849q-0.833,2.077,1.248,2.078a38.1,38.1,0,0,1,4.159-.231h4.159q3.324,0,6.551.115t6.759,0.347q12.681,0.693,25.162,1.616a140.977,140.977,0,0,1,24.955,4.156c1.248,0.311,2.6.693,4.055,1.155a20.652,20.652,0,0,1,4.159,1.847,14.436,14.436,0,0,1,3.432,2.771,6.6,6.6,0,0,1,1.663,3.925,2.868,2.868,0,0,1-1.663,3.464,7.094,7.094,0,0,1-1.872-.231,1.711,1.711,0,0,1-1.04-1.616,6.332,6.332,0,0,0-2.5-3.579,17.532,17.532,0,0,0-3.743-1.732,81.577,81.577,0,0,0-16.429-4.041q-9.777-1.5-20.38-2.194t-20.587-1.039q-9.982-.346-16.845-0.346a5.746,5.746,0,0,0-5.615,3.925q-4.366,11.55-8.422,22.86a192.739,192.739,0,0,0-6.759,23.552,25.148,25.148,0,0,0-.624,5.541,9.538,9.538,0,0,0,1.664,5.311,2.763,2.763,0,0,1,.312,2.656,2.963,2.963,0,0,1-1.976,1.962,2.676,2.676,0,0,1-1.247.231q-2.29,0-2.912-3a21.75,21.75,0,0,1,0-9.467,103.965,103.965,0,0,1,3.328-15.932q2.286-7.852,4.991-15.47,1.662-5.082,3.639-9.814t3.847-9.582a12.405,12.405,0,0,0,.52-1.732c0.068-.382-0.452-0.577-1.56-0.577q-7.486.232-14.973,0.808a65.463,65.463,0,0,0-14.765,2.886,5.679,5.679,0,0,1-1.871.231,2.666,2.666,0,0,1-2.5-1.847,2.932,2.932,0,0,1,.208-2.886,6.346,6.346,0,0,1,2.288-1.732q7.9-3.463,15.7-7.158t15.908-6.927a27.408,27.408,0,0,0,9.982-6.35,35.352,35.352,0,0,0,6.863-10.737A468.855,468.855,0,0,1,300.9,464.971q11.332-20.548,24.019-40.177,0.624-1.154,1.664-2.771A136.942,136.942,0,0,0,288,435.762a193.606,193.606,0,0,0-34.625,23.2c-0.831.773-1.631,1.465-2.391,2.079a5.916,5.916,0,0,0-1.768,2.539,3.074,3.074,0,0,1-2.7,1.848,2.624,2.624,0,0,1-1.248-.231q-2.914-1.154-2.5-4.618a5.557,5.557,0,0,1,.935-2.425,11.307,11.307,0,0,1,1.768-1.962,58.309,58.309,0,0,1,10.4-8.775,206,206,0,0,1,34.729-20.9,161.658,161.658,0,0,1,37.848-12.354,17.838,17.838,0,0,1,4.783-1.616,26.351,26.351,0,0,1,4.783-.462q2.91,0,5.823.231t5.822,0.231a69.882,69.882,0,0,1,15.389,1.732,32.142,32.142,0,0,1,13.933,7.042A19.123,19.123,0,0,1,384.806,430.335ZM498.038,541.746a2.145,2.145,0,0,0,.1-1.5,7.641,7.641,0,0,0-1.456,1.039,7.392,7.392,0,0,1-1.456,1.039q-5.825,4.85-11.541,9.7t-11.542,9.929q-14.767,12.469-29.218,24.938T414.751,613.21q-4.577,4.617-11.23,11.661t-13,15.124a181.177,181.177,0,0,0-11.438,16.279,43.8,43.8,0,0,0-6.342,15.355q-1.872,9.925,5.823,9.929h1.351a6.148,6.148,0,0,0,1.976-.462,35.368,35.368,0,0,0,11.333-4.272,117.123,117.123,0,0,0,10.294-6.811,175.363,175.363,0,0,0,27.555-25.631,374.732,374.732,0,0,0,25.474-32.441q12.058-17.205,22.46-35.213t18.3-33.943A5.328,5.328,0,0,0,498.038,541.746ZM549.3,503.07c-0.556.462-1.075,0.887-1.56,1.27a11.514,11.514,0,0,1-1.559,1.039,148.292,148.292,0,0,0-12.79,7.966q-6.136,4.275-11.957,9.121-2.291,1.851-4.679,3.694a32.78,32.78,0,0,1-5.1,3.233,14.045,14.045,0,0,0-3.535,3.348,22.969,22.969,0,0,0-2.5,4.272q-10.6,21.014-22.355,40.869T457.8,616.443q-3.743,5.076-9.254,12.238t-12.165,14.893q-6.659,7.734-14.142,15.471a162.311,162.311,0,0,1-14.972,13.738A89.725,89.725,0,0,1,392.4,682.6a30.685,30.685,0,0,1-14.037,3.81q-5.41-.233-8.111-3.579t-2.079-9.352a36.524,36.524,0,0,1,3.015-11.314q2.388-5.314,5.3-10.391a182.851,182.851,0,0,1,20.172-26.9q12.058-13.508,25.682-26.323t27.451-24.36q13.827-11.548,25.266-21.012,6.03-5.076,12.27-10.045t12.477-10.044q1.662-1.613,3.224-3.348a14.563,14.563,0,0,0,2.6-4.272q2.7-6.234,5.3-12.468t4.887-12.7q0.624-1.845,1.144-3.694t0.936-3.695q0.622-3.924-2.7-5.542a8.1,8.1,0,0,0-3.119-.461q-4.368,0-11.334,2.886t-15.181,7.273q-8.217,4.389-16.844,9.929t-16.533,10.853q-7.9,5.314-14.349,9.928t-10.19,7.389q-11.025,8.085-21.939,16.048t-22.563,15.124q-3.954,2.306-7.8,4.272a33.209,33.209,0,0,1-8.214,2.886,13.032,13.032,0,0,1-2.7.231q-7.281,0-6.862-9.236a36.093,36.093,0,0,1,3.119-12.469,128.029,128.029,0,0,1,6.863-13.854q3.948-6.927,8.214-13.046t7.383-10.275A348.805,348.805,0,0,1,426.813,467.4a300.886,300.886,0,0,1,51.157-37.06q4.366-2.538,9.67-5.195a103.8,103.8,0,0,1,11.022-4.733A111,111,0,0,1,510,416.943a44.373,44.373,0,0,1,10.606-1.385,17.252,17.252,0,0,1,11.126,3.579q4.469,3.582,5.3,11.429a30.055,30.055,0,0,1-.52,9.006,52.4,52.4,0,0,1-2.6,8.543,70.454,70.454,0,0,1-6.134,12.238q-3.642,5.773-6.759,11.776a3.074,3.074,0,0,1-2.7,1.847q-3.328,0-3.327-4.387a9.45,9.45,0,0,1,.832-3.117,16.8,16.8,0,0,1,1.664-2.656q2.286-4.383,4.783-8.428a75.207,75.207,0,0,0,4.575-8.658,52.027,52.027,0,0,0,2.391-6.35,28.89,28.89,0,0,0,1.144-6.581q1.038-10.851-9.15-11.314a41.806,41.806,0,0,0-11.23,1.5q-5.411,1.5-11.022,3.579a183.449,183.449,0,0,0-34.52,17.779,292.773,292.773,0,0,0-33.689,25.515A331.122,331.122,0,0,0,400.4,501.107a269.234,269.234,0,0,0-24.539,32.211q-1.872,3-4.055,6.812t-4.159,7.85a74.764,74.764,0,0,0-3.431,8.2,47.929,47.929,0,0,0-2.08,7.851q-0.624,5.076,2.911,5.08t8.631-2.655q5.092-2.658,8.214-4.5a244.948,244.948,0,0,0,22.355-15.009q10.708-8.079,21.732-16.163,14.973-10.851,29.737-21.243A324.027,324.027,0,0,1,486.5,490.37q5.2-2.538,10.4-4.964a49.5,49.5,0,0,1,10.606-3.579,19.808,19.808,0,0,1,2.183-.347c0.761-.075,1.56-0.115,2.392-0.115a13.022,13.022,0,0,1,2.7.231,9.064,9.064,0,0,1,6.759,4.272,11.152,11.152,0,0,1,1.144,8.428,68.257,68.257,0,0,1-3.536,12.237q-2.29,5.775-4.783,11.776c-0.279.617-.52,1.2-0.728,1.732s-0.451,1.119-.727,1.732q4.99-3.231,9.774-6.581t9.774-6.58a26.292,26.292,0,0,1,3.223-2.079q2.388-1.385,5.1-2.77t5.1-2.54a9.753,9.753,0,0,1,3.223-1.155,0.963,0.963,0,0,1,1.04.693c0.416,0.772.136,1.54-.832,2.309h0Zm125.4-52.992a24.886,24.886,0,0,1,0,4.5,145.05,145.05,0,0,1-2.912,19.05q-2.08,9.351-4.367,19.049-4.577,21.015-8.11,42.025t-6.447,42.486q-0.624,5.308-1.039,10.737a36.806,36.806,0,0,0,.831,10.968,2.544,2.544,0,0,1-1.871,3.232,2.615,2.615,0,0,1-2.912-2.309,28.1,28.1,0,0,1-.52-4.156q-0.106-2.079-.1-4.156a225.756,225.756,0,0,1,2.7-25.861q2.076-12.7,3.951-25.631,2.7-17.778,6.551-35.1t7.382-34.635q0.829-3.691,1.352-7.274t0.728-7.273a6.1,6.1,0,0,0-.416-3.926,9.776,9.776,0,0,0-2.912,1.848q-1.246,1.158-2.5,2.54a257.027,257.027,0,0,0-21.732,24.475q-10.089,12.934-19.443,26.785-2.292,3.464-4.576,6.7a70.773,70.773,0,0,1-5.2,6.465,3.818,3.818,0,0,1-2.08.924,2.289,2.289,0,0,1-1.976-1.039,4.106,4.106,0,0,1-.727-2.424,52.187,52.187,0,0,1,.415-6.7q0.416-3.231.832-6.465,1.454-9.232,3.744-18.01t4.367-17.78q0.414-1.152.727-2.309a7.212,7.212,0,0,0,.1-2.771,11.447,11.447,0,0,0-2.391,2.54,23.117,23.117,0,0,1-1.976,2.54q-13.933,17.784-27.034,35.906T561.36,541.862q-4.163,6.467-8.526,12.584T544.1,566.8a22.659,22.659,0,0,0-1.768,2.194,24.117,24.117,0,0,1-1.767,2.193,4.213,4.213,0,0,1-3.12,1.616,2.74,2.74,0,0,1-1.663-.461q-2.082-1.386-1.456-4.849,0.414-1.386.728-2.771a9.848,9.848,0,0,1,.936-2.54,142.027,142.027,0,0,1,6.134-14.316q3.432-6.927,6.967-13.854,13.1-25.165,27.138-49.529t30.05-47.45a62.9,62.9,0,0,1,4.991-6.581,33.454,33.454,0,0,0,4.575-6.812A34.33,34.33,0,0,1,620,417.52q2.286-2.65,4.783-5.195a7.826,7.826,0,0,1,.832-0.808,8.319,8.319,0,0,0,.832-0.808,3.633,3.633,0,0,1,2.5-.924,2.691,2.691,0,0,1,2.08.924,3.936,3.936,0,0,1,.416,5.541q-1.248,1.851-2.5,3.464a30.469,30.469,0,0,1-2.911,3.233,59.688,59.688,0,0,0-7.487,8.543q-3.329,4.622-6.654,9.236-17.887,25.863-33.9,52.761T548.259,549.25c-0.279.462-.556,0.964-0.832,1.5a4.821,4.821,0,0,0-.416,2.194q1.454-1.845,2.6-3.579t2.183-3.348q13.516-20.316,27.243-39.946t28.7-38.33q1.87-2.306,3.847-4.618a32.512,32.512,0,0,1,4.263-4.157,5.208,5.208,0,0,1,3.743-2.078,3.143,3.143,0,0,1,2.08.693,3.718,3.718,0,0,1,1.767,2.886,12.779,12.779,0,0,1-.312,3.579,74.416,74.416,0,0,1-2.287,9.814q-1.458,4.736-2.911,9.582-2.292,7.392-3.848,14.778t-2.391,15.009a9.058,9.058,0,0,0-.312,1.616,4.558,4.558,0,0,0,.312,2.078q0.828-1.152,1.56-2.078a14.267,14.267,0,0,0,1.351-2.078q8.735-13.854,17.988-27.131a241.719,241.719,0,0,1,20.276-25.284l3.432-3.81q2.183-2.424,4.679-4.849a44.446,44.446,0,0,1,4.887-4.156,7.418,7.418,0,0,1,4.055-1.732,5.1,5.1,0,0,1,2.5.693A4.739,4.739,0,0,1,674.7,450.078Zm120.2-17.318q-3.12-4.5-10.19-4.5a6.074,6.074,0,0,0-2.911.578q-1.044.579-1.456,2.886-0.624,3.463-3.951,3.463a3.2,3.2,0,0,1-2.912-2.078c-0.415-1.075-.831-1.616-1.247-1.616a1.711,1.711,0,0,0-.832.231c-0.28.155-.556,0.31-0.832,0.462a81,81,0,0,0-14.453,9.351,90.689,90.689,0,0,0-11.646,11.43,111.632,111.632,0,0,0-9.877,13.623q-4.578,7.394-9.151,15.7a8.284,8.284,0,0,0-.416,2.309q-0.208,4.155-3.535,4.156a4.324,4.324,0,0,1-2.6-1.963,4.755,4.755,0,0,1-.52-3.579,9.745,9.745,0,0,1,2.079-4.156q5.406-8.313,10.814-15.932a145.761,145.761,0,0,1,11.438-14.2,98.317,98.317,0,0,1,13.2-12.007,79.852,79.852,0,0,1,16.117-9.351,6.009,6.009,0,0,0,3.327-4.157,4.753,4.753,0,0,1,.208-1.385,1.141,1.141,0,0,0-.208-1.155,9.827,9.827,0,0,0-3.639.924,39.021,39.021,0,0,0-4.367,2.194q-2.184,1.272-4.263,2.655t-3.536,2.309q-48.247,36.021-71.121,95.825a149.006,149.006,0,0,0-5.719,19.049,109.4,109.4,0,0,0-2.6,19.973,40.971,40.971,0,0,0,1.456,11.315q2.286,5.541,6.446,5.541a14.088,14.088,0,0,0,5.095-.923,29.986,29.986,0,0,0,4.679-2.309,102.32,102.32,0,0,0,18.3-13.393,272.174,272.174,0,0,0,20.9-20.781q10.709-11.777,21-25.284t18.612-26.785A224.269,224.269,0,0,0,790.422,465.9q5.508-12,6.551-20.551Q798.011,437.265,794.893,432.76Zm-9.358-8.428q8.315,0,12.477,6t2.7,16.164a69.852,69.852,0,0,1-5.511,19.4,171.5,171.5,0,0,1-10.5,20.434q-6.034,10.046-12.581,19.165t-11.75,15.817q-3.118,3.928-8.214,10.275t-11.542,13.508q-6.448,7.159-13.517,14.432a184.482,184.482,0,0,1-14.141,13.161,92.976,92.976,0,0,1-13.621,9.583q-6.55,3.69-11.75,3.694a9.185,9.185,0,0,1-6.862-2.54,16.128,16.128,0,0,1-3.744-6.234,35.634,35.634,0,0,1-1.663-7.966q-0.42-4.277-.416-7.736a111.956,111.956,0,0,1,2.7-19.857,142.144,142.144,0,0,1,6.239-20.32q23.083-59.8,71.329-97.441a66.578,66.578,0,0,1,15.389-9q1.038-.461,2.08-0.808a20.973,20.973,0,0,1,2.079-.577,3,3,0,0,0,.832-0.116,3.115,3.115,0,0,1,.832-0.115,5.433,5.433,0,0,1,4.575,2.193A6.955,6.955,0,0,1,782,421.1q-0.21,2.079.312,2.656a3.359,3.359,0,0,0,2.391.577h0.832Zm121.756,1.385a17.556,17.556,0,0,1-.52,3.233,51.876,51.876,0,0,1-3.223,8.774q-1.978,4.156-3.639,8.544-6.448,15.24-12.685,30.363a259.363,259.363,0,0,0-10.606,31.288q-4.992,18.011-8.942,36.136t-6.655,36.829a75.108,75.108,0,0,0-.832,7.62,35.615,35.615,0,0,0,.416,7.62,3.11,3.11,0,0,1,.1,2.078,1.825,1.825,0,0,1-1.56,1.154,1.567,1.567,0,0,1-1.767-.577,5.294,5.294,0,0,1-.728-1.963,35.3,35.3,0,0,1-.208-8.543q0.414-4.157.832-8.313a479.817,479.817,0,0,1,35.144-124.687q2.286-5.309,4.367-10.852t4.368-11.084a11.68,11.68,0,0,0,1.039-4.849c-0.7.617-1.351,1.234-1.975,1.847s-1.284,1.234-1.976,1.848q-12.477,13.854-24.019,28.285t-23.187,28.979q-16.015,20.321-30.154,42.024t-26.618,44.795c-0.28.613-.728,1.461-1.352,2.54s-1.319,2.154-2.079,3.233a22.641,22.641,0,0,1-2.288,2.77,3.22,3.22,0,0,1-2.184,1.155,8.109,8.109,0,0,1-1.455-.462,2.823,2.823,0,0,1-1.872-2.54,25.006,25.006,0,0,1,.208-3.232q0.414-1.851.936-3.7t1.144-3.694a332.526,332.526,0,0,1,11.853-31.4q6.654-15.24,13.725-30.479,11.23-23.553,23.188-46.181t24.642-45.026a4.6,4.6,0,0,0,.936-2.078q0.1-.919-1.559-2.078a2.57,2.57,0,0,1-1.56-2.309,6.093,6.093,0,0,1,.728-3.233,22.636,22.636,0,0,1,1.871-3.232,32.7,32.7,0,0,1,2.808-3.579,20.9,20.9,0,0,1,3.327-3,5.7,5.7,0,0,1,3.223-1.27,3.815,3.815,0,0,1,2.912,1.385,3.424,3.424,0,0,1,1.248,2.54,12.139,12.139,0,0,1-.416,3,31.981,31.981,0,0,1-1.456,3.579q-0.834,1.731-1.872,3.579-7.486,13.854-15.492,27.362T837.938,467.28q-13.311,24.71-25.267,49.759a493.373,493.373,0,0,0-21.316,52.3,14.565,14.565,0,0,0-.623,3.463q16.011-28.86,34.1-55.185T863.1,466.125q7.278-9.232,14.557-18.241t15.181-17.549q1.662-1.845,3.432-3.579a26.236,26.236,0,0,1,3.847-3.117,7.125,7.125,0,0,1,3.535-1.616,3.385,3.385,0,0,1,2.288.924A3.168,3.168,0,0,1,907.291,425.717Z"/>
</svg>
