<svg viewBox="0 0 808 289" fill="white" xmlns="http://www.w3.org/2000/svg">
<mask id="path-1-inside-1" fill="white">
<path fill-rule="evenodd" clip-rule="evenodd" d="M40.666 134.048C41.0813 132.894 41.5663 131.701 42.121 130.469L41.705 130.007C38.7937 131.241 35.917 132.55 33.075 133.933C30.233 135.316 27.4257 136.625 24.653 137.858C26.8252 138.164 29.0118 138.357 31.204 138.435C33.3507 138.515 35.534 138.554 37.754 138.551C38.0459 138.501 38.325 138.394 38.575 138.236C38.825 138.077 39.0409 137.87 39.21 137.627C39.762 136.397 40.2473 135.204 40.666 134.048ZM147.139 29.334C145.464 27.6987 143.486 26.4047 141.317 25.524C138.959 24.524 136.525 23.7131 134.038 23.099C131.578 22.4906 129.075 22.0661 126.552 21.829C124.056 21.599 121.838 21.4837 119.897 21.483C117.956 21.4823 116.085 21.5593 114.282 21.714C112.482 21.8693 110.61 22.0233 108.667 22.176C108.223 22.2762 107.807 22.473 107.447 22.7523C107.088 23.0316 106.795 23.3865 106.588 23.792C99.238 34.7253 92.1327 45.7317 85.272 56.811C78.4113 67.8903 71.93 79.3587 65.828 91.216C63.6093 95.372 61.53 99.5667 59.59 103.8C57.6379 108.058 55.9024 112.412 54.39 116.846C58.2693 114.999 63.1563 112.499 69.051 109.346C74.9457 106.193 81.219 102.614 87.871 98.609C94.525 94.609 101.318 90.2987 108.251 85.678C114.896 81.275 121.284 76.4951 127.383 71.362C132.798 66.8434 137.808 61.8601 142.355 56.469C146.515 51.469 149.219 46.6583 150.466 42.037C151.713 36.8063 150.603 32.573 147.138 29.337L147.139 29.334ZM156.29 32.334C157.26 35.9651 157.26 39.7869 156.29 43.418C154.902 48.808 151.956 54.1957 147.451 59.581C142.559 65.357 137.204 70.7241 131.439 75.629C125.01 81.1337 118.238 86.2237 111.163 90.868C103.813 95.7173 96.569 100.259 89.431 104.492C82.293 108.725 75.5347 112.535 69.156 115.921C62.7767 119.309 57.439 122.08 53.143 124.234C51.693 124.952 50.3608 125.886 49.192 127.005C47.9951 128.228 47.134 129.739 46.692 131.392C46.071 133.071 45.3058 134.694 44.405 136.241C43.849 137.626 44.265 138.318 45.653 138.319C47.0341 138.166 48.4225 138.089 49.812 138.088H53.971C56.187 138.088 58.3703 138.126 60.521 138.203C62.6717 138.28 64.9247 138.395 67.28 138.55C75.7353 139.012 84.123 139.551 92.443 140.166C100.869 140.801 109.221 142.192 117.398 144.322C118.645 144.633 119.998 145.015 121.453 145.477C122.903 145.938 124.298 146.557 125.612 147.324C126.891 148.066 128.048 149.001 129.043 150.095C130.016 151.183 130.601 152.564 130.707 154.02C130.907 154.701 130.848 155.432 130.541 156.072C130.233 156.712 129.7 157.215 129.043 157.484C128.412 157.491 127.783 157.413 127.172 157.253C126.857 157.119 126.589 156.893 126.404 156.605C126.218 156.317 126.123 155.98 126.132 155.637C125.749 154.186 124.863 152.917 123.632 152.058C122.457 151.335 121.2 150.754 119.889 150.326C114.568 148.413 109.062 147.059 103.461 146.285C96.9417 145.285 90.1483 144.554 83.081 144.091C76.0137 143.628 69.1533 143.282 62.5 143.053C55.8453 142.822 50.2307 142.707 45.656 142.707C44.4227 142.672 43.2108 143.034 42.1996 143.741C41.1884 144.448 40.4315 145.462 40.041 146.632C37.129 154.332 34.3213 161.952 31.618 169.492C28.8681 177.191 26.6109 185.058 24.86 193.044C24.4472 194.862 24.238 196.721 24.236 198.585C24.2491 200.483 24.8285 202.334 25.9 203.9C26.1721 204.28 26.3435 204.723 26.398 205.188C26.4526 205.652 26.3886 206.123 26.212 206.556C26.0685 207.02 25.8132 207.441 25.4687 207.783C25.1241 208.125 24.7008 208.378 24.236 208.518C23.8445 208.694 23.4165 208.773 22.988 208.749C21.4607 208.749 20.4903 207.749 20.077 205.749C19.3819 202.632 19.3819 199.399 20.077 196.282C20.7684 190.893 21.8808 185.566 23.404 180.35C24.928 175.115 26.5917 169.959 28.395 164.88C29.503 161.492 30.716 158.221 32.034 155.066C33.352 151.911 34.6347 148.717 35.882 145.484C36.0975 144.92 36.271 144.341 36.401 143.752C36.47 143.37 35.95 143.175 34.842 143.175C29.8513 143.33 24.8603 143.599 19.869 143.983C14.8528 144.374 9.89838 145.343 5.104 146.869C4.4972 147.05 3.86451 147.128 3.232 147.1C2.67441 147.092 2.13322 146.91 1.68471 146.579C1.2362 146.248 0.902973 145.784 0.732005 145.253C0.513826 144.795 0.418292 144.288 0.454753 143.783C0.491214 143.277 0.658421 142.789 0.940005 142.367C1.56004 141.623 2.34238 141.03 3.227 140.635C8.49367 138.326 13.727 135.94 18.927 133.477C24.127 131.014 29.43 128.705 34.836 126.55C38.5858 125.185 41.9924 123.018 44.818 120.2C47.7368 117.066 50.0619 113.428 51.68 109.463C57.8588 94.9622 64.7649 80.7822 72.372 66.977C79.9273 53.2783 87.9337 39.886 96.391 26.8C96.807 26.031 97.359 25.108 98.055 24.029C84.5804 26.6492 71.5763 31.2806 59.479 37.768C47.136 44.2326 35.527 52.011 24.854 60.968C24.022 61.7413 23.2247 62.4343 22.462 63.047C21.6585 63.7219 21.0487 64.5981 20.695 65.586C20.4644 66.1168 20.0887 66.5719 19.6111 66.8988C19.1335 67.2257 18.5733 67.4112 17.995 67.434C17.5667 67.4602 17.1385 67.3809 16.748 67.203C14.804 66.4337 13.9707 64.8943 14.248 62.585C14.3639 61.714 14.6847 60.883 15.184 60.16C15.6941 59.4387 16.2875 58.7802 16.952 58.198C20.0641 54.8769 23.5545 51.9318 27.352 49.423C38.2131 41.3316 49.8458 34.3311 62.081 28.523C74.1398 22.8614 86.8522 18.712 99.929 16.169C101.439 15.4064 103.049 14.8623 104.712 14.553C106.289 14.2537 107.89 14.0991 109.495 14.091C111.435 14.091 113.376 14.168 115.318 14.322C117.26 14.476 119.201 14.553 121.141 14.553C126.319 14.5585 131.48 15.1394 136.53 16.285C141.682 17.4518 146.468 19.8705 150.463 23.327C153.225 25.7124 155.247 28.837 156.29 32.334ZM169.182 134.047C169.598 132.893 170.083 131.7 170.638 130.468L170.222 130.006C167.31 131.24 164.433 132.549 161.592 133.932C158.751 135.315 155.943 136.624 153.169 137.857C155.341 138.163 157.528 138.356 159.72 138.434C161.868 138.514 164.052 138.553 166.271 138.55C166.563 138.501 166.842 138.393 167.092 138.235C167.341 138.076 167.557 137.869 167.726 137.626C168.279 136.397 168.765 135.203 169.182 134.047ZM275.656 29.334C273.98 27.6985 272.003 26.4044 269.833 25.524C267.475 24.5242 265.041 23.7133 262.555 23.099C260.094 22.4906 257.592 22.0661 255.068 21.829C252.573 21.599 250.355 21.4837 248.414 21.483C246.473 21.4823 244.602 21.5593 242.799 21.714C240.995 21.8693 239.123 22.0233 237.184 22.176C236.74 22.2761 236.323 22.4728 235.964 22.7521C235.604 23.0314 235.311 23.3864 235.104 23.792C227.754 34.7253 220.649 45.7317 213.789 56.811C206.929 67.8903 200.448 79.3587 194.345 91.216C192.126 95.372 190.046 99.5667 188.106 103.8C186.154 108.058 184.418 112.412 182.906 116.846C186.786 114.999 191.673 112.499 197.567 109.346C203.461 106.193 209.734 102.614 216.387 98.609C223.042 94.609 229.836 90.2987 236.767 85.678C243.413 81.2739 249.801 76.4928 255.9 71.358C261.316 66.8397 266.326 61.8564 270.873 56.465C275.032 51.465 277.735 46.6543 278.983 42.033C280.231 36.8023 279.122 32.569 275.656 29.333V29.334ZM284.806 32.334C285.776 35.9651 285.776 39.7869 284.806 43.418C283.419 48.808 280.473 54.1957 275.968 59.581C271.075 65.3567 265.72 70.7239 259.955 75.629C253.527 81.1339 246.754 86.2239 239.679 90.868C232.329 95.7173 225.085 100.259 217.948 104.492C210.811 108.725 204.052 112.535 197.672 115.921C191.291 119.307 185.953 122.078 181.659 124.235C180.209 124.953 178.877 125.887 177.708 127.006C176.511 128.229 175.65 129.74 175.208 131.393C174.587 133.072 173.821 134.695 172.92 136.242C172.365 137.627 172.781 138.319 174.168 138.32C175.549 138.167 176.937 138.09 178.327 138.089H182.486C184.702 138.089 186.886 138.127 189.037 138.204C191.188 138.281 193.441 138.396 195.796 138.551C204.25 139.013 212.637 139.552 220.958 140.167C229.384 140.802 237.736 142.193 245.913 144.323C247.161 144.634 248.513 145.016 249.968 145.478C251.418 145.939 252.813 146.558 254.127 147.325C255.406 148.067 256.564 149.002 257.559 150.096C258.532 151.184 259.117 152.565 259.222 154.021C259.423 154.702 259.364 155.433 259.056 156.073C258.749 156.713 258.216 157.216 257.559 157.485C256.927 157.492 256.298 157.414 255.687 157.254C255.372 157.12 255.104 156.894 254.919 156.606C254.733 156.318 254.639 155.981 254.647 155.638C254.264 154.186 253.378 152.918 252.147 152.059C250.972 151.336 249.715 150.755 248.404 150.327C243.083 148.414 237.577 147.06 231.975 146.286C225.457 145.286 218.664 144.555 211.595 144.092C204.526 143.629 197.664 143.283 191.008 143.053C184.353 142.822 178.738 142.707 174.163 142.707C172.93 142.672 171.718 143.034 170.707 143.741C169.695 144.448 168.939 145.462 168.548 146.632C165.637 154.332 162.83 161.952 160.126 169.492C157.376 177.191 155.118 185.058 153.367 193.044C152.954 194.862 152.745 196.721 152.743 198.585C152.757 200.481 153.337 202.33 154.407 203.896C154.68 204.276 154.851 204.719 154.906 205.184C154.96 205.648 154.896 206.119 154.719 206.552C154.576 207.016 154.32 207.437 153.976 207.78C153.631 208.122 153.208 208.374 152.743 208.514C152.352 208.69 151.924 208.769 151.496 208.745C149.969 208.745 148.999 207.745 148.584 205.745C147.889 202.628 147.889 199.395 148.584 196.278C149.275 190.889 150.388 185.562 151.912 180.346C153.436 175.111 155.1 169.955 156.903 164.876C158.011 161.488 159.224 158.217 160.542 155.062C161.86 151.907 163.142 148.713 164.389 145.48C164.604 144.916 164.778 144.337 164.909 143.748C164.977 143.366 164.457 143.171 163.349 143.171C158.358 143.326 153.367 143.595 148.376 143.979C143.36 144.37 138.405 145.339 133.611 146.865C133.005 147.046 132.372 147.124 131.74 147.096C131.182 147.088 130.641 146.906 130.193 146.575C129.745 146.243 129.411 145.78 129.24 145.249C129.022 144.791 128.927 144.284 128.963 143.779C129 143.273 129.167 142.785 129.448 142.363C130.068 141.619 130.851 141.026 131.736 140.631C137.003 138.322 142.236 135.936 147.436 133.473C152.636 131.01 157.939 128.701 163.344 126.546C167.094 125.181 170.501 123.014 173.326 120.196C176.245 117.062 178.571 113.424 180.189 109.459C186.374 94.9571 193.286 80.7765 200.9 66.971C208.455 53.2723 216.461 39.88 224.919 26.794C225.335 26.0247 225.89 25.101 226.583 24.023C213.106 26.6427 200.1 31.2741 188 37.762C175.657 44.2268 164.048 52.0053 153.375 60.962C152.544 61.735 151.744 62.427 150.984 63.041C150.18 63.7155 149.57 64.5918 149.216 65.58C148.986 66.111 148.61 66.5661 148.132 66.8931C147.655 67.22 147.094 67.4054 146.516 67.428C146.087 67.4543 145.659 67.375 145.268 67.197C143.325 66.4277 142.492 64.8883 142.768 62.579C142.884 61.7081 143.204 60.8771 143.703 60.154C144.214 59.4332 144.807 58.7747 145.471 58.192C148.583 54.8711 152.074 51.9261 155.871 49.417C166.732 41.3256 178.365 34.3251 190.6 28.517C202.659 22.8553 215.371 18.7058 228.448 16.163C229.958 15.4003 231.568 14.8562 233.231 14.547C234.808 14.2476 236.409 14.093 238.014 14.085C239.954 14.085 241.895 14.162 243.837 14.316C245.779 14.47 247.72 14.547 249.659 14.547C254.837 14.5524 259.998 15.1333 265.048 16.279C270.2 17.4456 274.986 19.8643 278.981 23.321C281.743 25.7081 283.765 28.8349 284.806 32.334ZM398.038 143.746C398.251 143.274 398.287 142.742 398.138 142.246C397.614 142.534 397.125 142.883 396.682 143.285C396.241 143.689 395.752 144.038 395.226 144.324C391.343 147.557 387.496 150.791 383.685 154.024C379.874 157.257 376.027 160.567 372.143 163.953C362.298 172.266 352.559 180.578 342.925 188.891C333.291 197.204 323.9 205.977 314.751 215.21C311.7 218.288 307.956 222.175 303.521 226.871C299.086 231.567 294.752 236.608 290.521 241.995C286.413 247.208 282.595 252.642 279.083 258.274C276.009 262.941 273.856 268.153 272.741 273.629C271.493 280.246 273.434 283.555 278.564 283.558H279.915C280.595 283.514 281.262 283.358 281.891 283.096C285.886 282.334 289.72 280.889 293.224 278.824C296.773 276.736 300.209 274.463 303.518 272.013C313.596 264.482 322.834 255.889 331.073 246.382C340.153 236.044 348.658 225.214 356.547 213.941C364.586 202.471 372.072 190.733 379.007 178.728C385.942 166.723 392.042 155.408 397.307 144.785C397.591 144.469 397.837 144.12 398.038 143.746ZM449.3 105.07C448.744 105.532 448.225 105.957 447.74 106.34C447.249 106.728 446.728 107.076 446.181 107.379C441.785 109.816 437.517 112.475 433.391 115.345C429.3 118.195 425.315 121.235 421.434 124.466C419.907 125.7 418.347 126.931 416.755 128.16C415.158 129.392 413.451 130.475 411.655 131.393C410.291 132.295 409.094 133.428 408.12 134.741C407.135 136.071 406.297 137.503 405.62 139.013C398.553 153.022 391.102 166.645 383.265 179.882C375.428 193.119 366.94 205.972 357.8 218.443C355.305 221.827 352.22 225.906 348.546 230.681C344.872 235.456 340.817 240.42 336.381 245.574C331.942 250.73 327.228 255.887 322.239 261.045C317.54 265.933 312.54 270.521 307.267 274.783C302.649 278.54 297.669 281.829 292.4 284.6C288.094 286.977 283.28 288.283 278.363 288.41C274.756 288.255 272.053 287.062 270.252 284.831C268.451 282.6 267.758 279.483 268.173 275.479C268.563 271.57 269.581 267.75 271.188 264.165C272.78 260.622 274.547 257.159 276.488 253.774C282.372 244.207 289.124 235.202 296.66 226.874C304.699 217.869 313.259 209.094 322.342 200.551C331.425 192.008 340.575 183.888 349.793 176.191C359.011 168.492 367.433 161.488 375.059 155.179C379.079 151.795 383.169 148.447 387.329 145.134C391.489 141.821 395.648 138.473 399.806 135.09C400.914 134.015 401.989 132.899 403.03 131.742C404.137 130.479 405.016 129.033 405.63 127.47C407.43 123.314 409.197 119.158 410.93 115.002C412.663 110.846 414.292 106.613 415.817 102.302C416.233 101.072 416.614 99.8407 416.961 98.608C417.308 97.3753 417.62 96.1437 417.897 94.913C418.312 92.297 417.412 90.4497 415.197 89.371C414.198 89.0145 413.138 88.8579 412.078 88.91C409.166 88.91 405.388 89.872 400.744 91.796C396.1 93.72 391.04 96.1443 385.563 99.069C380.085 101.995 374.47 105.305 368.719 108.998C362.968 112.691 357.457 116.309 352.186 119.851C346.919 123.394 342.136 126.703 337.837 129.779C333.538 132.855 330.141 135.318 327.647 137.168C320.297 142.558 312.984 147.907 305.708 153.216C298.432 158.525 290.911 163.566 283.145 168.34C280.509 169.877 277.909 171.301 275.345 172.612C272.746 173.93 269.984 174.901 267.131 175.498C266.241 175.669 265.337 175.746 264.431 175.729C259.577 175.729 257.29 172.65 257.569 166.493C257.854 162.184 258.911 157.96 260.688 154.024C262.694 149.272 264.986 144.646 267.551 140.17C270.183 135.552 272.921 131.203 275.765 127.124C278.609 123.045 281.07 119.62 283.148 116.849C296.207 99.7183 310.824 83.8341 326.813 69.4C342.518 55.2859 359.665 42.8641 377.97 32.34C380.881 30.648 384.104 28.9163 387.64 27.145C391.22 25.3562 394.9 23.7759 398.662 22.412C402.377 21.0545 406.162 19.8965 410 18.943C413.467 18.0554 417.028 17.5903 420.606 17.558C424.618 17.4202 428.553 18.6858 431.732 21.137C434.711 23.525 436.478 27.3347 437.032 32.566C437.313 35.5771 437.137 38.6132 436.512 41.572C435.89 44.4885 435.02 47.3465 433.912 50.115C432.269 54.3838 430.215 58.4824 427.778 62.353C425.35 66.2017 423.097 70.127 421.019 74.129C420.788 74.6598 420.413 75.1147 419.935 75.4415C419.457 75.7682 418.897 75.9535 418.319 75.976C416.1 75.976 414.991 74.5137 414.992 71.589C415.089 70.51 415.37 69.4556 415.824 68.472C416.295 67.5367 416.852 66.6476 417.488 65.816C419.012 62.894 420.606 60.0847 422.271 57.388C423.982 54.6045 425.511 51.7123 426.846 48.73C427.78 46.6676 428.579 44.5464 429.237 42.38C429.871 40.2379 430.255 38.0295 430.381 35.799C431.073 28.565 428.023 24.7937 421.231 24.485C417.437 24.4731 413.659 24.9777 410.001 25.985C406.394 26.985 402.72 28.178 398.979 29.564C386.876 34.2524 375.304 40.2121 364.459 47.343C352.629 55.0253 341.37 63.5526 330.77 72.858C320.004 82.2745 309.859 92.3786 300.4 103.107C291.423 113.213 283.22 123.98 275.861 135.318C274.613 137.318 273.261 139.589 271.806 142.13C270.351 144.671 268.964 147.288 267.647 149.98C266.342 152.643 265.196 155.381 264.216 158.18C263.302 160.733 262.606 163.36 262.136 166.031C261.72 169.415 262.69 171.108 265.047 171.111C267.404 171.114 270.281 170.229 273.678 168.456C277.073 166.684 279.811 165.184 281.892 163.956C289.613 159.367 297.076 154.356 304.247 148.947C311.386 143.561 318.63 138.173 325.979 132.784C335.961 125.55 345.873 118.469 355.716 111.541C365.611 104.581 375.889 98.1806 386.5 92.37C389.967 90.678 393.433 89.0233 396.9 87.406C400.289 85.8158 403.847 84.6151 407.506 83.827C408.227 83.6708 408.955 83.555 409.689 83.48C410.45 83.405 411.249 83.365 412.081 83.365C412.987 83.3479 413.891 83.4253 414.781 83.596C416.159 83.7438 417.485 84.2058 418.657 84.9464C419.829 85.687 420.815 86.6865 421.54 87.868C423.02 90.4159 423.431 93.4458 422.684 96.296C421.889 100.476 420.706 104.573 419.148 108.533C417.621 112.383 416.027 116.308 414.365 120.309C414.086 120.926 413.845 121.509 413.637 122.041C413.429 122.573 413.186 123.16 412.91 123.773C416.237 121.619 419.495 119.425 422.684 117.192C425.873 114.959 429.131 112.765 432.458 110.612C433.48 109.841 434.558 109.147 435.681 108.533C437.273 107.61 438.973 106.686 440.781 105.763C442.589 104.84 444.289 103.993 445.881 103.223C446.879 102.651 447.97 102.26 449.104 102.068C449.331 102.041 449.561 102.096 449.752 102.223C449.942 102.35 450.081 102.541 450.144 102.761C450.56 103.533 450.28 104.301 449.312 105.07H449.3ZM574.7 52.078C574.836 53.5749 574.836 55.0811 574.7 56.578C574.153 62.9855 573.18 69.3496 571.788 75.628C570.401 81.862 568.946 88.2117 567.421 94.677C564.37 108.687 561.666 122.695 559.311 136.702C556.956 150.709 554.807 164.871 552.864 179.188C552.448 182.727 552.102 186.306 551.825 189.925C551.551 193.602 551.831 197.299 552.656 200.893C552.759 201.228 552.793 201.581 552.753 201.929C552.714 202.278 552.603 202.614 552.427 202.918C552.251 203.221 552.015 203.485 551.732 203.693C551.45 203.901 551.127 204.048 550.785 204.125C550.442 204.166 550.094 204.139 549.762 204.045C549.429 203.951 549.118 203.793 548.848 203.578C548.577 203.363 548.351 203.097 548.184 202.794C548.017 202.492 547.911 202.159 547.873 201.816C547.597 200.446 547.423 199.056 547.353 197.66C547.282 196.274 547.249 194.889 547.253 193.504C547.655 184.839 548.557 176.204 549.953 167.643C551.337 159.176 552.654 150.633 553.904 142.012C555.704 130.16 557.888 118.46 560.455 106.912C563.022 95.364 565.483 83.819 567.837 72.277C568.39 69.8163 568.84 67.3917 569.189 65.003C569.538 62.6143 569.78 60.19 569.917 57.73C570.217 56.4114 570.071 55.0304 569.501 53.804C568.428 54.2425 567.442 54.8683 566.589 55.652C565.758 56.424 564.925 57.2707 564.089 58.192C556.332 65.8803 549.074 74.0552 542.357 82.667C535.631 91.2897 529.15 100.218 522.914 109.452C521.386 111.761 519.861 113.995 518.338 116.152C516.733 118.407 514.996 120.566 513.138 122.617C512.555 123.129 511.829 123.452 511.058 123.541C510.667 123.551 510.281 123.461 509.935 123.279C509.589 123.097 509.295 122.829 509.082 122.502C508.59 121.791 508.336 120.942 508.355 120.078C508.349 117.838 508.488 115.6 508.77 113.378C509.047 111.224 509.325 109.069 509.602 106.913C510.571 100.758 511.819 94.755 513.346 88.903C514.873 83.051 516.328 77.1243 517.713 71.123C517.989 70.355 518.231 69.5853 518.44 68.814C518.652 67.9055 518.686 66.9644 518.54 66.043C517.618 66.7625 516.812 67.6192 516.149 68.583C515.55 69.4745 514.89 70.3232 514.173 71.123C504.884 82.979 495.873 94.9477 487.139 107.029C478.405 119.11 469.812 131.388 461.36 143.862C458.585 148.173 455.743 152.368 452.834 156.446C449.925 160.524 447.014 164.642 444.1 168.8C443.466 169.494 442.875 170.227 442.332 170.994C441.786 171.759 441.196 172.491 440.565 173.187C440.192 173.665 439.72 174.057 439.182 174.336C438.643 174.615 438.051 174.774 437.445 174.803C436.855 174.832 436.272 174.671 435.782 174.342C434.394 173.418 433.909 171.802 434.326 169.493C434.602 168.569 434.845 167.645 435.054 166.722C435.248 165.836 435.563 164.982 435.99 164.182C437.771 159.301 439.819 154.522 442.124 149.866C444.412 145.248 446.734 140.63 449.091 136.012C457.824 119.235 466.87 102.726 476.229 86.483C485.588 70.2403 495.604 54.4237 506.279 39.033C507.797 36.7323 509.464 34.5339 511.27 32.452C513.069 30.3777 514.605 28.0898 515.845 25.64C517.006 23.4563 518.399 21.4044 520 19.52C521.524 17.7533 523.118 16.0217 524.783 14.325C525.04 14.0355 525.318 13.7654 525.615 13.517C525.911 13.2673 526.189 12.9974 526.447 12.709C527.133 12.0954 528.027 11.7652 528.947 11.785C529.34 11.7777 529.73 11.8566 530.09 12.0163C530.449 12.1759 530.769 12.4124 531.027 12.709C531.815 13.3896 532.302 14.355 532.38 15.3936C532.458 16.4321 532.121 17.4593 531.443 18.25C530.611 19.484 529.778 20.6387 528.943 21.714C528.051 22.8596 527.078 23.9401 526.032 24.947C523.27 27.5502 520.763 30.4108 518.545 33.49C516.326 36.5713 514.108 39.65 511.891 42.726C499.966 59.968 488.666 77.555 477.991 95.487C467.316 113.419 457.405 132.007 448.259 151.25C447.98 151.712 447.703 152.214 447.427 152.75C447.119 153.439 446.976 154.19 447.011 154.944C447.98 153.714 448.847 152.521 449.611 151.365C450.375 150.209 451.103 149.093 451.794 148.017C460.805 134.473 469.886 121.158 479.037 108.071C488.188 94.9843 497.755 82.2077 507.737 69.741C508.984 68.2037 510.266 66.6643 511.584 65.123C512.875 63.6098 514.302 62.2184 515.847 60.966C516.288 60.3742 516.85 59.8829 517.495 59.5246C518.14 59.1664 518.855 58.9494 519.59 58.888C520.344 58.8619 521.082 59.1078 521.67 59.581C522.172 59.8879 522.594 60.3096 522.901 60.8113C523.208 61.313 523.392 61.8805 523.437 62.467C523.502 63.6688 523.397 64.8736 523.125 66.046C522.585 69.3652 521.821 72.6441 520.838 75.86C519.866 79.0173 518.896 82.2113 517.927 85.442C516.399 90.37 515.116 95.296 514.079 100.22C513.042 105.144 512.245 110.147 511.688 115.229C511.535 115.757 511.431 116.298 511.376 116.845C511.317 117.552 511.424 118.264 511.688 118.923C512.24 118.155 512.76 117.462 513.248 116.845C513.758 116.193 514.21 115.498 514.599 114.767C520.422 105.531 526.418 96.4873 532.587 87.636C538.772 78.7639 545.546 70.3169 552.863 62.352L556.295 58.542C557.75 56.926 559.31 55.3097 560.974 53.693C562.501 52.1918 564.134 50.8028 565.861 49.537C567.006 48.562 568.42 47.958 569.916 47.805C570.795 47.8166 571.656 48.0554 572.416 48.498C573.049 48.8759 573.585 49.3964 573.981 50.0179C574.378 50.6393 574.624 51.3447 574.7 52.078ZM694.9 34.76C692.82 31.76 689.423 30.26 684.71 30.26C683.707 30.209 682.707 30.4076 681.799 30.838C681.103 31.224 680.618 32.186 680.343 33.724C679.927 36.0327 678.61 37.187 676.392 37.187C675.755 37.17 675.137 36.9632 674.618 36.5929C674.1 36.2227 673.703 35.706 673.48 35.109C673.065 34.034 672.649 33.493 672.233 33.493C671.94 33.4976 671.654 33.5771 671.401 33.724C671.121 33.879 670.845 34.034 670.569 34.186C665.433 36.7808 660.588 39.9155 656.116 43.537C651.898 46.9893 648.001 50.8148 644.47 54.967C640.84 59.2531 637.538 63.807 634.593 68.59C631.541 73.5193 628.491 78.7527 625.442 84.29C625.195 85.036 625.054 85.8135 625.026 86.599C624.887 89.369 623.709 90.7543 621.491 90.755C620.402 90.4647 619.469 89.7603 618.891 88.792C618.253 87.7141 618.066 86.4279 618.371 85.213C618.719 83.6803 619.432 82.2544 620.45 81.057C624.054 75.515 627.659 70.2043 631.264 65.125C634.777 60.1576 638.597 55.415 642.702 50.925C646.729 46.5308 651.147 42.5119 655.902 38.918C660.891 35.1827 666.3 32.0443 672.019 29.567C672.856 29.1763 673.591 28.598 674.168 27.8771C674.745 27.1562 675.148 26.312 675.346 25.41C675.347 24.9406 675.417 24.4739 675.554 24.025C675.627 23.8317 675.647 23.6221 675.61 23.4187C675.573 23.2153 675.482 23.0256 675.346 22.87C674.085 22.9413 672.849 23.255 671.707 23.794C670.207 24.4334 668.748 25.1661 667.34 25.988C665.884 26.836 664.463 27.721 663.077 28.643C661.691 29.565 660.512 30.3347 659.541 30.952C627.376 54.966 603.669 86.9076 588.42 126.777C586.092 132.992 584.181 139.356 582.701 145.826C581.222 152.39 580.352 159.076 580.101 165.799C580.056 169.62 580.546 173.429 581.557 177.114C583.081 180.808 585.23 182.655 588.003 182.655C589.744 182.665 591.471 182.352 593.098 181.732C594.722 181.1 596.287 180.327 597.777 179.423C604.354 175.65 610.492 171.159 616.077 166.03C623.414 159.486 630.391 152.548 636.977 145.249C644.116 137.398 651.116 128.97 657.977 119.965C664.838 110.96 671.042 102.032 676.589 93.18C681.737 85.0586 686.358 76.6145 690.422 67.9C694.094 59.9 696.278 53.0497 696.973 47.349C697.665 41.9597 696.972 37.7633 694.893 34.76H694.9ZM685.542 26.332C691.085 26.332 695.244 28.332 698.019 32.332C700.794 36.332 701.694 41.72 700.719 48.496C699.83 55.1952 697.974 61.73 695.208 67.896C692.169 74.9344 688.661 81.761 684.708 88.33C680.685 95.0273 676.492 101.416 672.127 107.495C667.762 113.574 663.846 118.847 660.377 123.312C658.298 125.931 655.56 129.356 652.163 133.587C648.766 137.818 644.918 142.321 640.621 147.095C636.322 151.868 631.817 156.678 627.104 161.527C622.623 166.158 617.903 170.551 612.963 174.688C608.719 178.283 604.16 181.491 599.342 184.271C594.975 186.731 591.059 187.962 587.592 187.965C586.335 188.034 585.078 187.845 583.897 187.408C582.717 186.971 581.639 186.296 580.73 185.425C579.024 183.659 577.743 181.527 576.986 179.191C576.129 176.608 575.571 173.935 575.323 171.225C575.043 168.374 574.904 165.795 574.907 163.489C575.212 156.803 576.115 150.157 577.607 143.632C579.177 136.712 581.262 129.92 583.846 123.312C599.235 83.4453 623.011 50.965 655.175 25.871C659.878 22.1947 665.054 19.1675 670.564 16.871C671.256 16.5637 671.949 16.2943 672.644 16.063C673.327 15.8351 674.021 15.6425 674.723 15.486C675.004 15.4865 675.285 15.4475 675.555 15.37C675.826 15.2943 676.106 15.2556 676.387 15.255C677.271 15.2207 678.149 15.4025 678.946 15.7847C679.743 16.1668 680.435 16.7378 680.962 17.448C681.528 18.2617 681.913 19.187 682.092 20.1618C682.271 21.1365 682.24 22.1383 682 23.1C681.86 24.486 681.964 25.3713 682.312 25.756C683.007 26.2437 683.862 26.4499 684.703 26.333H685.535L685.542 26.332ZM807.298 27.717C807.226 28.8085 807.052 29.8909 806.778 30.95C805.97 33.9657 804.891 36.9023 803.555 39.724C802.236 42.4947 801.023 45.3427 799.916 48.268C795.617 58.428 791.389 68.549 787.231 78.631C783.034 88.8244 779.492 99.2749 776.625 109.919C773.297 121.926 770.316 133.972 767.683 146.055C765.05 158.138 762.831 170.415 761.028 182.884C760.621 185.408 760.343 187.952 760.196 190.504C760.061 193.052 760.201 195.606 760.612 198.124C760.883 198.785 760.918 199.518 760.712 200.202C760.587 200.522 760.374 200.799 760.098 201.004C759.822 201.208 759.494 201.33 759.152 201.356C758.834 201.461 758.492 201.462 758.174 201.358C757.856 201.254 757.579 201.051 757.385 200.779C757.014 200.18 756.767 199.512 756.657 198.816C756.242 195.987 756.172 193.119 756.449 190.273C756.725 187.502 757.002 184.731 757.281 181.96C763.305 139 775.128 97.0556 792.425 57.273C793.949 53.7337 795.405 50.1163 796.792 46.421C798.179 42.7257 799.635 39.031 801.16 35.337C801.849 33.8137 802.204 32.1601 802.199 30.488C801.499 31.105 800.848 31.722 800.224 32.335C799.6 32.948 798.94 33.569 798.248 34.183C789.93 43.419 781.924 52.8473 774.229 62.468C766.534 72.0887 758.805 81.7483 751.042 91.447C740.365 104.994 730.314 119.002 720.888 133.471C711.462 147.94 702.589 162.871 694.27 178.266C693.99 178.879 693.542 179.727 692.918 180.806C692.294 181.885 691.599 182.96 690.839 184.039C690.151 185.021 689.386 185.948 688.551 186.809C688.281 187.136 687.949 187.406 687.574 187.604C687.199 187.803 686.789 187.925 686.367 187.964C685.869 187.856 685.381 187.701 684.912 187.502C684.383 187.313 683.922 186.97 683.588 186.518C683.255 186.065 683.064 185.524 683.04 184.962C683.039 183.881 683.109 182.802 683.248 181.73C683.524 180.496 683.836 179.263 684.184 178.03C684.532 176.797 684.913 175.566 685.328 174.336C688.748 163.676 692.704 153.196 697.181 142.936C701.617 132.776 706.192 122.616 710.906 112.457C718.393 96.755 726.122 81.3613 734.094 66.276C742.066 51.1907 750.28 36.182 758.736 21.25C759.217 20.6468 759.539 19.9322 759.672 19.172C759.739 18.5593 759.219 17.8667 758.113 17.094C757.658 16.8999 757.27 16.5788 756.993 16.1693C756.716 15.7598 756.564 15.2791 756.553 14.785C756.492 13.6608 756.744 12.5417 757.281 11.552C757.815 10.425 758.44 9.34397 759.152 8.32001C760.004 7.06327 760.942 5.86737 761.96 4.741C762.958 3.62469 764.074 2.61891 765.287 1.741C766.204 0.993545 767.33 0.549719 768.51 0.471008C769.067 0.475252 769.616 0.601424 770.12 0.840698C770.623 1.07997 771.067 1.42652 771.422 1.85599C771.799 2.16595 772.105 2.55295 772.321 2.99103C772.536 3.4291 772.655 3.90813 772.67 4.396C772.657 5.40944 772.517 6.41728 772.254 7.396C771.841 8.61725 771.355 9.81244 770.798 10.975C770.242 12.129 769.618 13.322 768.926 14.554C763.935 23.79 758.771 32.9107 753.434 41.916C748.097 50.9213 742.931 60.0427 737.938 69.28C729.064 85.7533 720.642 102.34 712.671 119.039C704.573 136.051 697.456 153.513 691.355 171.339C691.008 172.464 690.799 173.627 690.732 174.802C701.406 155.562 712.773 137.167 724.832 119.617C736.891 102.067 749.647 84.903 763.1 68.125C767.952 61.9703 772.804 55.89 777.657 49.884C782.51 43.878 787.57 38.0283 792.838 32.335C793.946 31.105 795.09 29.912 796.27 28.756C797.451 27.5981 798.739 26.5544 800.117 25.639C801.123 24.7831 802.347 24.2236 803.652 24.023C804.504 24.0322 805.321 24.3621 805.94 24.947C806.382 25.2555 806.739 25.6719 806.975 26.1566C807.212 26.6414 807.32 27.1785 807.291 27.717H807.298Z"/>
</mask>
<path fill-rule="evenodd" clip-rule="evenodd" d="M40.666 134.048C41.0813 132.894 41.5663 131.701 42.121 130.469L41.705 130.007C38.7937 131.241 35.917 132.55 33.075 133.933C30.233 135.316 27.4257 136.625 24.653 137.858C26.8252 138.164 29.0118 138.357 31.204 138.435C33.3507 138.515 35.534 138.554 37.754 138.551C38.0459 138.501 38.325 138.394 38.575 138.236C38.825 138.077 39.0409 137.87 39.21 137.627C39.762 136.397 40.2473 135.204 40.666 134.048ZM147.139 29.334C145.464 27.6987 143.486 26.4047 141.317 25.524C138.959 24.524 136.525 23.7131 134.038 23.099C131.578 22.4906 129.075 22.0661 126.552 21.829C124.056 21.599 121.838 21.4837 119.897 21.483C117.956 21.4823 116.085 21.5593 114.282 21.714C112.482 21.8693 110.61 22.0233 108.667 22.176C108.223 22.2762 107.807 22.473 107.447 22.7523C107.088 23.0316 106.795 23.3865 106.588 23.792C99.238 34.7253 92.1327 45.7317 85.272 56.811C78.4113 67.8903 71.93 79.3587 65.828 91.216C63.6093 95.372 61.53 99.5667 59.59 103.8C57.6379 108.058 55.9024 112.412 54.39 116.846C58.2693 114.999 63.1563 112.499 69.051 109.346C74.9457 106.193 81.219 102.614 87.871 98.609C94.525 94.609 101.318 90.2987 108.251 85.678C114.896 81.275 121.284 76.4951 127.383 71.362C132.798 66.8434 137.808 61.8601 142.355 56.469C146.515 51.469 149.219 46.6583 150.466 42.037C151.713 36.8063 150.603 32.573 147.138 29.337L147.139 29.334ZM156.29 32.334C157.26 35.9651 157.26 39.7869 156.29 43.418C154.902 48.808 151.956 54.1957 147.451 59.581C142.559 65.357 137.204 70.7241 131.439 75.629C125.01 81.1337 118.238 86.2237 111.163 90.868C103.813 95.7173 96.569 100.259 89.431 104.492C82.293 108.725 75.5347 112.535 69.156 115.921C62.7767 119.309 57.439 122.08 53.143 124.234C51.693 124.952 50.3608 125.886 49.192 127.005C47.9951 128.228 47.134 129.739 46.692 131.392C46.071 133.071 45.3058 134.694 44.405 136.241C43.849 137.626 44.265 138.318 45.653 138.319C47.0341 138.166 48.4225 138.089 49.812 138.088H53.971C56.187 138.088 58.3703 138.126 60.521 138.203C62.6717 138.28 64.9247 138.395 67.28 138.55C75.7353 139.012 84.123 139.551 92.443 140.166C100.869 140.801 109.221 142.192 117.398 144.322C118.645 144.633 119.998 145.015 121.453 145.477C122.903 145.938 124.298 146.557 125.612 147.324C126.891 148.066 128.048 149.001 129.043 150.095C130.016 151.183 130.601 152.564 130.707 154.02C130.907 154.701 130.848 155.432 130.541 156.072C130.233 156.712 129.7 157.215 129.043 157.484C128.412 157.491 127.783 157.413 127.172 157.253C126.857 157.119 126.589 156.893 126.404 156.605C126.218 156.317 126.123 155.98 126.132 155.637C125.749 154.186 124.863 152.917 123.632 152.058C122.457 151.335 121.2 150.754 119.889 150.326C114.568 148.413 109.062 147.059 103.461 146.285C96.9417 145.285 90.1483 144.554 83.081 144.091C76.0137 143.628 69.1533 143.282 62.5 143.053C55.8453 142.822 50.2307 142.707 45.656 142.707C44.4227 142.672 43.2108 143.034 42.1996 143.741C41.1884 144.448 40.4315 145.462 40.041 146.632C37.129 154.332 34.3213 161.952 31.618 169.492C28.8681 177.191 26.6109 185.058 24.86 193.044C24.4472 194.862 24.238 196.721 24.236 198.585C24.2491 200.483 24.8285 202.334 25.9 203.9C26.1721 204.28 26.3435 204.723 26.398 205.188C26.4526 205.652 26.3886 206.123 26.212 206.556C26.0685 207.02 25.8132 207.441 25.4687 207.783C25.1241 208.125 24.7008 208.378 24.236 208.518C23.8445 208.694 23.4165 208.773 22.988 208.749C21.4607 208.749 20.4903 207.749 20.077 205.749C19.3819 202.632 19.3819 199.399 20.077 196.282C20.7684 190.893 21.8808 185.566 23.404 180.35C24.928 175.115 26.5917 169.959 28.395 164.88C29.503 161.492 30.716 158.221 32.034 155.066C33.352 151.911 34.6347 148.717 35.882 145.484C36.0975 144.92 36.271 144.341 36.401 143.752C36.47 143.37 35.95 143.175 34.842 143.175C29.8513 143.33 24.8603 143.599 19.869 143.983C14.8528 144.374 9.89838 145.343 5.104 146.869C4.4972 147.05 3.86451 147.128 3.232 147.1C2.67441 147.092 2.13322 146.91 1.68471 146.579C1.2362 146.248 0.902973 145.784 0.732005 145.253C0.513826 144.795 0.418292 144.288 0.454753 143.783C0.491214 143.277 0.658421 142.789 0.940005 142.367C1.56004 141.623 2.34238 141.03 3.227 140.635C8.49367 138.326 13.727 135.94 18.927 133.477C24.127 131.014 29.43 128.705 34.836 126.55C38.5858 125.185 41.9924 123.018 44.818 120.2C47.7368 117.066 50.0619 113.428 51.68 109.463C57.8588 94.9622 64.7649 80.7822 72.372 66.977C79.9273 53.2783 87.9337 39.886 96.391 26.8C96.807 26.031 97.359 25.108 98.055 24.029C84.5804 26.6492 71.5763 31.2806 59.479 37.768C47.136 44.2326 35.527 52.011 24.854 60.968C24.022 61.7413 23.2247 62.4343 22.462 63.047C21.6585 63.7219 21.0487 64.5981 20.695 65.586C20.4644 66.1168 20.0887 66.5719 19.6111 66.8988C19.1335 67.2257 18.5733 67.4112 17.995 67.434C17.5667 67.4602 17.1385 67.3809 16.748 67.203C14.804 66.4337 13.9707 64.8943 14.248 62.585C14.3639 61.714 14.6847 60.883 15.184 60.16C15.6941 59.4387 16.2875 58.7802 16.952 58.198C20.0641 54.8769 23.5545 51.9318 27.352 49.423C38.2131 41.3316 49.8458 34.3311 62.081 28.523C74.1398 22.8614 86.8522 18.712 99.929 16.169C101.439 15.4064 103.049 14.8623 104.712 14.553C106.289 14.2537 107.89 14.0991 109.495 14.091C111.435 14.091 113.376 14.168 115.318 14.322C117.26 14.476 119.201 14.553 121.141 14.553C126.319 14.5585 131.48 15.1394 136.53 16.285C141.682 17.4518 146.468 19.8705 150.463 23.327C153.225 25.7124 155.247 28.837 156.29 32.334ZM169.182 134.047C169.598 132.893 170.083 131.7 170.638 130.468L170.222 130.006C167.31 131.24 164.433 132.549 161.592 133.932C158.751 135.315 155.943 136.624 153.169 137.857C155.341 138.163 157.528 138.356 159.72 138.434C161.868 138.514 164.052 138.553 166.271 138.55C166.563 138.501 166.842 138.393 167.092 138.235C167.341 138.076 167.557 137.869 167.726 137.626C168.279 136.397 168.765 135.203 169.182 134.047ZM275.656 29.334C273.98 27.6985 272.003 26.4044 269.833 25.524C267.475 24.5242 265.041 23.7133 262.555 23.099C260.094 22.4906 257.592 22.0661 255.068 21.829C252.573 21.599 250.355 21.4837 248.414 21.483C246.473 21.4823 244.602 21.5593 242.799 21.714C240.995 21.8693 239.123 22.0233 237.184 22.176C236.74 22.2761 236.323 22.4728 235.964 22.7521C235.604 23.0314 235.311 23.3864 235.104 23.792C227.754 34.7253 220.649 45.7317 213.789 56.811C206.929 67.8903 200.448 79.3587 194.345 91.216C192.126 95.372 190.046 99.5667 188.106 103.8C186.154 108.058 184.418 112.412 182.906 116.846C186.786 114.999 191.673 112.499 197.567 109.346C203.461 106.193 209.734 102.614 216.387 98.609C223.042 94.609 229.836 90.2987 236.767 85.678C243.413 81.2739 249.801 76.4928 255.9 71.358C261.316 66.8397 266.326 61.8564 270.873 56.465C275.032 51.465 277.735 46.6543 278.983 42.033C280.231 36.8023 279.122 32.569 275.656 29.333V29.334ZM284.806 32.334C285.776 35.9651 285.776 39.7869 284.806 43.418C283.419 48.808 280.473 54.1957 275.968 59.581C271.075 65.3567 265.72 70.7239 259.955 75.629C253.527 81.1339 246.754 86.2239 239.679 90.868C232.329 95.7173 225.085 100.259 217.948 104.492C210.811 108.725 204.052 112.535 197.672 115.921C191.291 119.307 185.953 122.078 181.659 124.235C180.209 124.953 178.877 125.887 177.708 127.006C176.511 128.229 175.65 129.74 175.208 131.393C174.587 133.072 173.821 134.695 172.92 136.242C172.365 137.627 172.781 138.319 174.168 138.32C175.549 138.167 176.937 138.09 178.327 138.089H182.486C184.702 138.089 186.886 138.127 189.037 138.204C191.188 138.281 193.441 138.396 195.796 138.551C204.25 139.013 212.637 139.552 220.958 140.167C229.384 140.802 237.736 142.193 245.913 144.323C247.161 144.634 248.513 145.016 249.968 145.478C251.418 145.939 252.813 146.558 254.127 147.325C255.406 148.067 256.564 149.002 257.559 150.096C258.532 151.184 259.117 152.565 259.222 154.021C259.423 154.702 259.364 155.433 259.056 156.073C258.749 156.713 258.216 157.216 257.559 157.485C256.927 157.492 256.298 157.414 255.687 157.254C255.372 157.12 255.104 156.894 254.919 156.606C254.733 156.318 254.639 155.981 254.647 155.638C254.264 154.186 253.378 152.918 252.147 152.059C250.972 151.336 249.715 150.755 248.404 150.327C243.083 148.414 237.577 147.06 231.975 146.286C225.457 145.286 218.664 144.555 211.595 144.092C204.526 143.629 197.664 143.283 191.008 143.053C184.353 142.822 178.738 142.707 174.163 142.707C172.93 142.672 171.718 143.034 170.707 143.741C169.695 144.448 168.939 145.462 168.548 146.632C165.637 154.332 162.83 161.952 160.126 169.492C157.376 177.191 155.118 185.058 153.367 193.044C152.954 194.862 152.745 196.721 152.743 198.585C152.757 200.481 153.337 202.33 154.407 203.896C154.68 204.276 154.851 204.719 154.906 205.184C154.96 205.648 154.896 206.119 154.719 206.552C154.576 207.016 154.32 207.437 153.976 207.78C153.631 208.122 153.208 208.374 152.743 208.514C152.352 208.69 151.924 208.769 151.496 208.745C149.969 208.745 148.999 207.745 148.584 205.745C147.889 202.628 147.889 199.395 148.584 196.278C149.275 190.889 150.388 185.562 151.912 180.346C153.436 175.111 155.1 169.955 156.903 164.876C158.011 161.488 159.224 158.217 160.542 155.062C161.86 151.907 163.142 148.713 164.389 145.48C164.604 144.916 164.778 144.337 164.909 143.748C164.977 143.366 164.457 143.171 163.349 143.171C158.358 143.326 153.367 143.595 148.376 143.979C143.36 144.37 138.405 145.339 133.611 146.865C133.005 147.046 132.372 147.124 131.74 147.096C131.182 147.088 130.641 146.906 130.193 146.575C129.745 146.243 129.411 145.78 129.24 145.249C129.022 144.791 128.927 144.284 128.963 143.779C129 143.273 129.167 142.785 129.448 142.363C130.068 141.619 130.851 141.026 131.736 140.631C137.003 138.322 142.236 135.936 147.436 133.473C152.636 131.01 157.939 128.701 163.344 126.546C167.094 125.181 170.501 123.014 173.326 120.196C176.245 117.062 178.571 113.424 180.189 109.459C186.374 94.9571 193.286 80.7765 200.9 66.971C208.455 53.2723 216.461 39.88 224.919 26.794C225.335 26.0247 225.89 25.101 226.583 24.023C213.106 26.6427 200.1 31.2741 188 37.762C175.657 44.2268 164.048 52.0053 153.375 60.962C152.544 61.735 151.744 62.427 150.984 63.041C150.18 63.7155 149.57 64.5918 149.216 65.58C148.986 66.111 148.61 66.5661 148.132 66.8931C147.655 67.22 147.094 67.4054 146.516 67.428C146.087 67.4543 145.659 67.375 145.268 67.197C143.325 66.4277 142.492 64.8883 142.768 62.579C142.884 61.7081 143.204 60.8771 143.703 60.154C144.214 59.4332 144.807 58.7747 145.471 58.192C148.583 54.8711 152.074 51.9261 155.871 49.417C166.732 41.3256 178.365 34.3251 190.6 28.517C202.659 22.8553 215.371 18.7058 228.448 16.163C229.958 15.4003 231.568 14.8562 233.231 14.547C234.808 14.2476 236.409 14.093 238.014 14.085C239.954 14.085 241.895 14.162 243.837 14.316C245.779 14.47 247.72 14.547 249.659 14.547C254.837 14.5524 259.998 15.1333 265.048 16.279C270.2 17.4456 274.986 19.8643 278.981 23.321C281.743 25.7081 283.765 28.8349 284.806 32.334ZM398.038 143.746C398.251 143.274 398.287 142.742 398.138 142.246C397.614 142.534 397.125 142.883 396.682 143.285C396.241 143.689 395.752 144.038 395.226 144.324C391.343 147.557 387.496 150.791 383.685 154.024C379.874 157.257 376.027 160.567 372.143 163.953C362.298 172.266 352.559 180.578 342.925 188.891C333.291 197.204 323.9 205.977 314.751 215.21C311.7 218.288 307.956 222.175 303.521 226.871C299.086 231.567 294.752 236.608 290.521 241.995C286.413 247.208 282.595 252.642 279.083 258.274C276.009 262.941 273.856 268.153 272.741 273.629C271.493 280.246 273.434 283.555 278.564 283.558H279.915C280.595 283.514 281.262 283.358 281.891 283.096C285.886 282.334 289.72 280.889 293.224 278.824C296.773 276.736 300.209 274.463 303.518 272.013C313.596 264.482 322.834 255.889 331.073 246.382C340.153 236.044 348.658 225.214 356.547 213.941C364.586 202.471 372.072 190.733 379.007 178.728C385.942 166.723 392.042 155.408 397.307 144.785C397.591 144.469 397.837 144.12 398.038 143.746ZM449.3 105.07C448.744 105.532 448.225 105.957 447.74 106.34C447.249 106.728 446.728 107.076 446.181 107.379C441.785 109.816 437.517 112.475 433.391 115.345C429.3 118.195 425.315 121.235 421.434 124.466C419.907 125.7 418.347 126.931 416.755 128.16C415.158 129.392 413.451 130.475 411.655 131.393C410.291 132.295 409.094 133.428 408.12 134.741C407.135 136.071 406.297 137.503 405.62 139.013C398.553 153.022 391.102 166.645 383.265 179.882C375.428 193.119 366.94 205.972 357.8 218.443C355.305 221.827 352.22 225.906 348.546 230.681C344.872 235.456 340.817 240.42 336.381 245.574C331.942 250.73 327.228 255.887 322.239 261.045C317.54 265.933 312.54 270.521 307.267 274.783C302.649 278.54 297.669 281.829 292.4 284.6C288.094 286.977 283.28 288.283 278.363 288.41C274.756 288.255 272.053 287.062 270.252 284.831C268.451 282.6 267.758 279.483 268.173 275.479C268.563 271.57 269.581 267.75 271.188 264.165C272.78 260.622 274.547 257.159 276.488 253.774C282.372 244.207 289.124 235.202 296.66 226.874C304.699 217.869 313.259 209.094 322.342 200.551C331.425 192.008 340.575 183.888 349.793 176.191C359.011 168.492 367.433 161.488 375.059 155.179C379.079 151.795 383.169 148.447 387.329 145.134C391.489 141.821 395.648 138.473 399.806 135.09C400.914 134.015 401.989 132.899 403.03 131.742C404.137 130.479 405.016 129.033 405.63 127.47C407.43 123.314 409.197 119.158 410.93 115.002C412.663 110.846 414.292 106.613 415.817 102.302C416.233 101.072 416.614 99.8407 416.961 98.608C417.308 97.3753 417.62 96.1437 417.897 94.913C418.312 92.297 417.412 90.4497 415.197 89.371C414.198 89.0145 413.138 88.8579 412.078 88.91C409.166 88.91 405.388 89.872 400.744 91.796C396.1 93.72 391.04 96.1443 385.563 99.069C380.085 101.995 374.47 105.305 368.719 108.998C362.968 112.691 357.457 116.309 352.186 119.851C346.919 123.394 342.136 126.703 337.837 129.779C333.538 132.855 330.141 135.318 327.647 137.168C320.297 142.558 312.984 147.907 305.708 153.216C298.432 158.525 290.911 163.566 283.145 168.34C280.509 169.877 277.909 171.301 275.345 172.612C272.746 173.93 269.984 174.901 267.131 175.498C266.241 175.669 265.337 175.746 264.431 175.729C259.577 175.729 257.29 172.65 257.569 166.493C257.854 162.184 258.911 157.96 260.688 154.024C262.694 149.272 264.986 144.646 267.551 140.17C270.183 135.552 272.921 131.203 275.765 127.124C278.609 123.045 281.07 119.62 283.148 116.849C296.207 99.7183 310.824 83.8341 326.813 69.4C342.518 55.2859 359.665 42.8641 377.97 32.34C380.881 30.648 384.104 28.9163 387.64 27.145C391.22 25.3562 394.9 23.7759 398.662 22.412C402.377 21.0545 406.162 19.8965 410 18.943C413.467 18.0554 417.028 17.5903 420.606 17.558C424.618 17.4202 428.553 18.6858 431.732 21.137C434.711 23.525 436.478 27.3347 437.032 32.566C437.313 35.5771 437.137 38.6132 436.512 41.572C435.89 44.4885 435.02 47.3465 433.912 50.115C432.269 54.3838 430.215 58.4824 427.778 62.353C425.35 66.2017 423.097 70.127 421.019 74.129C420.788 74.6598 420.413 75.1147 419.935 75.4415C419.457 75.7682 418.897 75.9535 418.319 75.976C416.1 75.976 414.991 74.5137 414.992 71.589C415.089 70.51 415.37 69.4556 415.824 68.472C416.295 67.5367 416.852 66.6476 417.488 65.816C419.012 62.894 420.606 60.0847 422.271 57.388C423.982 54.6045 425.511 51.7123 426.846 48.73C427.78 46.6676 428.579 44.5464 429.237 42.38C429.871 40.2379 430.255 38.0295 430.381 35.799C431.073 28.565 428.023 24.7937 421.231 24.485C417.437 24.4731 413.659 24.9777 410.001 25.985C406.394 26.985 402.72 28.178 398.979 29.564C386.876 34.2524 375.304 40.2121 364.459 47.343C352.629 55.0253 341.37 63.5526 330.77 72.858C320.004 82.2745 309.859 92.3786 300.4 103.107C291.423 113.213 283.22 123.98 275.861 135.318C274.613 137.318 273.261 139.589 271.806 142.13C270.351 144.671 268.964 147.288 267.647 149.98C266.342 152.643 265.196 155.381 264.216 158.18C263.302 160.733 262.606 163.36 262.136 166.031C261.72 169.415 262.69 171.108 265.047 171.111C267.404 171.114 270.281 170.229 273.678 168.456C277.073 166.684 279.811 165.184 281.892 163.956C289.613 159.367 297.076 154.356 304.247 148.947C311.386 143.561 318.63 138.173 325.979 132.784C335.961 125.55 345.873 118.469 355.716 111.541C365.611 104.581 375.889 98.1806 386.5 92.37C389.967 90.678 393.433 89.0233 396.9 87.406C400.289 85.8158 403.847 84.6151 407.506 83.827C408.227 83.6708 408.955 83.555 409.689 83.48C410.45 83.405 411.249 83.365 412.081 83.365C412.987 83.3479 413.891 83.4253 414.781 83.596C416.159 83.7438 417.485 84.2058 418.657 84.9464C419.829 85.687 420.815 86.6865 421.54 87.868C423.02 90.4159 423.431 93.4458 422.684 96.296C421.889 100.476 420.706 104.573 419.148 108.533C417.621 112.383 416.027 116.308 414.365 120.309C414.086 120.926 413.845 121.509 413.637 122.041C413.429 122.573 413.186 123.16 412.91 123.773C416.237 121.619 419.495 119.425 422.684 117.192C425.873 114.959 429.131 112.765 432.458 110.612C433.48 109.841 434.558 109.147 435.681 108.533C437.273 107.61 438.973 106.686 440.781 105.763C442.589 104.84 444.289 103.993 445.881 103.223C446.879 102.651 447.97 102.26 449.104 102.068C449.331 102.041 449.561 102.096 449.752 102.223C449.942 102.35 450.081 102.541 450.144 102.761C450.56 103.533 450.28 104.301 449.312 105.07H449.3ZM574.7 52.078C574.836 53.5749 574.836 55.0811 574.7 56.578C574.153 62.9855 573.18 69.3496 571.788 75.628C570.401 81.862 568.946 88.2117 567.421 94.677C564.37 108.687 561.666 122.695 559.311 136.702C556.956 150.709 554.807 164.871 552.864 179.188C552.448 182.727 552.102 186.306 551.825 189.925C551.551 193.602 551.831 197.299 552.656 200.893C552.759 201.228 552.793 201.581 552.753 201.929C552.714 202.278 552.603 202.614 552.427 202.918C552.251 203.221 552.015 203.485 551.732 203.693C551.45 203.901 551.127 204.048 550.785 204.125C550.442 204.166 550.094 204.139 549.762 204.045C549.429 203.951 549.118 203.793 548.848 203.578C548.577 203.363 548.351 203.097 548.184 202.794C548.017 202.492 547.911 202.159 547.873 201.816C547.597 200.446 547.423 199.056 547.353 197.66C547.282 196.274 547.249 194.889 547.253 193.504C547.655 184.839 548.557 176.204 549.953 167.643C551.337 159.176 552.654 150.633 553.904 142.012C555.704 130.16 557.888 118.46 560.455 106.912C563.022 95.364 565.483 83.819 567.837 72.277C568.39 69.8163 568.84 67.3917 569.189 65.003C569.538 62.6143 569.78 60.19 569.917 57.73C570.217 56.4114 570.071 55.0304 569.501 53.804C568.428 54.2425 567.442 54.8683 566.589 55.652C565.758 56.424 564.925 57.2707 564.089 58.192C556.332 65.8803 549.074 74.0552 542.357 82.667C535.631 91.2897 529.15 100.218 522.914 109.452C521.386 111.761 519.861 113.995 518.338 116.152C516.733 118.407 514.996 120.566 513.138 122.617C512.555 123.129 511.829 123.452 511.058 123.541C510.667 123.551 510.281 123.461 509.935 123.279C509.589 123.097 509.295 122.829 509.082 122.502C508.59 121.791 508.336 120.942 508.355 120.078C508.349 117.838 508.488 115.6 508.77 113.378C509.047 111.224 509.325 109.069 509.602 106.913C510.571 100.758 511.819 94.755 513.346 88.903C514.873 83.051 516.328 77.1243 517.713 71.123C517.989 70.355 518.231 69.5853 518.44 68.814C518.652 67.9055 518.686 66.9644 518.54 66.043C517.618 66.7625 516.812 67.6192 516.149 68.583C515.55 69.4745 514.89 70.3232 514.173 71.123C504.884 82.979 495.873 94.9477 487.139 107.029C478.405 119.11 469.812 131.388 461.36 143.862C458.585 148.173 455.743 152.368 452.834 156.446C449.925 160.524 447.014 164.642 444.1 168.8C443.466 169.494 442.875 170.227 442.332 170.994C441.786 171.759 441.196 172.491 440.565 173.187C440.192 173.665 439.72 174.057 439.182 174.336C438.643 174.615 438.051 174.774 437.445 174.803C436.855 174.832 436.272 174.671 435.782 174.342C434.394 173.418 433.909 171.802 434.326 169.493C434.602 168.569 434.845 167.645 435.054 166.722C435.248 165.836 435.563 164.982 435.99 164.182C437.771 159.301 439.819 154.522 442.124 149.866C444.412 145.248 446.734 140.63 449.091 136.012C457.824 119.235 466.87 102.726 476.229 86.483C485.588 70.2403 495.604 54.4237 506.279 39.033C507.797 36.7323 509.464 34.5339 511.27 32.452C513.069 30.3777 514.605 28.0898 515.845 25.64C517.006 23.4563 518.399 21.4044 520 19.52C521.524 17.7533 523.118 16.0217 524.783 14.325C525.04 14.0355 525.318 13.7654 525.615 13.517C525.911 13.2673 526.189 12.9974 526.447 12.709C527.133 12.0954 528.027 11.7652 528.947 11.785C529.34 11.7777 529.73 11.8566 530.09 12.0163C530.449 12.1759 530.769 12.4124 531.027 12.709C531.815 13.3896 532.302 14.355 532.38 15.3936C532.458 16.4321 532.121 17.4593 531.443 18.25C530.611 19.484 529.778 20.6387 528.943 21.714C528.051 22.8596 527.078 23.9401 526.032 24.947C523.27 27.5502 520.763 30.4108 518.545 33.49C516.326 36.5713 514.108 39.65 511.891 42.726C499.966 59.968 488.666 77.555 477.991 95.487C467.316 113.419 457.405 132.007 448.259 151.25C447.98 151.712 447.703 152.214 447.427 152.75C447.119 153.439 446.976 154.19 447.011 154.944C447.98 153.714 448.847 152.521 449.611 151.365C450.375 150.209 451.103 149.093 451.794 148.017C460.805 134.473 469.886 121.158 479.037 108.071C488.188 94.9843 497.755 82.2077 507.737 69.741C508.984 68.2037 510.266 66.6643 511.584 65.123C512.875 63.6098 514.302 62.2184 515.847 60.966C516.288 60.3742 516.85 59.8829 517.495 59.5246C518.14 59.1664 518.855 58.9494 519.59 58.888C520.344 58.8619 521.082 59.1078 521.67 59.581C522.172 59.8879 522.594 60.3096 522.901 60.8113C523.208 61.313 523.392 61.8805 523.437 62.467C523.502 63.6688 523.397 64.8736 523.125 66.046C522.585 69.3652 521.821 72.6441 520.838 75.86C519.866 79.0173 518.896 82.2113 517.927 85.442C516.399 90.37 515.116 95.296 514.079 100.22C513.042 105.144 512.245 110.147 511.688 115.229C511.535 115.757 511.431 116.298 511.376 116.845C511.317 117.552 511.424 118.264 511.688 118.923C512.24 118.155 512.76 117.462 513.248 116.845C513.758 116.193 514.21 115.498 514.599 114.767C520.422 105.531 526.418 96.4873 532.587 87.636C538.772 78.7639 545.546 70.3169 552.863 62.352L556.295 58.542C557.75 56.926 559.31 55.3097 560.974 53.693C562.501 52.1918 564.134 50.8028 565.861 49.537C567.006 48.562 568.42 47.958 569.916 47.805C570.795 47.8166 571.656 48.0554 572.416 48.498C573.049 48.8759 573.585 49.3964 573.981 50.0179C574.378 50.6393 574.624 51.3447 574.7 52.078ZM694.9 34.76C692.82 31.76 689.423 30.26 684.71 30.26C683.707 30.209 682.707 30.4076 681.799 30.838C681.103 31.224 680.618 32.186 680.343 33.724C679.927 36.0327 678.61 37.187 676.392 37.187C675.755 37.17 675.137 36.9632 674.618 36.5929C674.1 36.2227 673.703 35.706 673.48 35.109C673.065 34.034 672.649 33.493 672.233 33.493C671.94 33.4976 671.654 33.5771 671.401 33.724C671.121 33.879 670.845 34.034 670.569 34.186C665.433 36.7808 660.588 39.9155 656.116 43.537C651.898 46.9893 648.001 50.8148 644.47 54.967C640.84 59.2531 637.538 63.807 634.593 68.59C631.541 73.5193 628.491 78.7527 625.442 84.29C625.195 85.036 625.054 85.8135 625.026 86.599C624.887 89.369 623.709 90.7543 621.491 90.755C620.402 90.4647 619.469 89.7603 618.891 88.792C618.253 87.7141 618.066 86.4279 618.371 85.213C618.719 83.6803 619.432 82.2544 620.45 81.057C624.054 75.515 627.659 70.2043 631.264 65.125C634.777 60.1576 638.597 55.415 642.702 50.925C646.729 46.5308 651.147 42.5119 655.902 38.918C660.891 35.1827 666.3 32.0443 672.019 29.567C672.856 29.1763 673.591 28.598 674.168 27.8771C674.745 27.1562 675.148 26.312 675.346 25.41C675.347 24.9406 675.417 24.4739 675.554 24.025C675.627 23.8317 675.647 23.6221 675.61 23.4187C675.573 23.2153 675.482 23.0256 675.346 22.87C674.085 22.9413 672.849 23.255 671.707 23.794C670.207 24.4334 668.748 25.1661 667.34 25.988C665.884 26.836 664.463 27.721 663.077 28.643C661.691 29.565 660.512 30.3347 659.541 30.952C627.376 54.966 603.669 86.9076 588.42 126.777C586.092 132.992 584.181 139.356 582.701 145.826C581.222 152.39 580.352 159.076 580.101 165.799C580.056 169.62 580.546 173.429 581.557 177.114C583.081 180.808 585.23 182.655 588.003 182.655C589.744 182.665 591.471 182.352 593.098 181.732C594.722 181.1 596.287 180.327 597.777 179.423C604.354 175.65 610.492 171.159 616.077 166.03C623.414 159.486 630.391 152.548 636.977 145.249C644.116 137.398 651.116 128.97 657.977 119.965C664.838 110.96 671.042 102.032 676.589 93.18C681.737 85.0586 686.358 76.6145 690.422 67.9C694.094 59.9 696.278 53.0497 696.973 47.349C697.665 41.9597 696.972 37.7633 694.893 34.76H694.9ZM685.542 26.332C691.085 26.332 695.244 28.332 698.019 32.332C700.794 36.332 701.694 41.72 700.719 48.496C699.83 55.1952 697.974 61.73 695.208 67.896C692.169 74.9344 688.661 81.761 684.708 88.33C680.685 95.0273 676.492 101.416 672.127 107.495C667.762 113.574 663.846 118.847 660.377 123.312C658.298 125.931 655.56 129.356 652.163 133.587C648.766 137.818 644.918 142.321 640.621 147.095C636.322 151.868 631.817 156.678 627.104 161.527C622.623 166.158 617.903 170.551 612.963 174.688C608.719 178.283 604.16 181.491 599.342 184.271C594.975 186.731 591.059 187.962 587.592 187.965C586.335 188.034 585.078 187.845 583.897 187.408C582.717 186.971 581.639 186.296 580.73 185.425C579.024 183.659 577.743 181.527 576.986 179.191C576.129 176.608 575.571 173.935 575.323 171.225C575.043 168.374 574.904 165.795 574.907 163.489C575.212 156.803 576.115 150.157 577.607 143.632C579.177 136.712 581.262 129.92 583.846 123.312C599.235 83.4453 623.011 50.965 655.175 25.871C659.878 22.1947 665.054 19.1675 670.564 16.871C671.256 16.5637 671.949 16.2943 672.644 16.063C673.327 15.8351 674.021 15.6425 674.723 15.486C675.004 15.4865 675.285 15.4475 675.555 15.37C675.826 15.2943 676.106 15.2556 676.387 15.255C677.271 15.2207 678.149 15.4025 678.946 15.7847C679.743 16.1668 680.435 16.7378 680.962 17.448C681.528 18.2617 681.913 19.187 682.092 20.1618C682.271 21.1365 682.24 22.1383 682 23.1C681.86 24.486 681.964 25.3713 682.312 25.756C683.007 26.2437 683.862 26.4499 684.703 26.333H685.535L685.542 26.332ZM807.298 27.717C807.226 28.8085 807.052 29.8909 806.778 30.95C805.97 33.9657 804.891 36.9023 803.555 39.724C802.236 42.4947 801.023 45.3427 799.916 48.268C795.617 58.428 791.389 68.549 787.231 78.631C783.034 88.8244 779.492 99.2749 776.625 109.919C773.297 121.926 770.316 133.972 767.683 146.055C765.05 158.138 762.831 170.415 761.028 182.884C760.621 185.408 760.343 187.952 760.196 190.504C760.061 193.052 760.201 195.606 760.612 198.124C760.883 198.785 760.918 199.518 760.712 200.202C760.587 200.522 760.374 200.799 760.098 201.004C759.822 201.208 759.494 201.33 759.152 201.356C758.834 201.461 758.492 201.462 758.174 201.358C757.856 201.254 757.579 201.051 757.385 200.779C757.014 200.18 756.767 199.512 756.657 198.816C756.242 195.987 756.172 193.119 756.449 190.273C756.725 187.502 757.002 184.731 757.281 181.96C763.305 139 775.128 97.0556 792.425 57.273C793.949 53.7337 795.405 50.1163 796.792 46.421C798.179 42.7257 799.635 39.031 801.16 35.337C801.849 33.8137 802.204 32.1601 802.199 30.488C801.499 31.105 800.848 31.722 800.224 32.335C799.6 32.948 798.94 33.569 798.248 34.183C789.93 43.419 781.924 52.8473 774.229 62.468C766.534 72.0887 758.805 81.7483 751.042 91.447C740.365 104.994 730.314 119.002 720.888 133.471C711.462 147.94 702.589 162.871 694.27 178.266C693.99 178.879 693.542 179.727 692.918 180.806C692.294 181.885 691.599 182.96 690.839 184.039C690.151 185.021 689.386 185.948 688.551 186.809C688.281 187.136 687.949 187.406 687.574 187.604C687.199 187.803 686.789 187.925 686.367 187.964C685.869 187.856 685.381 187.701 684.912 187.502C684.383 187.313 683.922 186.97 683.588 186.518C683.255 186.065 683.064 185.524 683.04 184.962C683.039 183.881 683.109 182.802 683.248 181.73C683.524 180.496 683.836 179.263 684.184 178.03C684.532 176.797 684.913 175.566 685.328 174.336C688.748 163.676 692.704 153.196 697.181 142.936C701.617 132.776 706.192 122.616 710.906 112.457C718.393 96.755 726.122 81.3613 734.094 66.276C742.066 51.1907 750.28 36.182 758.736 21.25C759.217 20.6468 759.539 19.9322 759.672 19.172C759.739 18.5593 759.219 17.8667 758.113 17.094C757.658 16.8999 757.27 16.5788 756.993 16.1693C756.716 15.7598 756.564 15.2791 756.553 14.785C756.492 13.6608 756.744 12.5417 757.281 11.552C757.815 10.425 758.44 9.34397 759.152 8.32001C760.004 7.06327 760.942 5.86737 761.96 4.741C762.958 3.62469 764.074 2.61891 765.287 1.741C766.204 0.993545 767.33 0.549719 768.51 0.471008C769.067 0.475252 769.616 0.601424 770.12 0.840698C770.623 1.07997 771.067 1.42652 771.422 1.85599C771.799 2.16595 772.105 2.55295 772.321 2.99103C772.536 3.4291 772.655 3.90813 772.67 4.396C772.657 5.40944 772.517 6.41728 772.254 7.396C771.841 8.61725 771.355 9.81244 770.798 10.975C770.242 12.129 769.618 13.322 768.926 14.554C763.935 23.79 758.771 32.9107 753.434 41.916C748.097 50.9213 742.931 60.0427 737.938 69.28C729.064 85.7533 720.642 102.34 712.671 119.039C704.573 136.051 697.456 153.513 691.355 171.339C691.008 172.464 690.799 173.627 690.732 174.802C701.406 155.562 712.773 137.167 724.832 119.617C736.891 102.067 749.647 84.903 763.1 68.125C767.952 61.9703 772.804 55.89 777.657 49.884C782.51 43.878 787.57 38.0283 792.838 32.335C793.946 31.105 795.09 29.912 796.27 28.756C797.451 27.5981 798.739 26.5544 800.117 25.639C801.123 24.7831 802.347 24.2236 803.652 24.023C804.504 24.0322 805.321 24.3621 805.94 24.947C806.382 25.2555 806.739 25.6719 806.975 26.1566C807.212 26.6414 807.32 27.1785 807.291 27.717H807.298Z" stroke="black" stroke-width="2" mask="url(#path-1-inside-1)"/>
</svg>
